<?xml version="1.0" encoding="utf-8"?>
<!-- Generator: Adobe Illustrator 27.6.1, SVG Export Plug-In . SVG Version: 6.00 Build 0)  -->
<svg version="1.1" xmlns="http://www.w3.org/2000/svg" xmlns:xlink="http://www.w3.org/1999/xlink" x="0px" y="0px"
	 viewBox="0 0 500 500" style="enable-background:new 0 0 500 500;" xml:space="preserve">
<style type="text/css">
	.st0{fill:#FFFFFF;}
	.st1{fill:#B3E3DF;}
	.st2{fill:#FF7383;}
	.st3{fill:#FFDC99;}
	.st4{fill:#FFBD97;}
	.st5{opacity:0.5;fill:#1D1D1B;}
	.st6{fill:#6CBBD9;}
	.st7{opacity:0.3;fill:#1D1D1B;}
	.st8{fill:#3D6173;}
	.st9{fill:#FFA1AC;}
	.st10{fill:#FFE8E2;}
	.st11{clip-path:url(#SVGID_00000076579033114585463080000017100131255463618953_);}
	.st12{fill:#577987;}
	.st13{fill:#32586B;}
	.st14{fill:none;stroke:#DE8F62;stroke-width:1.0276;stroke-linejoin:round;stroke-miterlimit:10;}
	.st15{fill:none;stroke:#3D6173;stroke-width:1.0276;stroke-linejoin:round;stroke-miterlimit:10;}
	.st16{fill:none;stroke:#E86171;stroke-width:1.0276;stroke-linejoin:round;stroke-miterlimit:10;}
	.st17{opacity:0.3;}
	.st18{fill:#1D1D1B;}
</style>
<g id="BACKGROUND">
	<rect x="0" y="0" class="st0" width="500" height="500"/>
</g>
<g id="OBJECTS">
	<g>
		<g>
			<g>
				<path class="st1" d="M168.34,306.5c-1.86,1.29-3.98,2.22-6.1,2.89c-4.28,1.36-8.77,1.81-13.12,3.28
					c-2.6,0.87-5.22,2.18-7.62,4.01c-3.88,2.91-6.98,7.21-8.86,12.14c-1.1,3.06-1.59,6.37-1.58,9.55c0,0-0.31-1.28-0.78-3.2
					c-0.23-0.96-0.51-2.08-0.8-3.28c-0.3-1.2-0.61-2.48-0.84-3.77c-1.03-5.16-2.06-10.33-2.06-10.33c0.95-2.87,2.5-5.41,4.23-7.65
					c1.74-2.25,3.72-4.21,5.79-6c1.81-1.54,3.7-2.95,5.6-4.41c0.95-0.73,1.88-1.46,2.82-2.22c0.96-0.77,1.9-1.56,2.82-2.4
					c2.27-2.06,4.29-4.35,6.08-6.76c0.9-1.2,1.74-2.43,2.52-3.68c0.78-1.25,1.5-2.5,2.26-3.77c1.47-2.54,2.76-5.1,3.95-7.66
					c0.6-1.28,1.17-2.56,1.73-3.83c0.55-1.27,1.21-2.55,1.8-3.81c-1.64,1.94-3.65,3.62-5.79,5.09c-2.16,1.48-4.54,2.76-6.93,3.92
					c-4.79,2.32-9.81,4.24-14.39,7.11c-1.36,0.85-2.71,1.81-4,2.88c-1.26,1.07-2.46,2.25-3.59,3.54c-1.72,1.97-3.24,4.22-4.5,6.68
					c-1.24,2.46-2.33,5.14-2.87,7.93c0,0-0.14-0.91-0.35-2.27c-0.16-1.37-0.36-3.2-0.57-5.02c-0.42-3.65-0.83-7.3-0.83-7.3
					c0.25-0.9,0.54-1.76,0.86-2.59c0.35-0.83,0.74-1.63,1.15-2.4c0.83-1.53,1.77-2.95,2.79-4.26c2.05-2.63,4.43-4.85,6.9-6.87
					c1.81-1.48,3.81-2.85,5.82-4.32c2-1.47,4-3.02,5.88-4.85c2.28-2.2,4.29-4.79,5.98-7.67c1.78-2.89,3.07-6.08,3.72-9.18
					c0.35-1.56,0.49-3.11,0.65-4.64c0.15-1.53,0.17-3.04,0.09-4.53c-0.15-2.97-0.76-5.87-1.56-8.6c0.17,4.97-2.71,9.71-6.43,13.09
					c-3.63,3.49-7.84,5.64-11.92,8.45c-2.46,1.71-4.86,3.73-7.11,6.21c-3.46,3.96-6.39,9.33-7.84,15.22
					c-0.09,0.42-0.16,0.84-0.23,1.26c0,0-0.02-0.28-0.06-0.77c-0.04-0.49-0.08-1.19-0.1-2.03c-0.05-1.69-0.12-3.93-0.19-6.18
					c-0.07-2.25-0.14-4.49-0.19-6.18c-0.03-0.84-0.05-1.54-0.03-2.04c0.01-0.49,0.01-0.77,0.01-0.77c0.93-2.98,1.87-5.96,2.81-8.95
					c0.45-1.48,0.91-2.96,1.36-4.44c0.51-1.47,1.01-2.95,1.52-4.43c0.88-2.57,1.76-5.15,2.51-7.74c0.36-1.3,0.73-2.6,1.09-3.91
					c0.35-1.31,0.65-2.64,0.89-3.98c0.6-3.24,0.71-6.54,0.71-9.82c0.04-3.28-0.22-6.58-0.66-9.83c-0.2-1.63-0.54-3.26-0.75-4.86
					c-0.24-1.61-0.51-3.21-0.81-4.82c-0.59-3.21-1.28-6.43-1.95-9.68c-0.05,2.92-0.63,5.76-1.53,8.53
					c-0.45,1.38-0.98,2.75-1.56,4.09c-0.6,1.34-1.2,2.66-1.79,3.97c-1.21,2.6-2.55,5.15-3.84,7.75c-0.64,1.3-1.28,2.61-1.88,3.94
					c-0.58,1.34-1.06,2.7-1.52,4.1c-1.08,3.36-1.81,6.9-2.17,10.48c-0.39,5.4,0.27,10.79,1.28,16.02
					c1.24,5.24,2.87,10.33,4.37,15.26c0,0,0.17,5.46,0.33,10.91c0.04,1.36,0.09,2.73,0.13,4.01c0.09,1.28,0.18,2.47,0.25,3.49
					c0.15,2.04,0.25,3.4,0.25,3.4c-0.46-2-1.06-4.01-1.77-6.01c-0.7-1.99-1.36-3.98-2.17-5.92c-2.11-5.3-4.69-10.51-7.45-15.1
					c-3.31-5.4-7.45-9.93-10.84-14.66c-1.71-2.35-3.4-4.82-4.77-7.61c-0.69-1.39-1.3-2.86-1.8-4.43c-0.46-1.57-0.77-3.23-0.94-5.01
					c-0.18,1.54-0.36,3.07-0.54,4.6c-0.12,1.54-0.24,3.07-0.36,4.62c-0.2,3.11-0.31,6.33-0.27,9.55c-0.01,1.6,0.11,3.21,0.29,4.83
					c0.17,1.61,0.4,3.22,0.68,4.82c0.59,3.2,1.38,6.35,2.61,9.36c0.78,1.79,1.7,3.53,2.71,5.15c0.98,1.58,2.04,3.08,3.14,4.47
					c1.81,2.27,3.67,4.22,5.68,6c2.02,1.78,4.06,3.4,6.07,5.01c1.96,1.56,3.88,3.16,5.66,4.88c1.78,1.72,3.38,3.58,4.91,5.67
					c0,0,0.63,5.47,1.25,10.94c0.13,1.37,0.36,2.73,0.56,4c0.2,1.28,0.39,2.47,0.55,3.49c0.32,2.04,0.53,3.4,0.53,3.4
					c0.01,1.99,0.18,3.97,0.55,5.87c-1.2-4.46-2.96-8.92-5.23-13.3c-2.39-4.83-5.17-9.69-9.17-13.69c-2.45-2.42-4.99-4.47-7.82-6.17
					c-2.81-1.7-5.78-3.07-8.76-4.14c-5.97-2.16-12.02-3.25-18.03-4.37c4.91,2.38,8.88,6.76,12.04,11.32
					c0.79,1.14,1.53,2.3,2.27,3.46c0.75,1.16,1.51,2.32,2.26,3.47c1.48,2.3,2.93,4.56,4.49,6.66c1.89,2.53,3.88,4.8,6.15,6.82
					c3.63,3.28,7.57,5.81,11.6,8.41c3.96,2.6,8.24,5.28,11.85,8.62c-0.2-1.37-0.49-2.75-0.83-4.13c0.12,0.35,0.25,0.7,0.37,1.05
					c0,0,0.71,3.56,1.42,7.12c0.35,1.78,0.7,3.56,1.05,4.88c0.32,1.32,0.54,2.21,0.54,2.21c-0.63-0.92-1.29-1.82-2.01-2.68
					c-3.15-4.05-7.05-7.78-11.87-10.14c-2.84-1.39-5.74-2.23-8.57-2.7c-2.81-0.48-5.6-0.59-8.26-0.52
					c-5.35,0.12-10.5,0.96-16.07,0.59c2.26,0.85,4.38,2.05,6.43,3.43c2.11,1.37,4.14,2.94,6.14,4.56c3.96,3.22,7.64,6.69,11.46,9.29
					c1.16,0.78,2.33,1.48,3.48,2.09c1.1,0.62,2.2,1.16,3.3,1.66c3.58,1.62,7.13,2.54,10.74,3.78c1.54,0.54,3.09,1.17,4.58,1.99
					c1.52,0.81,3,1.79,4.32,3.03c0,0,0.43,1.48,1.07,3.71c0.67,2.22,1.44,5.21,2.41,8.14c1.96,5.86,3.92,11.72,3.92,11.72
					c-2.18-2.69-4.87-5.18-7.78-7.34c-4.36-3.24-8.9-6.19-13.85-7.94c-5.86-2.08-11.55-2.45-16.97-2.7
					c-5.44-0.26-10.77-0.38-16.49-2.85c2.16,1.68,4.12,3.53,6.2,5.4c2.05,1.87,4.15,3.79,6.28,5.74c2.1,1.9,4.24,3.78,6.44,5.49
					c2.2,1.72,4.6,3.23,6.98,4.49c2.92,1.51,5.8,2.53,8.55,3.26c4.55,1.18,8.75,1.45,13.13,1.86c3.5,0.35,7.07,0.95,10.44,2.42
					c0,0,0.84,2.2,2.11,5.51c0.6,1.67,1.45,3.55,2.32,5.58c0.88,2.03,1.82,4.2,2.75,6.36c0.47,1.08,0.94,2.17,1.4,3.23
					c0.48,1.06,1,2.08,1.47,3.08c0.97,1.99,1.87,3.85,2.64,5.44c1.55,3.18,2.58,5.31,2.58,5.31l1.69-0.87c0,0-1.09-2.25-2.73-5.62
					c-1.62-3.38-3.9-7.83-5.8-12.46c-1.96-4.59-4.04-9.14-5.3-12.68c-1.34-3.5-2.23-5.83-2.23-5.83c1.73-5.81,5.14-10.49,8.94-14.47
					c3.19-3.32,6.74-6.18,9.8-9.6c0.94-1.04,1.81-2.14,2.68-3.29c0.88-1.16,1.72-2.37,2.51-3.62c1.58-2.5,2.96-5.16,4.07-7.88
					c0.56-1.35,1.04-2.73,1.46-4.1c0.44-1.38,0.86-2.78,1.17-4.16c0.64-2.77,0.98-5.51,0.98-8.13c-1.32,4.52-5.42,8.26-9.66,10.97
					c-4.27,2.75-9,4.82-13.16,7.93c-2.51,1.86-4.86,4.2-6.83,6.96c-3.19,4.44-5.25,10.06-5.59,15.79c-0.08,1.03-0.1,2.07-0.08,3.11
					c0,0-0.48-1.43-1.2-3.57c-0.36-1.07-0.78-2.32-1.23-3.66c-0.45-1.34-0.83-2.8-1.26-4.25c-0.84-2.9-1.67-5.79-2.3-7.97
					c-0.31-1.09-0.57-1.99-0.76-2.63c-0.16-0.64-0.25-1.01-0.25-1.01c-0.03-0.16-0.07-0.32-0.1-0.49
					c3.22-5.31,7.68-8.49,12.38-10.87c3.6-1.81,7.38-3.14,10.85-5.23c2.14-1.28,4.17-2.88,6.12-4.73c1.97-1.85,3.79-3.94,5.36-6.19
					c1.57-2.23,2.86-4.61,3.8-7.02c0.24-0.6,0.44-1.2,0.64-1.8c0.21-0.61,0.41-1.21,0.57-1.81c0.33-1.21,0.57-2.4,0.69-3.57
					C171.74,303.57,170.18,305.22,168.34,306.5z"/>
			</g>
			<path class="st2" d="M417.41,235.59c10.63-3.29,20.36-9.44,27.91-17.61c1.68-1.82,3.28-3.79,4.17-6.1
				c0.89-2.31,0.98-5.05-0.28-7.18c-1.8-3.04-5.88-4.07-9.34-3.34c-3.46,0.72-6.44,2.83-9.31,4.88c0.36-3.73,0.21-7.93-0.99-11.48
				c-1.21-3.55-4.43-6.71-8.17-6.58c-2.73,0.09-5.19,1.9-6.68,4.18s-2.17,5-2.67,7.69C409.81,212.21,413.17,223.98,417.41,235.59z"
				/>
			<path class="st2" d="M130.33,159.13c2.88-6.51,4.6-13.53,5.05-20.64c0.13-2.03,0.14-4.14-0.6-6.03c-0.74-1.9-2.39-3.57-4.42-3.76
				c-2.28-0.22-4.4,1.46-5.41,3.51c-1.02,2.05-1.17,4.4-1.3,6.69c-2.15-1.63-4.55-3.82-7.2-4.31s-5.81,0.64-6.72,3.18
				c-0.97,2.73,0.93,5.59,2.88,7.73C117.51,150.92,123.82,155.8,130.33,159.13z"/>
			<path class="st2" d="M59.33,190.79c-0.45-4.1,0.23-8.51,2.84-11.7c2.61-3.19,7.44-4.73,11.06-2.76c3.77,2.05,4.99,6.8,5.58,11.05
				c1.77,12.86,1.08,26.05-2.03,38.65c-13.33-1.45-26.16-8.33-34.35-18.95c-2.06-2.67-3.88-5.64-4.5-8.96
				c-0.62-3.32,0.14-7.04,2.62-9.34c2.46-2.28,6.18-2.78,9.47-2.09S56.42,189.11,59.33,190.79z"/>
			<g>
				<path class="st1" d="M409.6,356.76c-1.95,0.51-3.99,0.51-5.93,0.25c-3.89-0.53-7.51-1.98-11.48-2.48
					c-2.37-0.31-4.95-0.26-7.58,0.26c-4.23,0.81-8.41,2.92-11.89,5.86c-2.27,1.81-4.22,4-5.72,6.31c0,0,0.38-1.08,0.96-2.69
					c0.55-1.62,1.39-3.75,2.05-5.93c1.37-4.36,2.74-8.71,2.74-8.71c2-1.8,4.03-3.25,6.22-4.42c2.18-1.18,4.46-2.09,6.76-2.87
					c3.97-1.33,8.2-2.22,12.2-4.13c4.95-2.34,9.57-6.14,13.39-10.5c1.88-2.19,3.64-4.52,5.32-6.92c1.69-2.4,3.32-4.88,4.81-7.41
					c-3.47,3.62-8.28,5.49-12.85,6.69c-4.6,1.19-9.26,1.82-13.76,3.28c-1.34,0.43-2.68,0.95-4.01,1.56
					c-1.36,0.61-2.71,1.31-4.03,2.1c-2.01,1.22-3.92,2.68-5.67,4.34c-1.77,1.66-3.3,3.55-4.8,5.56c0,0,0.21-0.77,0.53-1.92
					c0.27-1.16,0.64-2.72,1-4.27c0.73-3.1,1.46-6.21,1.46-6.21c0.47-0.67,0.96-1.3,1.47-1.9c0.48-0.61,0.99-1.18,1.51-1.73
					c1.04-1.09,2.15-2.07,3.31-2.96c2.32-1.78,4.84-3.22,7.4-4.53c3.82-1.9,7.76-3.5,11.65-6.44c2.32-1.77,4.57-4.03,6.47-6.74
					c1.85-2.72,3.32-5.9,4.24-9.08c0.45-1.6,0.85-3.19,1.03-4.79c0.19-1.6,0.27-3.19,0.26-4.75c-0.03-3.13-0.39-6.15-1.05-8.95
					c0.03,5.17-2.71,10.09-6.02,13.29c-3.43,3.31-7.36,5.04-11.14,7.29c-2.29,1.36-4.55,2.96-6.73,4.91
					c-3.64,3.1-6.97,7.29-9.2,12.01c-0.17,0.33-0.32,0.67-0.48,1.01c0,0,0.05-0.24,0.13-0.66c0.09-0.42,0.19-1.02,0.3-1.74
					c0.23-1.44,0.53-3.37,0.84-5.3c0.3-1.93,0.61-3.85,0.84-5.3c0.12-0.72,0.21-1.32,0.25-1.75c0.05-0.42,0.08-0.67,0.08-0.67
					c1.1-2.47,2.19-4.97,3.26-7.49c0.53-1.27,1.06-2.54,1.59-3.81c0.48-1.29,0.95-2.58,1.43-3.87c1.65-4.53,3.38-9.17,3.9-14.09
					c0.34-2.97,0.42-5.97,0.1-8.95c-0.34-2.97-0.94-5.91-1.69-8.74c-0.71-2.83-1.75-5.57-2.85-8.24c-1.1-2.67-2.27-5.28-3.43-7.86
					c0.49,2.46,0.53,4.99,0.28,7.5c-0.27,2.51-0.72,4.98-1.51,7.35c-0.74,2.37-1.6,4.67-2.4,6.97c-0.4,1.15-0.8,2.3-1.16,3.47
					c-0.38,1.16-0.77,2.33-1.09,3.52c-0.78,2.86-1.24,5.8-1.39,8.77c-0.35,4.47,0.04,8.92,0.81,13.38c0.6,4.44,1.55,8.88,2.36,13.28
					c0,0-0.73,4.63-1.46,9.26c-0.18,1.16-0.37,2.32-0.54,3.4c-0.21,1.08-0.41,2.08-0.58,2.95c-0.34,1.73-0.56,2.88-0.56,2.88
					c0.07-1.76,0.02-3.56-0.13-5.34c-0.15-1.78-0.49-3.58-0.84-5.32c-0.97-4.76-2.24-9.36-4.36-13.37
					c-2.44-4.72-5.4-8.54-8.39-12.33c-1.44-1.88-2.86-3.8-4.01-5.89c-0.58-1.05-1.09-2.14-1.5-3.29c-0.44-1.15-0.81-2.37-1.05-3.67
					c-0.08,1.13-0.16,2.25-0.23,3.37c-0.12,1.12-0.25,2.24-0.37,3.36c-0.21,2.27-0.35,4.61-0.36,6.96c0.02,2.35-0.05,4.73,0.23,7.12
					c0.24,2.39,0.74,4.8,1.46,7.18c0.42,1.42,0.95,2.82,1.58,4.18c0.61,1.32,1.29,2.61,2.02,3.85c1.18,2.01,2.55,3.86,3.87,5.61
					c1.32,1.75,2.69,3.43,4.02,5.13c1.3,1.66,2.55,3.37,3.65,5.19c1.1,1.82,2.07,3.77,2.65,5.85c0,0-1.08,4.6-2.16,9.21
					c-0.53,2.31-1.22,4.57-1.67,6.28c-0.47,1.71-0.78,2.85-0.78,2.85c-0.7,1.56-1.24,3.17-1.65,4.77c0.67-3.91,0.83-8.04,0.56-12.15
					c-0.37-4.55-1.37-9.21-3.5-13.32c-2.63-4.98-7-8.83-11.52-11.62c-4.57-2.82-9.44-4.73-14.29-6.61
					c3.69,2.48,6.16,6.26,7.88,10.17c0.43,0.98,0.83,1.97,1.18,2.96c0.33,0.99,0.64,1.98,0.95,2.97c0.61,1.98,1.2,3.96,1.92,5.88
					c0.86,2.32,1.93,4.56,3.01,6.69c1.81,3.47,4.09,6.64,6.37,10.04c2.33,3.39,4.36,6.99,5.76,11c0.41-1.12,0.76-2.27,1.08-3.45
					c-0.05,0.32-0.1,0.63-0.15,0.94c0,0-0.94,2.98-1.87,5.95c-0.46,1.49-0.93,2.98-1.34,4.07c-0.39,1.1-0.65,1.84-0.65,1.84
					c-0.02-0.95-0.08-1.9-0.2-2.84c-0.57-4.38-2.1-8.77-4.82-12.32c-3.22-4.19-7.63-6.69-11.88-8.52c-4.26-1.84-8.59-3.11-12.9-5.26
					c1.52,1.3,2.84,2.79,4.02,4.4c1.13,1.6,2.12,3.33,3.05,5.11c1.81,3.53,3.38,7.29,5.16,10.6c0.52,0.99,1.07,1.94,1.64,2.84
					c0.53,0.88,1.1,1.72,1.68,2.54c1.89,2.67,4.06,4.94,6.09,7.54c0.86,1.11,1.68,2.31,2.36,3.63c0.65,1.3,1.15,2.71,1.41,4.23
					c0,0-0.49,1.23-1.23,3.08c-0.75,1.84-1.68,4.33-2.74,6.76c-2.14,4.85-4.29,9.7-4.29,9.7c0.18-3.01-0.1-6.13-0.76-9.11
					c-0.86-4.41-2.59-8.77-5.11-12.37c-3.01-4.28-6.83-7.23-10.55-9.94c-3.68-2.68-7.6-5.28-10.77-9.14
					c0.87,1.85,1.64,3.79,2.25,5.75c0.61,1.96,1.15,3.98,1.74,6.05c0.57,2.05,1.17,4.14,1.87,6.22c0.69,2.08,1.39,4.09,2.32,6.06
					c1.12,2.37,2.45,4.53,3.83,6.49c2.27,3.21,4.91,5.89,7.29,8.7c1.92,2.28,3.7,4.79,4.77,7.76c0,0-0.89,1.82-2.22,4.55
					c-1.32,2.74-3.32,6.27-5.21,9.85c-0.48,0.89-0.96,1.79-1.43,2.67c-0.48,0.87-0.99,1.71-1.47,2.53
					c-0.96,1.64-1.86,3.17-2.62,4.48c-1.54,2.62-2.56,4.37-2.56,4.37l1.4,0.86c0,0,1.1-1.87,2.74-4.68
					c1.63-2.81,3.89-6.51,5.88-10.37c2.03-3.83,4.15-7.61,5.51-10.57c1.43-2.92,2.38-4.87,2.38-4.87c4.83-2.34,9.6-3.41,14.43-3.86
					c4.02-0.38,8.05-0.31,12.16-1.07c2.52-0.46,5.06-1.27,7.56-2.42c2.51-1.14,5.01-2.59,7.4-4.32c1.19-0.86,2.35-1.79,3.47-2.78
					c1.1-1,2.12-2.07,3.11-3.18c1.97-2.23,3.72-4.64,5.18-7.15c-3.47,3.67-8.39,4.94-12.8,5.04c-4.48,0.12-8.78-0.62-13.44-0.41
					c-2.77,0.12-5.69,0.64-8.56,1.61c-4.64,1.53-8.89,4.36-12.6,7.82c-0.66,0.62-1.28,1.28-1.87,1.95c0,0,0.53-1.2,1.32-2.99
					c0.4-0.9,0.86-1.94,1.36-3.07c0.5-1.12,0.95-2.35,1.44-3.56c0.97-2.43,1.94-4.86,2.66-6.68c0.36-0.91,0.67-1.67,0.88-2.2
					c0.19-0.54,0.31-0.85,0.31-0.85c0.05-0.14,0.11-0.27,0.16-0.4c4.82-2.21,9.6-2.5,14.16-2.11c3.5,0.3,6.9,1.05,10.49,0.96
					c2.19-0.06,4.55-0.45,6.88-1.19c2.31-0.75,4.65-1.83,6.89-3.24c2.23-1.39,4.35-3.13,6.23-5.1c1.91-1.96,3.39-4.2,4.59-6.5
					C413.45,355.22,411.56,356.25,409.6,356.76z"/>
			</g>
			<g>
				<path class="st1" d="M125.54,489.24c0,0,1.29,1.8,3.23,4.51c0.94,1.38,2.18,2.87,3.47,4.5c0.21,0.26,0.43,0.54,0.65,0.81h2.28
					c-2.3-2.87-4.53-5.62-6.09-7.94c-2.05-2.86-3.42-4.77-3.42-4.77c0.18-5.68,2.22-10.74,4.76-15.22
					c2.14-3.75,4.73-7.16,6.74-10.94c0.62-1.15,1.17-2.34,1.71-3.58c0.55-1.25,1.05-2.53,1.5-3.84c0.9-2.61,1.58-5.3,2.01-7.99
					c0.22-1.34,0.37-2.67,0.45-3.99c0.11-1.33,0.2-2.68,0.2-3.99c0.01-2.62-0.24-5.14-0.78-7.47c-0.28,4.32-3.23,8.58-6.53,11.95
					c-3.31,3.42-7.19,6.35-10.3,10.09c-1.88,2.24-3.51,4.88-4.7,7.84c-1.92,4.74-2.56,10.34-1.54,15.62
					c0.16,0.96,0.39,1.91,0.64,2.85c0,0-0.77-1.19-1.91-2.98c-0.57-0.89-1.24-1.94-1.96-3.05c-0.72-1.11-1.38-2.37-2.1-3.59
					c-1.41-2.46-2.82-4.91-3.88-6.75c-0.53-0.92-0.97-1.69-1.28-2.23c-0.29-0.55-0.45-0.86-0.45-0.86l-0.2-0.43
					c1.79-5.56,5.18-9.42,8.96-12.61c2.9-2.42,6.07-4.46,8.8-7.09c1.69-1.62,3.2-3.5,4.6-5.59c1.42-2.1,2.66-4.37,3.64-6.72
					c0.99-2.33,1.69-4.74,2.06-7.09c0.17-1.16,0.31-2.33,0.39-3.49c0.07-1.15,0.05-2.26-0.06-3.33c-0.41,1.86-1.51,3.66-2.95,5.2
					c-1.45,1.55-3.21,2.82-5.01,3.87c-3.64,2.12-7.66,3.47-11.34,5.7c-2.2,1.33-4.33,3.07-6.15,5.23
					c-2.95,3.46-4.89,8.03-5.58,12.94c-0.35,3.03-0.08,6.15,0.62,9.06c0,0-0.56-1.1-1.4-2.75c-0.42-0.83-0.91-1.79-1.44-2.82
					c-0.54-1.03-1.09-2.13-1.58-3.27c-2.03-4.51-4.05-9.02-4.05-9.02c0.26-2.83,1.18-5.47,2.31-7.88c1.14-2.41,2.56-4.61,4.1-6.66
					c1.35-1.77,2.8-3.44,4.25-5.14c1.43-1.69,2.9-3.43,4.28-5.33c3.39-4.66,5.6-9.89,7.26-14.98c0.89-2.57,1.6-5.12,2.23-7.65
					c0.3-1.25,0.59-2.51,0.89-3.76c0.27-1.24,0.66-2.51,0.98-3.75c-2.38,4.1-6.05,7.49-10.07,10.5c-3.98,3.01-8.23,5.71-11.91,9.2
					c-1.09,1.04-2.15,2.17-3.13,3.4c-0.95,1.22-1.83,2.53-2.61,3.93c-1.2,2.14-2.15,4.5-2.83,7c-0.65,2.5-1.14,5.18-1.07,7.84
					c0,0-0.31-0.8-0.79-2.01c-0.41-1.23-0.96-2.86-1.51-4.5c-1.1-3.27-2.2-6.54-2.2-6.54c0.06-0.87,0.15-1.72,0.28-2.54
					c0.17-0.83,0.37-1.64,0.61-2.43c0.47-1.57,1.07-3.05,1.76-4.44c1.39-2.8,3.16-5.29,5.06-7.6c1.39-1.69,2.97-3.31,4.57-5.03
					c1.58-1.71,3.14-3.49,4.55-5.5c1.7-2.42,3.09-5.13,4.14-8.04c1.14-2.94,1.79-6.05,1.86-8.96c0.06-1.47-0.09-2.89-0.19-4.3
					c-0.12-1.41-0.34-2.78-0.66-4.11c-0.63-2.67-1.68-5.18-2.86-7.52c0.98,4.47-0.9,9.24-3.77,12.95c-2.76,3.79-6.27,6.48-9.54,9.76
					c-1.97,2-3.83,4.27-5.48,6.95c-2.47,4.25-4.2,9.72-4.45,15.42c-0.01,0.4,0.01,0.8,0.02,1.2c0,0-0.07-0.25-0.2-0.7
					c-0.14-0.44-0.3-1.08-0.47-1.85c-0.35-1.54-0.83-3.6-1.3-5.66c-0.47-2.06-0.95-4.11-1.3-5.66c-0.18-0.77-0.33-1.41-0.4-1.87
					c-0.08-0.45-0.13-0.71-0.13-0.71c0.34-2.91,0.68-5.82,1.02-8.74c0.16-1.44,0.32-2.88,0.48-4.33c0.22-1.44,0.44-2.89,0.66-4.34
					c0.38-2.52,0.76-5.03,1.02-7.55l0.17-1.89l0.2-1.9c0.11-1.27,0.18-2.53,0.19-3.81c0.04-3.08-0.4-6.13-0.91-9.16
					c-0.47-3.03-1.2-6.03-2.11-8.97c-0.43-1.47-1-2.93-1.43-4.38c-0.45-1.45-0.94-2.9-1.45-4.34c-1.01-2.89-2.11-5.78-3.21-8.7
					c0.37,2.72,0.25,5.44-0.19,8.14c-0.39,2.7-1.26,5.38-1.92,7.97c-0.72,2.6-1.57,5.16-2.37,7.78c-0.4,1.31-0.79,2.62-1.14,3.96
					c-0.33,1.33-0.55,2.68-0.75,4.05c-0.46,3.3-0.56,6.71-0.33,10.09c0.54,5.08,2.07,9.97,3.88,14.64
					c2.07,4.64,4.46,9.06,6.72,13.34c0,0,1.15,5,2.3,10c0.29,1.25,0.58,2.5,0.85,3.67c0.33,1.16,0.63,2.24,0.89,3.16
					c0.52,1.85,0.87,3.09,0.87,3.09c-0.81-1.76-1.74-3.49-2.77-5.2c-1.02-1.71-1.99-3.42-3.09-5.06c-2.92-4.51-6.26-8.86-9.6-12.64
					c-4-4.43-8.64-7.93-12.56-11.78c-1.98-1.91-3.96-3.94-5.7-6.32c-0.87-1.19-1.69-2.47-2.41-3.86c-0.68-1.39-1.23-2.91-1.68-4.55
					c0.08,1.48,0.16,2.95,0.25,4.42c0.15,1.46,0.3,2.93,0.45,4.4c0.34,2.96,0.79,6,1.38,9.01c0.26,1.51,0.66,3,1.11,4.48
					c0.45,1.48,0.94,2.95,1.49,4.4c1.11,2.89,2.39,5.71,4.08,8.29c1.05,1.53,2.22,2.99,3.45,4.32c1.2,1.3,2.45,2.5,3.72,3.6
					c2.09,1.78,4.15,3.25,6.34,4.53c2.2,1.28,4.39,2.39,6.54,3.5c2.1,1.08,4.17,2.18,6.14,3.44c1.97,1.25,3.79,2.66,5.6,4.28
					c0,0,1.65,4.91,3.3,9.81c0.8,2.46,1.85,4.83,2.53,6.65c0.71,1.81,1.18,3.01,1.18,3.01c0.42,1.83,0.97,3.61,1.7,5.27
					c-2.01-3.85-4.53-7.58-7.51-11.15c-3.17-3.96-6.66-7.9-11.14-10.82c-2.74-1.76-5.45-3.18-8.39-4.21
					c-2.91-1.05-5.91-1.76-8.85-2.2c-5.91-0.89-11.69-0.79-17.44-0.73c4.98,1.33,9.49,4.69,13.28,8.34c0.95,0.91,1.85,1.86,2.76,2.8
					c0.93,0.93,1.85,1.87,2.77,2.8c1.82,1.86,3.61,3.68,5.46,5.32c2.24,1.98,4.52,3.7,7.02,5.11c4.01,2.31,8.15,3.86,12.37,5.43
					c4.15,1.59,8.66,3.16,12.66,5.46c-0.48-1.22-1.03-2.42-1.63-3.61c0.19,0.3,0.37,0.59,0.56,0.88c0,0,1.4,3.11,2.8,6.23
					c0.7,1.56,1.39,3.12,2,4.25c0.58,1.14,0.97,1.9,0.97,1.9c-0.77-0.71-1.57-1.39-2.42-2.02c-3.75-3.04-8.09-5.65-13.01-6.82
					c-2.9-0.69-5.74-0.86-8.43-0.72c-2.68,0.13-5.25,0.6-7.68,1.2c-4.89,1.2-9.42,3.03-14.62,3.8c2.25,0.34,4.45,1.02,6.62,1.9
					c2.23,0.85,4.44,1.89,6.61,2.98c4.32,2.17,8.44,4.62,12.51,6.21c1.24,0.47,2.46,0.87,3.65,1.19c1.14,0.33,2.27,0.6,3.38,0.83
					c3.63,0.72,7.08,0.8,10.65,1.15c1.52,0.16,3.08,0.4,4.61,0.83c1.57,0.4,3.14,0.97,4.63,1.81c0,0,0.72,1.26,1.81,3.15
					c1.11,1.87,2.48,4.44,4.03,6.89c3.14,4.88,6.28,9.77,6.28,9.77c-2.61-1.94-5.63-3.59-8.79-4.9c-4.74-1.95-9.53-3.64-14.45-4.15
					c-5.83-0.61-11.12,0.29-16.14,1.24c-5.05,0.94-9.94,1.98-15.73,0.9c2.36,1.1,4.56,2.41,6.91,3.7c2.31,1.29,4.68,2.61,7.08,3.95
					c2.36,1.3,4.75,2.56,7.16,3.66c2.41,1.1,4.97,1.95,7.44,2.57c3.02,0.73,5.89,1.01,8.58,1.05c4.43,0.04,8.3-0.68,12.4-1.33
					C118.74,489,122.13,488.71,125.54,489.24z"/>
			</g>
			<g>
				<path class="st1" d="M460.29,389.83c-2.19,2.33-4.71,4.18-7.21,5.44c-2.59,1.26-5.13,1.99-7.64,2.53
					c-2.51,0.54-4.98,0.9-7.54,1.32c-3.09,0.54-6.2,1.33-9.43,2.46c-2.63,0.88-5.29,2.06-7.83,3.51c-2.63,1.4-5.12,3.09-7.43,5.02
					c-0.34,0.27-0.65,0.55-0.98,0.83c0,0,0.16-0.23,0.44-0.63c0.28-0.4,0.69-0.97,1.15-1.67c0.93-1.4,2.16-3.27,3.4-5.14
					c1.2-1.89,2.35-3.81,3.23-5.24c0.89-1.42,1.43-2.41,1.43-2.41c2.23-2.16,4.58-4.29,6.69-6.63c1.08-1.17,2.16-2.34,3.24-3.51
					c1.06-1.2,2.06-2.45,3.09-3.7c0.89-1.1,1.83-2.18,2.67-3.34c0.84-1.15,1.66-2.33,2.47-3.53c1.66-2.38,2.97-4.99,4.13-7.72
					c0.73-1.64,1.21-3.37,1.64-5.12c0.4-1.75,0.82-3.49,0.98-5.29c0.33-3.59,0.45-7.15-0.03-10.65c-0.65-6.96-3.01-13.46-5.51-19.41
					c0.23,1.42,0.32,2.86,0.31,4.3c-0.03,1.44-0.07,2.89-0.42,4.3c-0.3,1.42-0.68,2.81-1.11,4.17c-0.23,0.68-0.43,1.35-0.71,2.01
					c-0.29,0.66-0.58,1.3-0.89,1.93c-0.61,1.27-1.24,2.5-1.88,3.71c-0.62,1.22-1.42,2.38-2.11,3.55c-0.71,1.17-1.41,2.33-2.07,3.5
					c-0.74,1.16-1.45,2.32-2.1,3.51c-1.48,2.88-3.01,5.82-4.04,8.92c-0.92,2.3-1.62,4.67-2.19,7.09c-0.68,2.38-1.15,4.85-1.63,7.34
					c-0.54,2.46-0.95,4.99-1.42,7.51c-0.52,2.49-0.98,5.03-1.55,7.51c0,0-0.7,1.14-1.75,2.86c-0.52,0.86-1.14,1.86-1.79,2.93
					c-0.69,1.05-1.43,2.17-2.17,3.28c-0.74,1.11-1.47,2.24-2.18,3.28c-0.73,1.03-1.4,1.98-1.99,2.81c-1.16,1.64-1.94,2.74-1.94,2.74
					c1.8-3.63,3.18-7.57,4-11.55c0.64-2.67,1.02-5.4,1.26-8.05c0.27-2.63,0.21-5.27-0.04-7.76c-0.25-2.92-0.94-5.71-1.72-8.35
					c-0.39-1.32-0.81-2.6-1.23-3.86c-0.47-1.25-0.94-2.48-1.41-3.72c-0.91-2.41-1.76-4.8-2.48-7.23c-0.34-1.21-0.59-2.43-0.72-3.66
					c-0.12-1.23-0.27-2.48-0.18-3.74c-0.39,1.01-0.72,2.02-1.14,3.03c-0.44,1.01-0.88,2.02-1.32,3.03
					c-0.77,2.06-1.79,4.21-2.54,6.43c-0.79,2.22-1.65,4.52-2.17,6.96c-0.69,2.41-1.06,4.97-1.28,7.64
					c-0.13,1.59-0.13,3.24-0.02,4.89c0.12,1.62,0.24,3.21,0.46,4.79c0.75,5.17,2.14,9.91,3.32,14.71c0.6,2.36,1.02,4.69,1.27,7.11
					c0.24,2.41,0.26,4.88-0.15,7.34c0,0-3.34,4.27-6.86,8.39c-3.51,4.14-7.12,8.19-7.12,8.19c-1.52,1.25-2.91,2.62-4.15,4.06
					c2.7-3.68,4.97-7.82,6.73-12.25c1.93-4.86,3.3-10.1,3.05-15.42c-0.11-3.19-0.9-6.33-2.01-9.26c-1.12-2.93-2.61-5.68-4.35-8.21
					c-3.47-5.07-7.69-9.35-11.92-13.54c2.77,4.21,3.75,9.18,3.65,13.9c0,2.37-0.27,4.7-0.59,7.01c-0.29,2.32-0.62,4.62-0.87,6.92
					c-0.28,2.78-0.31,5.57-0.27,8.35c0.06,2.26,0.27,4.51,0.56,6.77c0.26,2.25,0.58,4.52,0.89,6.84c0.63,4.64,0.99,9.46,0.47,14.32
					c0.98-0.96,1.9-1.99,2.8-3.06c-0.21,0.3-0.41,0.6-0.62,0.9c0,0-2.44,2.63-4.87,5.26c-2.45,2.62-4.91,5.24-4.91,5.24
					c0.42-1.01,0.81-2.04,1.12-3.1c1.51-4.85,2.17-10.13,1.1-15.22c-1.26-6.01-4.51-10.81-7.95-14.83
					c-3.46-4.04-7.29-7.53-10.61-11.93c0.89,2.12,1.46,4.34,1.83,6.62c0.33,2.29,0.46,4.63,0.5,6.99c0.08,4.68-0.34,9.44-0.14,13.84
					c0.05,1.32,0.15,2.62,0.3,3.86c0.13,1.2,0.31,2.37,0.52,3.53c0.7,3.75,1.87,7.18,2.81,10.85c0.78,3.13,1.23,6.56,0.48,10.07
					c0,0-4.16,4.48-8.33,8.97c-4.14,4.51-8.19,9.11-8.19,9.11c1.24-3.22,2.05-6.78,2.5-10.31c0.7-5.27,0.8-10.66-0.29-15.7
					c-1.3-5.96-3.99-10.87-6.67-15.49c-2.65-4.62-5.52-9.12-6.81-14.92c-0.15,5.01-1.14,10.08-1.99,15.39
					c-0.88,5.29-1.64,10.73-1.37,16.01c0.18,3.17,0.74,6.14,1.48,8.88c1.23,4.49,3.1,8.28,4.83,12.25
					c1.38,3.19,2.56,6.57,2.89,10.18c0,0-2.64,3.1-6.04,7.37h2.43c3.71-4.6,6.63-7.98,6.63-7.98c5.95-1.23,11.6-0.62,16.91,0.69
					c4.43,1.1,8.71,2.75,13.25,3.64c2.75,0.55,5.7,0.82,8.71,0.8c3-0.02,6.06-0.31,9.14-0.93c3.04-0.6,6.04-1.51,8.94-2.73
					c2.86-1.19,5.62-2.71,8.12-4.45c-5.02,1.91-10.55,0.74-15.16-1.26c-4.68-2-8.92-4.79-13.82-6.66c-2.93-1.12-6.19-1.88-9.6-2.1
					c-5.48-0.39-11.25,0.78-16.45,3.23c-0.94,0.44-1.86,0.92-2.74,1.45c0,0,4-4.46,8.09-8.85c4.1-4.38,8.19-8.76,8.19-8.76
					l0.35-0.35c6.12-0.14,11.23,1.81,15.81,4.37c3.5,1.96,6.71,4.35,10.43,5.99c4.58,2.03,10.25,2.94,16.12,2.41
					c5.83-0.52,11.83-2.66,16.52-6.11c-2.28,0.87-4.73,0.93-6.98,0.44c-2.27-0.48-4.35-1.52-6.21-2.76
					c-3.73-2.5-6.76-5.79-10.6-8.31c-2.28-1.51-4.96-2.74-7.9-3.52c-4.73-1.26-10.07-1.18-15.14,0.16c-3.19,0.81-6.23,2.2-8.87,3.94
					c0,0,3.59-3.82,7.17-7.63c3.56-3.84,7.11-7.69,7.11-7.69c5.82-1.83,11.54-1.66,17.03-0.95c4.76,0.62,9.46,1.87,14.63,1.91
					c6.37,0.11,13.06-1.63,19.31-4.42c6.25-2.82,12.22-6.62,18.07-10.87c-1.4,0.61-2.82,1.06-4.24,1.38
					c-1.43,0.3-2.87,0.47-4.3,0.54c-2.86,0.14-5.68-0.11-8.38-0.55c-5.39-0.87-10.61-2.52-16.03-3.18
					c-3.21-0.4-6.66-0.48-10.18-0.13c-5.34,0.58-10.82,2.23-15.83,4.95c0,0,0.6-0.69,1.5-1.72c0.88-1.05,2.05-2.46,3.23-3.86
					c1.19-1.39,2.33-2.82,3.18-3.9c0.85-1.07,1.42-1.79,1.42-1.79c6.46-3.69,13.11-4.59,19.72-4.96c4.9-0.2,9.87-0.09,15.44-1.51
					c3.32-0.89,6.74-2.47,10.1-4.68c1.64-1.16,3.25-2.49,4.76-3.95c0.75-0.73,1.49-1.48,2.18-2.27c0.67-0.81,1.32-1.64,1.92-2.49
					c5.01-6.71,7.41-14.95,8.13-22.32C464.13,384.51,462.42,387.45,460.29,389.83z"/>
			</g>
			<g>
				<path class="st3" d="M429.61,259.76c-5.38,0-6.04,8.39-0.6,8.39C434.38,268.15,435.04,259.76,429.61,259.76z"/>
				<path class="st3" d="M435.88,247.65c-4.71,0-5.28,7.34-0.53,7.34C440.06,254.99,440.64,247.65,435.88,247.65z"/>
				<path class="st3" d="M418.71,254.49c-4.04,0-4.53,6.29-0.45,6.29C422.29,260.79,422.78,254.49,418.71,254.49z"/>
				<path class="st3" d="M144.45,208.26h-0.56c-5.38,0-6.04,8.39-0.6,8.39h0.56C149.22,216.66,149.88,208.26,144.45,208.26z"/>
				<path class="st3" d="M141.11,193.98c-4.04,0-4.53,6.29-0.45,6.29C144.69,200.27,145.18,193.98,141.11,193.98z"/>
				<path class="st3" d="M155.58,197.96c-4.71,0-5.28,7.34-0.53,7.34C159.76,205.31,160.33,197.96,155.58,197.96z"/>
				<path class="st3" d="M68.15,269.08c-6.05,0-6.79,9.44-0.68,9.44C73.52,278.53,74.26,269.08,68.15,269.08z"/>
				<path class="st3" d="M55.44,265.62c-4.71,0-5.28,7.34-0.53,7.34C59.62,272.97,60.2,265.62,55.44,265.62z"/>
				<path class="st3" d="M67.13,254.42c-4.04,0-4.53,6.29-0.45,6.29C70.72,260.71,71.21,254.42,67.13,254.42z"/>
				<path class="st3" d="M463.04,358.77c-4.48,0-5.02,6.98-0.5,6.98C467.01,365.76,467.56,358.77,463.04,358.77z"/>
				<path class="st3" d="M40.71,388.58c-4.48,0-5.02,6.98-0.5,6.98C44.68,395.57,45.23,388.58,40.71,388.58z"/>
				<path class="st3" d="M34.42,376.54c-3.2,0-3.59,4.99-0.36,4.99C37.26,381.53,37.65,376.54,34.42,376.54z"/>
				<path class="st3" d="M455.51,372.19c-3.2,0-3.59,4.99-0.36,4.99C458.35,377.18,458.74,372.19,455.51,372.19z"/>
				<path class="st3" d="M456.1,346.61c-2.56,0-2.87,3.99-0.29,3.99C458.37,350.6,458.68,346.61,456.1,346.61z"/>
				<path class="st3" d="M35.35,366.7v0.38c0,2.56,3.99,2.87,3.99,0.29v-0.38C39.35,364.43,35.35,364.12,35.35,366.7z"/>
			</g>
		</g>
		<g>
			<g>
				<path class="st4" d="M233.61,252.52c0.12,2.47,0.33,4.96,0.67,7.46c-11.26,7.89-26.04,6.04-38.81,0.96
					c0.8-6.16,1.59-13.08,1.73-19.74c0.07-2.99,0.01-5.93-0.25-8.72c11.1,1.91,27.5,2.83,37.33-2.67
					C233.8,237.18,233.23,244.77,233.61,252.52z"/>
				<path class="st5" d="M233.61,252.52c-6.11,0.46-12.29-0.09-18.24-1.54c-6.76-1.64-13.87-3.97-18.16-9.77
					c0.07-2.99,0.01-5.93-0.25-8.72c11.1,1.91,27.5,2.83,37.33-2.67C233.8,237.18,233.23,244.77,233.61,252.52z"/>
				<path class="st6" d="M233.61,252.52c0,0-4.88,8.95-18,8.95c-13.11,0-18.96-10.96-18.96-10.96c-2-3.75-26.85,5.21-30.26,6.58
					c-13.9,5.57-27.05,13.09-39.04,22.06c-24.04,18-45.02,43.17-51.4,73.15c-7.79,36.56,16.6,55.22,34.67,63.82
					c8.6,0.48,16.21-5.32,21.03-12.06c-0.81,6.5-2.94,13-2.64,19.49c5.89,8.99,49.09,72,105.19,76.41
					c60.42,4.75,73.44-211.21,73.44-211.21S286.86,260.95,233.61,252.52z"/>
				<g>
					<path class="st7" d="M169.84,317.21h98.26c-0.39-4.51-0.8-9.02-1.14-13.53h-97.38C169.71,308.2,169.83,312.71,169.84,317.21z"
						/>
					<path class="st7" d="M169.45,330.07h99.55c-0.11-2.26-0.24-4.51-0.4-6.76h-98.82C169.71,325.56,169.6,327.82,169.45,330.07z"/>
					<path class="st7" d="M169.46,299.41h97.16c-0.34-2.25-0.67-4.51-0.99-6.76H169.3C169.34,294.9,169.39,297.15,169.46,299.41z"/>
				</g>
				<path class="st8" d="M361.24,188.51c8.04,2.92,14.02,10.27,16.43,18.47c2.42,8.2,1.55,17.12-1.19,25.22
					c-2.74,8.1-7.27,15.47-12.21,22.45c0.3,8.23,0.51,15.06,0.81,23.28c0.24,6.58,0.41,13.48-2.48,19.4
					c-3.83,7.84-12.53,12.44-21.2,13.4c-8.67,0.96-17.38-1.2-25.69-3.88c-10.62-3.43-21.27-7.95-29.05-15.95
					c-7.78-8-12.12-20.18-8.23-30.64c3.2-8.59,11.2-14.65,14.68-23.13c3.23-7.89,2.14-16.81,3.42-25.25
					c1.28-8.44,5.07-16.55,11.04-22.66c6.72-6.89,16.15-11.07,25.77-11.42C342.96,177.46,352.19,185.22,361.24,188.51z"/>
				<path class="st4" d="M336.78,271.3c-1.12,2.72-2.08,5.51-2.89,8.34c-1.15,3.98-1.98,8.05-2.49,12.16
					c-0.02,0.15-0.04,0.29-0.05,0.45c-0.3,2.47-0.49,4.97-0.56,7.46c-13.18,3.88-28.02,1.63-38.51-7.26
					c2.62-5.36,5.46-11.4,7.67-17.41c0.11-0.28,0.21-0.58,0.32-0.86c0.35-0.99,0.7-1.99,1.01-2.97c0.57-1.77,1.06-3.53,1.47-5.25
					C312.66,271.29,325.71,273.38,336.78,271.3z"/>
				<path class="st5" d="M336.78,271.3c-1.12,2.72-2.08,5.51-2.89,8.34c-1.15,3.98-1.98,8.05-2.49,12.16
					c-0.02,0.15-0.04,0.29-0.05,0.45c-2.38-0.43-4.74-0.93-5.16-1.04c-3.52-0.93-6.93-2.26-10.14-3.95
					c-5.72-2.98-10.93-7.09-15.03-12.08c-0.27-0.33-0.52-0.66-0.74-1c0.35-0.99,0.7-1.99,1.01-2.97c0.57-1.77,1.06-3.53,1.47-5.25
					C312.66,271.29,325.71,273.38,336.78,271.3z"/>
				<path class="st9" d="M331.46,291.18c0,0,39.3,9.04,61.13,43.62s28.73,66.94,28.44,75.76c-0.21,6.45-1.36,23.55-22.15,40.82
					c-14.37,11.94-32.06,22.3-50.65,24.17c-31.15-0.09-40.8,0.08-73.28,0l-6.46-152.99l-2.6-25.3c0,0,6.03-6.32,29.1-10.49
					c0,0,3.66,10.21,14.82,12.62C320.97,301.79,327.21,296.5,331.46,291.18z"/>
				<path class="st8" d="M184.69,287.93c1.57,1.7,2.62,3.82,4.13,5.57c3.02,3.49,7.58,5.15,11.75,7.13c4.17,1.98,8.46,4.8,9.78,9.22
					c1.28,4.28-0.55,8.9,0,13.33c0.76,6.16,5.86,10.76,8.67,16.3c3.32,6.54,3.28,14.69-0.11,21.2
					c-3.39,6.51-10.05,11.21-17.32,12.23c-5.44,0.76-10.96-0.42-16.45-0.24c-9.16,0.31-17.69,4.38-26.41,7.18
					c-7.71,2.48-15.57,4.42-23.52,1.63c-4.39-1.54-8.39-5.04-9.18-9.62c-0.69-4,1.12-8.06,0.73-12.1
					c-0.68-6.97-7.64-12.05-8.5-19.01c-0.6-4.85,1.9-9.51,4.52-13.64s5.52-8.39,5.86-13.27c0.32-4.51-0.93-7.36,1.54-11.44
					c2.01-3.32,4.95-6.08,8.41-7.84c4.93-2.5,10.94-2.96,16.16-1.12c-0.43-0.15,5.58-5.37,6.12-5.71c3.65-2.3,8.01-3.94,12.35-4.15
					C177.41,283.38,181.8,284.81,184.69,287.93z"/>
				<path class="st4" d="M193.97,393.53c-9.05,7.75-22.08,5.95-33.67,0.97c0.06-3.17,0.1-6.55,0.05-9.99
					c-0.02-1.35-0.05-2.72-0.11-4.08c-0.03-1.1-0.09-2.19-0.16-3.29c-0.06-1.17-0.15-2.31-0.25-3.46c-0.21-2.44-0.52-4.84-0.93-7.12
					c5.85,1.12,13.31,1.88,20.08,1.17c4.6-0.48,8.88-1.63,12.13-3.81c0.03,0.87,0.07,1.74,0.1,2.62c0.2,5.03,0.42,10.16,0.96,15.37
					c0.13,1.32,0.28,2.64,0.47,3.97C192.98,388.42,193.42,390.97,193.97,393.53z"/>
				<path class="st10" d="M192.26,382.86c0,0,26.08,5.02,31.17,21.97c5.1,16.95,10.75,95.13,10.75,95.13H122.46
					c0,0-7.3-72.23,5.85-92.83s32.05-22.61,32.05-22.61s1.12,8.59,17.02,8.59S192.26,382.86,192.26,382.86z"/>
				<g>
					<defs>
						<path id="SVGID_1_" d="M192.26,382.86c0,0,26.08,5.02,31.17,21.97c5.1,16.95,10.75,95.13,10.75,95.13H122.46
							c0,0-7.3-72.23,5.85-92.83s32.05-22.61,32.05-22.61s1.12,8.59,17.02,8.59S192.26,382.86,192.26,382.86z"/>
					</defs>
					<clipPath id="SVGID_00000066475843883073550770000006880536645406294674_">
						<use xlink:href="#SVGID_1_"  style="overflow:visible;"/>
					</clipPath>
					<g style="clip-path:url(#SVGID_00000066475843883073550770000006880536645406294674_);">
						<path class="st7" d="M216.74,504.68c2.87-0.59,5.74-1.26,8.6-2.01c-2.19-38.3-4.92-76.54-8.22-114.7
							c-0.57-6.61-9.21-5.25-8.64,1.36C211.8,427.72,214.55,466.17,216.74,504.68z"/>
						<path class="st7" d="M196.14,507.84c2.89-0.31,5.77-0.66,8.65-1.07c-1.85-42.16-4.3-84.27-7.36-126.3
							c-0.48-6.63-9.12-5.26-8.64,1.36C191.84,423.76,194.28,465.77,196.14,507.84z"/>
						<path class="st7" d="M177.06,509.27c2.89-0.14,5.78-0.32,8.67-0.52c-1.64-46.15-4.11-92.23-7.44-138.21
							c-0.48-6.63-9.12-5.26-8.64,1.36C172.95,417.6,175.42,463.4,177.06,509.27z"/>
						<path class="st7" d="M157.74,509.97c2.89-0.08,5.78-0.17,8.66-0.26c-1.13-47.54-3.2-95.01-6.23-142.38
							c-0.42-6.64-9.06-5.26-8.64,1.36C154.54,415.69,156.61,462.8,157.74,509.97z"/>
						<path class="st7" d="M131.66,510.9c2.88-0.15,5.76-0.28,8.64-0.39c-0.05-46.58-0.89-93.13-2.54-139.63
							c-0.24-6.65-8.87-5.26-8.64,1.36C130.75,418.41,131.59,464.64,131.66,510.9z"/>
						<path class="st7" d="M229.81,397.56c-35.3,0.56-70.59,1.77-105.85,3.66c-5.59,0.3-5.06,8.97,0.53,8.67
							c35.31-1.89,70.66-3.1,106.01-3.66C230.24,403.34,230.02,400.45,229.81,397.56z"/>
						<path class="st7" d="M231.7,418.35c-37.69,0.03-75.37,0.73-113.03,2.12c-0.11,2.91-0.23,5.81-0.34,8.7
							c38.11-1.41,76.24-2.12,114.37-2.14C232.34,424.13,232.01,421.25,231.7,418.35z"/>
						<path class="st7" d="M233.95,437.56c-38.64-0.41-77.29,0.03-115.92,1.3c-0.07,2.9-0.12,5.79-0.15,8.69
							c39.01-1.29,78.05-1.73,117.08-1.31C234.61,443.34,234.28,440.44,233.95,437.56z"/>
						<path class="st7" d="M236.43,457.08c-39.53-1.03-79.07-1.11-118.6-0.28c0,2.89,0.03,5.79,0.07,8.68
							c39.88-0.85,79.77-0.77,119.65,0.28c0.17,0,0.31-0.02,0.46-0.03C237.41,462.86,236.89,459.98,236.43,457.08z"/>
						<path class="st7" d="M238.62,476.4c-39.53-1.03-79.07-1.11-118.6-0.28c0,2.89,0.03,5.79,0.07,8.68
							c39.88-0.85,79.77-0.77,119.65,0.28c0.17,0,0.31-0.02,0.46-0.03C239.6,482.18,239.08,479.3,238.62,476.4z"/>
						<path class="st7" d="M240.81,495.72c-39.53-1.03-79.07-1.11-118.6-0.28c0,2.89,0.03,5.79,0.07,8.68
							c39.88-0.85,79.77-0.77,119.65,0.28c0.17,0,0.31-0.02,0.46-0.03C241.78,501.5,241.26,498.62,240.81,495.72z"/>
					</g>
				</g>
				<path class="st5" d="M192.17,381.92c-2.9,1.36-5.96,2.47-9.06,3.26c-4.38,1.1-9.04,1.43-13.44,0.41
					c-3.53-0.82-6.91-2.57-9.43-5.14c-0.03-1.1-0.09-2.19-0.16-3.29c2.82-2.02,6.22-3.58,9.48-4.51c7.01-1.98,14.02-3.96,21.02-5.93
					c0.2-0.06,0.41-0.11,0.62-0.16C191.41,371.58,191.62,376.71,192.17,381.92z"/>
				<path class="st8" d="M287.62,314.99c7.88-4.8,18.19-4.88,26.58-1.05c8.4,3.83,14.89,11.24,18.55,19.72
					c3.66,8.48,4.62,17.95,3.81,27.14c-0.72,8.09-2.86,16.23-7.55,22.87c-7.28,10.31-20.16,15.83-32.77,15.99
					c-12.62,0.16-24.93-4.53-35.56-11.33c-6.93-4.44-7.67-9.58-8.87-17.73s0.28-16.43,2.01-24.48c1.2-5.59,2.55-11.2,5.02-16.35
					c2.47-5.15,6.17-9.87,11.16-12.66C275,314.34,282.56,312.33,287.62,314.99z"/>
				<path class="st4" d="M308.3,416.93c-8.51,6.51-20.07,3.13-30.17-3.2c0.28-4,0.57-8.33,0.69-12.71c0.03-0.99,0.04-1.98,0.05-2.97
					c0.03-2.35,0-4.7-0.11-6.99c-0.06-1.4-0.15-2.78-0.28-4.13c-0.02-0.29-0.05-0.58-0.08-0.86c0.39,0.13,0.78,0.27,1.19,0.41
					c8.63,2.87,20.64,5.1,27.78,0.97c-0.01,0.77-0.03,1.54-0.04,2.31c-0.09,4.54-0.17,9.19-0.04,13.92
					c0.05,2.26,0.16,4.55,0.34,6.87C307.78,412.66,308.01,414.78,308.3,416.93z"/>
				<path class="st4" d="M339.89,438.77c-0.92-0.11-1.87-0.22-2.76,0.05s-1.7,1.02-1.74,1.94c-0.03,0.79,0.5,1.52,1.18,1.93
					c0.67,0.42,1.46,0.59,2.24,0.75c2.09,0.44,4.17,0.87,6.26,1.31c2.53,0.53,5.13,1.06,7.69,0.7c1.45-0.2,4.41-1.02,5.08-2.54
					c0.91-2.09-2.18-2.26-3.51-2.41C349.51,439.92,344.7,439.35,339.89,438.77z"/>
				<path class="st1" d="M307.26,403.26c0,0,20.2,1.53,30.3,21.44c10.1,19.91,10.58,75.35,10.58,75.35l-109.63-0.09
					c0,0,0.99-61.75,11.39-77.13c10.41-15.38,28.84-19.57,28.84-19.57s1.82,9.82,14.31,9.82S307.26,403.26,307.26,403.26z"/>
				<path class="st5" d="M307.28,403.68c-4.58,1.18-9.33,1.67-14.01,1.05c-4.71-0.61-9.34-2.43-13.01-5.48
					c-0.5-0.42-0.96-0.81-1.39-1.22c0.03-2.35,0-4.7-0.11-6.99c6,1.14,11.86,0.77,18.16-0.01c3.47-0.44,6.94-0.86,10.4-1.29
					C307.23,394.3,307.15,398.95,307.28,403.68z"/>
				<g>
					<path class="st8" d="M302.1,199.67c0,0-0.29,0.24-0.84,0.68c-0.52,0.47-1.28,1.18-2.07,2.22c-0.8,1.03-1.64,2.4-2.36,4.07
						c-0.74,1.66-1.33,3.64-1.83,5.82c-0.49,2.19-0.8,4.6-1.1,7.17c-0.31,2.56-0.62,5.29-1.27,8.07c-0.64,2.77-1.66,5.63-3.31,8.15
						c-1.64,2.57-3.73,4.79-5.87,6.92c-2.15,2.12-4.35,4.15-6.24,6.39c-0.93,1.12-1.85,2.26-2.54,3.49l-0.56,0.93
						c-0.18,0.31-0.31,0.63-0.46,0.94c-0.3,0.63-0.61,1.24-0.82,1.91c-0.97,2.59-1.47,5.26-1.6,7.81c-0.1,2.55,0.18,4.97,0.66,7.15
						c0.45,2.19,1.27,4.09,2,5.75c0.45,0.79,0.81,1.57,1.24,2.23c0.45,0.65,0.81,1.28,1.23,1.79c0.41,0.51,0.78,0.97,1.1,1.36
						c0.34,0.38,0.65,0.68,0.9,0.94c0.49,0.5,0.76,0.77,0.76,0.77s-0.28-0.26-0.79-0.73c-0.25-0.24-0.59-0.53-0.95-0.89
						c-0.34-0.38-0.73-0.83-1.17-1.32c-0.44-0.5-0.83-1.12-1.31-1.76c-0.46-0.65-0.86-1.42-1.34-2.21
						c-0.81-1.65-1.71-3.56-2.21-5.79c-0.54-2.21-0.89-4.68-0.84-7.3c0.07-2.62,0.52-5.39,1.52-8.08c0.21-0.68,0.53-1.34,0.85-2.01
						c0.29-0.69,0.66-1.31,1.03-1.93c0.72-1.31,1.65-2.48,2.6-3.64c1.92-2.3,4.13-4.38,6.25-6.5c2.13-2.09,4.21-4.27,5.78-6.7
						c1.61-2.44,2.61-5.15,3.26-7.86c0.64-2.72,1.03-5.41,1.4-7.97c0.36-2.56,0.73-4.99,1.28-7.2c0.54-2.21,1.22-4.19,2.04-5.85
						c0.8-1.67,1.7-3.02,2.55-4.03c0.83-1.03,1.65-1.7,2.19-2.15C301.8,199.89,302.1,199.67,302.1,199.67z"/>
				</g>
				<path class="st8" d="M176.24,193.61c-2.85-8.2-5.09-16.72-5.14-25.4s2.22-17.58,7.62-24.38c4.51-5.68,10.96-9.61,17.82-11.96
					c6.86-2.35,14.15-3.2,21.4-3.51c8.03-0.35,16.36,0.02,23.62,3.48c11.43,5.44,18.33,17.96,19.71,30.54
					c1.38,12.58-2.02,25.23-6.72,36.98c0.1-0.48,0.2-0.96,0.3-1.44c-4.8,7.08-12.83,11.58-21.12,13.71
					C213.95,216.7,182.94,212.87,176.24,193.61z"/>
				<path class="st4" d="M361.44,247.33c-1.69,4.25-4.38,8.12-6.71,12.06c-2.41,4.06-5.25,7.89-8.54,11.28
					c-1.91,1.97-4,3.81-6.24,5.43c-1.92,1.37-3.95,2.58-6.06,3.55c-3.72,1.72-7.75,2.74-11.98,2.71c-7.29-0.05-14.48-3.48-19.12-9.1
					c-0.55-0.66-1.05-1.34-1.51-2.05c-1.13-1.65-2.04-3.44-2.79-5.28c-1.86-4.56-2.7-9.6-2.95-14.54
					c-0.86-17.24,4.86-35.27,16.8-47.82c5.87-6.17,14.67-9.52,23.16-8.73c11.61,1.09,22.01,9.34,26.63,20.04
					C366.73,225.46,365.59,236.91,361.44,247.33z"/>
				<path class="st4" d="M326.88,357.38c-0.29,4.37-1.59,8.68-2.56,12.95c-1,4.4-2.45,8.72-4.44,12.77
					c-3.87,7.89-10.04,15.06-18.65,17.77c-6.64,2.1-14.19,1.1-20.06-2.65c-6.3-4.02-10.38-10.78-13.04-17.77
					c-5.86-15.42-5.96-33.51,1.21-48.43c3.53-7.34,10.55-12.98,18.51-14.76c10.88-2.43,22.76,2.02,30.12,10.39
					C325.26,335.94,327.59,346.69,326.88,357.38z"/>
				<path class="st4" d="M200.48,327.61c0.82,4.49,0.6,9.18,0.71,13.75c0.11,4.71-0.27,9.44-1.25,14.05
					c-1.91,8.97-6.33,17.79-14.35,22.73c-6.19,3.81-14.08,4.72-20.97,2.43c-7.4-2.46-13.24-8.27-17.71-14.66
					c-9.86-14.11-14.56-32.39-11.1-49.31c1.7-8.32,7.37-15.82,14.97-19.65c10.38-5.23,23.54-3.75,33.11,2.85
					C193.38,306.34,198.48,316.61,200.48,327.61z"/>
				<path class="st4" d="M252.76,192.82c-0.08,2.21-0.17,4.43-0.32,6.64c-1.17,18.01-8.64,38.51-27.67,44.32
					c-7.93,2.42-16.97,1.59-24.37-2.16c-6.51-3.3-11.72-11.14-14.17-17.86c-2.73-7.5-3.48-15.55-3.95-23.52
					c-0.39-6.68-0.6-13.37-0.63-20.06c-0.01-3.12-0.42-6.71,0.38-9.69c0.82-3.05,2.3-6.15,3.7-8.97
					c4.37-8.84,12.96-15.59,22.61-17.64c13.21-2.81,27.54,2.75,36.35,12.98c0,0.95,2.94,3.83,3.54,4.78
					c1.11,1.75,2.09,3.59,2.94,5.49c2.17,4.88,2.18,10.92,1.93,16.15C252.95,186.44,252.87,189.63,252.76,192.82z"/>
				<path class="st8" d="M343.15,167.9c4.49-5.08,11.92-7.65,18.9-6.8c4.87,0.6,9.66,2.92,12.23,6.83c1.99,3.03,2.51,6.74,2.29,10.3
					c-0.13,2.15-0.53,4.31-1.44,6.29c-1.67,3.62-5.04,6.44-8.91,8.01c-3.86,1.58-8.19,1.98-12.39,1.64
					C339.38,192.98,334.1,178.14,343.15,167.9z"/>
				<g>
					<path class="st8" d="M367.23,191.63c0,0,0.34,0.31,0.99,0.9c0.33,0.29,0.72,0.66,1.16,1.12c0.44,0.45,0.97,0.96,1.49,1.59
						c1.11,1.2,2.31,2.79,3.58,4.68c1.26,1.9,2.5,4.17,3.58,6.77c1.08,2.6,1.99,5.52,2.57,8.7c0.58,3.17,0.78,6.63,0.48,10.13
						c-0.12,1.78-0.46,3.54-0.86,5.32c-0.47,1.76-1,3.53-1.74,5.23c-1.41,3.44-3.39,6.66-5.49,9.76c-1.07,1.53-2.17,3.05-3.29,4.53
						c-0.56,0.74-1.11,1.48-1.67,2.22c-0.23,0.3-0.49,0.76-0.73,1.13l-0.37,0.58c-0.11,0.2-0.17,0.4-0.26,0.6
						c-0.16,0.4-0.34,0.79-0.48,1.2l-0.3,1.28c-0.13,0.42-0.13,0.87-0.18,1.3c-0.03,0.44-0.12,0.87-0.08,1.31
						c0.01,0.88,0.02,1.75,0.15,2.62c0.07,0.87,0.26,1.72,0.41,2.57c0.7,3.38,1.78,6.59,2.68,9.66c0.91,3.07,1.72,6.03,1.9,8.88
						c0.16,2.8-0.06,5.41-0.55,7.64c-0.46,2.24-1.21,4.11-1.96,5.56c-0.76,1.46-1.54,2.49-2.09,3.16c-0.57,0.66-0.9,1-0.9,1
						s0.31-0.35,0.85-1.03c0.53-0.69,1.25-1.75,1.96-3.21c0.7-1.46,1.38-3.33,1.77-5.55c0.41-2.22,0.55-4.77,0.35-7.54
						c-0.22-2.74-1.07-5.66-2.03-8.7c-0.95-3.05-2.11-6.24-2.83-9.7c-0.69-3.43-1.11-7.28,0.49-10.88c0.1-0.22,0.17-0.46,0.29-0.66
						l0.36-0.59c0.26-0.4,0.45-0.76,0.77-1.2c0.55-0.74,1.1-1.48,1.65-2.23c1.11-1.49,2.19-3,3.24-4.52c2.1-3.05,4.06-6.2,5.45-9.55
						c0.74-1.66,1.26-3.38,1.73-5.09c0.4-1.72,0.74-3.46,0.86-5.17c0.3-3.46,0.18-6.8-0.34-9.94c-0.51-3.13-1.35-6.03-2.37-8.62
						c-1.03-2.58-2.18-4.86-3.38-6.78c-1.21-1.91-2.35-3.53-3.42-4.76c-0.5-0.64-1.01-1.16-1.43-1.63c-0.42-0.48-0.8-0.86-1.11-1.16
						C367.56,191.96,367.23,191.63,367.23,191.63z"/>
				</g>
				<path class="st4" d="M366.41,252.36c2.54,2.46,2.36,6.9,0.19,9.7c-2.17,2.79-5.84,4.09-9.38,4.2
					c-3.54,0.11-7.02-0.81-10.44-1.72c0.44,0.11,4.04-5.5,4.5-6.12c1.41-1.92,2.84-4.82,4.67-6.33
					C358.62,249.89,363.92,249.95,366.41,252.36z"/>
				<path class="st4" d="M293.03,223.26c-3.54,0.03-6.47,3.37-6.82,6.89c-0.35,3.52,1.41,6.99,3.9,9.52
					c2.48,2.52,5.64,4.26,8.75,5.96c-0.4-0.22,0.87-6.77,0.96-7.53c0.3-2.36,1.27-5.45,0.98-7.8
					C300.38,226.84,296.5,223.23,293.03,223.26z"/>
				<path class="st4" d="M207.16,332.8c3.02,0.69,4.9,4.1,4.54,7.19c-0.36,3.08-2.52,5.72-5.12,7.41c-2.6,1.69-5.63,2.58-8.61,3.45
					c0.38-0.12,0.53-5.96,0.59-6.63c0.19-2.08-0.06-4.9,0.63-6.87C200.2,334.48,204.2,332.12,207.16,332.8z"/>
				<path class="st4" d="M130.95,347.85c-2.64,1.63-3.32,5.46-1.98,8.27c1.34,2.8,4.23,4.6,7.24,5.36c3.01,0.76,6.16,0.63,9.26,0.49
					c-0.4,0.01-2.42-5.47-2.7-6.08c-0.85-1.91-1.52-4.66-2.81-6.3C138.09,347.2,133.54,346.26,130.95,347.85z"/>
				<path class="st4" d="M330.98,362.25c2.86,1.21,4.11,4.9,3.21,7.87s-3.49,5.19-6.34,6.4c-2.86,1.21-5.99,1.56-9.08,1.89
					c0.4-0.05,1.57-5.77,1.74-6.42c0.55-2.02,0.8-4.84,1.82-6.65C323.83,362.68,328.18,361.06,330.98,362.25z"/>
				<path class="st4" d="M259.41,362.53c-2.88,1.14-4.23,4.8-3.4,7.79c0.82,2.99,3.36,5.27,6.19,6.55c2.83,1.28,5.96,1.7,9.03,2.11
					c-0.39-0.06-1.43-5.81-1.59-6.46c-0.5-2.03-0.68-4.85-1.66-6.69C266.55,363.13,262.24,361.41,259.41,362.53z"/>
				<path class="st4" d="M261.84,189.89c3.26,1.39,4.67,5.6,3.64,8.99s-3.99,5.91-7.26,7.28c-3.26,1.37-6.84,1.76-10.36,2.13
					c0.45-0.05,1.81-6.58,2.01-7.32c0.63-2.3,0.92-5.52,2.09-7.58C253.68,190.37,258.65,188.53,261.84,189.89z"/>
				<path class="st4" d="M172.57,189.56c-3.29,1.3-4.84,5.46-3.9,8.88s3.82,6.03,7.04,7.49s6.79,1.96,10.3,2.43
					c-0.45-0.07-1.61-6.63-1.79-7.38c-0.56-2.32-0.76-5.54-1.87-7.64C180.71,190.27,175.8,188.29,172.57,189.56z"/>
				<path class="st8" d="M370.38,224.3c0.32,2.51,0.33,5.06,0.02,7.57c-0.15,1.2-0.47,2.38-0.62,3.57
					c-0.09,0.73,0.02,1.45-0.15,2.17c-1.02,4.09-4.27,8.25-7.14,11.22c-0.59,0.61-1.34,1.25-2.18,1.13
					c-0.77-0.11-1.3-0.81-1.69-1.49c-2.97-5.14-1.69-10.75-1.94-16.36c-0.31-6.87-3.47-13.56-8.58-18.17
					c-5.11-4.61-12.09-7.06-18.95-6.67c-8.26,6.29-18.84,10.42-29.22,10.69c1.8-4.46,3.89-10.2,6.48-14.26
					c2.59-4.05,6.03-7.69,10.37-9.77c4.22-2.02,9.04-2.45,13.72-2.23c9.32,0.44,18.61,3.43,25.99,9.14
					C363.85,206.55,369.18,215.05,370.38,224.3z"/>
				<path class="st8" d="M257.46,177.51c-0.9,1.57-2.01,3.04-3.43,4.14c-1.43,1.11-3.18,1.84-4.99,1.84c-1.64,0-3.25-0.59-4.64-1.45
					c-1.99-1.22-3.49-3.56-4.54-5.64c-1.97,6.02-8.8,9.44-15.13,9.22c-6.34-0.22-12.2-3.35-17.44-6.92
					c-4.89-3.33-9.71-6.52-13.89-10.7c-1.14,5.04-3.4,9.82-6.56,13.9c-1.07,1.38-2.3,2.72-3.92,3.34c-1.26,0.49-2.71,0.49-3.97,0.01
					c-2.92-8.47-2.53-18.05,1.13-26.22c3.66-8.17,10.52-14.86,18.78-18.32c12.16-5.09,26.72-2.9,37.75,4.32
					C247.61,152.26,253.82,164.84,257.46,177.51z"/>
				<path class="st8" d="M260.22,359.04c10.91-5.65,19.24-16.09,22.31-27.99c4.51,8.58,11.73,16.65,20.43,20.93
					c8.69,4.29,18.75,5.74,28.3,4.09c1.54-13.31-6.05-28.87-17.6-35.66c-11.55-6.79-27.09-6.08-37.97,1.73
					C264.8,329.96,257.47,345.92,260.22,359.04z"/>
				<path class="st8" d="M203.06,328.38c0.05,1.22-0.05,2.45-0.35,3.7c-0.15,0.66-0.41,1.39-1.04,1.64c-0.77,0.3-1.57-0.3-2.17-0.86
					c-3.46-3.2-7.97-9.48-13.06-9.7c-3.29-0.14-6.05,2.29-8.6,4.37c-2.55,2.09-5.87,4.07-8.96,2.93c-2.91-1.08-4.19-4.39-5.26-7.31
					c-1.07-2.91-2.72-6.18-5.77-6.75c-2.13-0.4-2.2,1.78-3.15,3.73c-0.95,1.95-1.15,4.16-1.53,6.29c-0.72,4.09-2.49,7.43-5.39,10.3
					c-3.03,2.99-4.77,6.92-8.32,9.51c-1.09,0.8-2.61,1.17-3.83,0.58c-1-0.48-1.63-1.48-2.13-2.47c-2.46-4.93-1.64-9.73-2.24-14.95
					c-0.82-7.1,0.35-14.51,3.98-20.73c5.43-9.3,15.33-15.85,26.01-17.22c10.68-1.37,21.91,2.47,29.51,10.1
					c4.02,4.03,6.61,9.18,8.65,14.43C200.97,320.03,202.9,324.12,203.06,328.38z"/>
				<path class="st4" d="M378.9,317.98c9.3,1.77,17.95,8.31,21.39,17.14c1.9,4.87,2.31,10.27,1.35,15.4
					c-0.48,2.56-1.3,5.07-2.46,7.41c-0.91,1.85-2.76,4.09-2.96,0.6c-0.07-1.29-0.07-2.58,0.03-3.87c0.18-2.48,0.66-4.95,1.44-7.31
					c-1.88,3.81-3.77,7.7-5.65,11.51c-0.49,0.99-1.37,2.16-2.41,1.79c-0.97-0.34-1.03-1.67-0.89-2.69
					c0.78-5.64,2.28-11.17,4.44-16.43c-1.96,4.21-4.18,8.89-6.14,13.1c-0.29,0.61-0.58,1.24-1.08,1.7c-0.5,0.46-1.26,0.7-1.87,0.42
					c-0.98-0.46-1-1.83-0.85-2.9c0.95-6.66,2.65-13.21,5.06-19.49c-2.32,3.93-4.63,8.07-6.95,12.01c-0.35,0.6-0.72,1.21-1.28,1.62
					c-0.56,0.41-1.37,0.56-1.95,0.17c-0.73-0.49-0.75-1.54-0.66-2.41c0.5-4.75,2.12-9.31,3.04-14S381.19,322.17,378.9,317.98z"/>
				<path class="st4" d="M355.31,441.29c-8.39,5.28-17.4,9.49-26.39,13.68c-1.13,0.53-6.28,2.27-3.59,3.38
					c2,0.83,5.88-0.1,7.91-0.55c2.7-0.59,5.32-1.59,7.72-2.97c-2.86,1.3-5.68,2.69-8.5,4.07c-1.41,0.69-2.84,1.36-4.25,2.05
					c-1.13,0.55-2.39,0.58-3.45,1.14c-0.68,0.36-1.18,1.2-0.89,1.92c0.37,0.92,1.62,1.02,2.61,0.93c5.54-0.49,10.99-1.86,16.11-4.03
					c-4.64,2.02-10.22,4.61-14.86,6.63c-0.6,0.26-1.3,0.67-1.28,1.33c0.03,0.81,1.1,1.08,1.91,1.09c5.43,0.04,10.87-1.11,15.81-3.37
					c-2.97,1.62-6.73,3.6-9.69,5.22c-0.79,0.43-1.7,1.2-1.35,2.02c0.32,0.75,1.37,0.72,2.17,0.57c7.95-1.53,15.75-3.83,23.26-6.85
					c2.51-1.01,5.1-2.18,6.8-4.29c1.9-2.36,2.42-5.61,1.99-8.61c-0.43-3-1.7-5.81-3.07-8.51c-0.85-1.68-1.78-3.39-3.28-4.52
					S356.9,440.29,355.31,441.29z"/>
				<path class="st4" d="M103.75,411.77c6.62-8.86,15.98-15.65,26.47-19.17c10.48-3.53,22.04-3.78,32.68-0.73
					c0.68,0.2,1.39,0.42,1.9,0.92c0.51,0.5,0.75,1.35,0.34,1.93c-0.4,0.58-1.21,0.67-1.92,0.7c-4.26,0.18-8.52,0.36-12.78,0.54
					c2.26,4.7,2.41,10.29,0.95,15.3c-0.2,0.67-0.72,1.48-1.37,1.24c-0.36-0.14-0.52-0.55-0.65-0.91c-1.53-4.59-3.06-9.18-4.6-13.77
					c1.1,4.04,1.98,8.07,2.13,12.25c0.08,2.31-0.14,4.68-0.83,6.9c-0.4,1.29-2.18,4.2-3.47,1.93c-0.62-1.09-0.34-3.07-0.41-4.31
					c-0.13-2.45-0.17-4.87-0.68-7.28c-0.55-2.56-1.18-5.11-1.92-7.63c1.19,6.79,0.65,15.63-2.58,21.82
					c-0.28,0.53-0.78,1.06-1.37,0.97c-0.38-0.05-0.68-0.36-0.84-0.7s-0.2-0.73-0.24-1.11c-0.41-3.94-0.62-7.91-0.98-11.86
					c-0.13-1.48-0.7-3.27-2.31-3.72c-1.63-0.45-2.28,1.2-2.99,2.43c-1.6,2.78-2.77,5.92-5.34,7.98c-3.62,2.9-8.84,2.76-13.32,1.55
					c-1.34-0.36-2.67-0.82-3.78-1.65C104.74,414.56,103.82,413.15,103.75,411.77z"/>
				<g>
					<path class="st8" d="M338.66,179.09c0,0-0.08-0.23-0.22-0.66c-0.14-0.43-0.32-1.07-0.45-1.91c-0.25-1.66-0.33-4.18,0.69-6.96
						c0.51-1.38,1.29-2.8,2.38-4.11c0.28-0.32,0.56-0.63,0.89-0.95c0.31-0.29,0.62-0.58,1-0.85c0.71-0.57,1.5-1.02,2.35-1.43
						c1.68-0.8,3.59-1.26,5.55-1.32c1.97-0.05,3.96,0.32,5.81,1.2c0.84,0.41,1.74,1.01,2.49,1.63c0.76,0.64,1.43,1.38,2.02,2.16
						c0.58,0.79,1.07,1.64,1.47,2.51c0.38,0.88,0.68,1.79,0.86,2.7c0.16,0.92,0.29,1.84,0.22,2.74c0,0.46-0.08,0.88-0.13,1.34
						c-0.1,0.42-0.14,0.82-0.28,1.24c-0.46,1.66-1.18,3.09-1.99,4.31c-1.62,2.45-3.42,4.09-4.63,5.26
						c-1.24,1.14-1.98,1.76-1.98,1.76s0.67-0.69,1.84-1.9c1.15-1.22,2.8-2.99,4.29-5.42c0.74-1.21,1.38-2.63,1.75-4.17
						c0.11-0.37,0.15-0.81,0.23-1.22c0.02-0.38,0.09-0.81,0.07-1.22c0.02-0.84-0.09-1.69-0.25-2.54c-0.18-0.85-0.47-1.69-0.83-2.51
						c-0.39-0.81-0.85-1.59-1.4-2.32c-0.56-0.72-1.19-1.39-1.9-1.98c-0.74-0.59-1.44-1.06-2.33-1.49c-1.63-0.79-3.5-1.18-5.32-1.15
						c-1.83,0.03-3.62,0.44-5.2,1.17c-0.79,0.36-1.54,0.8-2.21,1.28c-0.34,0.22-0.66,0.51-0.99,0.79c-0.29,0.26-0.59,0.56-0.86,0.85
						c-1.07,1.19-1.87,2.52-2.41,3.83c-0.53,1.31-0.83,2.59-0.98,3.74c-0.15,1.15-0.11,2.17-0.05,3c0.08,0.83,0.2,1.48,0.31,1.92
						C338.6,178.85,338.66,179.09,338.66,179.09z"/>
				</g>
				<g>
					<path class="st8" d="M346.83,174.03c0,0,0.09-0.25,0.26-0.71c0.15-0.47,0.46-1.12,0.89-1.94c0.47-0.79,1.07-1.75,1.95-2.7
						c0.84-0.98,1.94-1.96,3.28-2.83c1.33-0.87,2.91-1.65,4.68-2.16c1.77-0.51,3.74-0.77,5.75-0.56c0.5,0.08,1,0.09,1.52,0.23
						c0.49,0.12,0.97,0.2,1.48,0.39c0.5,0.17,1.01,0.33,1.48,0.56c0.49,0.2,0.96,0.43,1.42,0.71c1.85,1.04,3.53,2.45,4.9,4.12
						c1.34,1.69,2.37,3.62,3,5.65c0.63,2.02,0.84,4.17,0.61,6.15c-0.45,4.09-2.6,7.42-4.85,9.64c-1.13,1.13-2.32,2-3.46,2.61
						c-1.12,0.65-2.18,1.04-3.05,1.33c-0.89,0.25-1.6,0.41-2.09,0.46c-0.49,0.07-0.75,0.11-0.75,0.11s0.26-0.06,0.74-0.16
						c0.49-0.08,1.17-0.3,2.03-0.59c0.85-0.34,1.87-0.77,2.92-1.47c1.07-0.66,2.18-1.57,3.25-2.69c1.06-1.12,2.07-2.48,2.85-4.06
						c0.78-1.57,1.34-3.38,1.54-5.25c0.2-1.92-0.02-3.9-0.63-5.81c-0.61-1.91-1.6-3.72-2.88-5.31c-1.28-1.59-2.84-2.94-4.58-3.94
						c-0.43-0.26-0.87-0.48-1.33-0.68c-0.45-0.23-0.91-0.37-1.36-0.53c-0.44-0.18-0.95-0.27-1.43-0.39
						c-0.44-0.13-0.94-0.15-1.41-0.23c-1.89-0.2-3.77-0.04-5.47,0.39c-1.71,0.44-3.25,1.13-4.57,1.94c-1.32,0.81-2.44,1.7-3.31,2.61
						c-0.9,0.89-1.54,1.79-2.05,2.55c-0.46,0.78-0.82,1.4-1,1.86C346.94,173.8,346.83,174.03,346.83,174.03z"/>
				</g>
				<g>
					<path class="st8" d="M204.46,131.71c0,0-0.29-0.06-0.83-0.18c-0.54-0.14-1.35-0.25-2.37-0.38c-1.03-0.09-2.28-0.17-3.71-0.07
						c-1.43,0.07-3.03,0.32-4.74,0.75c-3.41,0.85-7.2,2.64-10.55,5.45c-0.83,0.7-1.65,1.47-2.42,2.3c-0.38,0.41-0.76,0.82-1.12,1.27
						c-0.37,0.43-0.72,0.88-1.06,1.35c-1.36,1.85-2.54,3.88-3.49,6.02c-1.94,4.26-3,8.89-3.29,13.28c-0.29,4.38,0.05,8.52,0.66,12
						c0.6,3.49,1.37,6.35,1.97,8.33c0.61,1.98,1,3.1,1,3.1s-0.11-0.27-0.32-0.79c-0.21-0.51-0.51-1.27-0.86-2.25
						c-0.68-1.96-1.64-4.78-2.34-8.29c-0.7-3.5-1.24-7.67-0.98-12.17c0.25-4.47,1.28-9.24,3.24-13.63c1-2.19,2.23-4.27,3.66-6.16
						c0.35-0.48,0.72-0.94,1.1-1.38c0.37-0.46,0.77-0.88,1.17-1.31c0.79-0.84,1.63-1.61,2.51-2.34c3.5-2.88,7.48-4.55,10.98-5.33
						c1.75-0.4,3.4-0.57,4.85-0.58c1.46-0.04,2.72,0.11,3.75,0.25c1.03,0.18,1.83,0.35,2.36,0.52
						C204.18,131.63,204.46,131.71,204.46,131.71z"/>
				</g>
				<g>
					<path class="st8" d="M239.33,173.96c0,0,0.16,0.32,0.44,0.87c0.27,0.56,0.68,1.34,1.18,2.27c0.99,1.85,2.46,4.27,4.58,5.99
						c1.04,0.87,2.23,1.54,3.44,1.94c1.19,0.38,2.4,0.47,3.42,0.38c1.02-0.1,1.86-0.37,2.41-0.63c0.55-0.26,0.85-0.46,0.85-0.46
						s-0.07,0.06-0.19,0.17c-0.12,0.12-0.31,0.28-0.57,0.46c-0.52,0.34-1.33,0.81-2.42,1.03c-1.08,0.24-2.4,0.26-3.77-0.1
						c-1.34-0.35-2.68-1.08-3.82-2.01c-0.56-0.47-1.08-0.99-1.56-1.54c-0.48-0.55-0.88-1.12-1.25-1.69
						c-0.73-1.15-1.26-2.3-1.66-3.29c-0.4-1-0.65-1.85-0.84-2.44C239.42,174.3,239.33,173.96,239.33,173.96z"/>
				</g>
				<g>
					<path class="st8" d="M206.44,130.5c0,0,0.37-0.09,1.07-0.25c0.7-0.17,1.73-0.38,3.05-0.61c2.64-0.42,6.48-0.9,11.1-0.67
						c4.6,0.22,10.01,1.06,15.42,3.19c1.35,0.54,2.7,1.12,4.02,1.8c0.67,0.34,1.34,0.68,1.99,1.07c0.66,0.37,1.31,0.76,1.94,1.18
						c2.56,1.64,5,3.57,7.22,5.74c4.39,4.37,7.8,9.73,9.71,15.2c1.95,5.51,2.32,11.02,1.91,15.62c-0.2,2.31-0.6,4.4-1.12,6.2
						c-0.48,1.81-1.09,3.34-1.61,4.57c-0.56,1.22-1.03,2.17-1.4,2.78c-0.35,0.62-0.54,0.96-0.54,0.96s0.17-0.34,0.5-0.98
						c0.34-0.63,0.75-1.6,1.27-2.83c0.47-1.25,1.02-2.78,1.43-4.59c0.45-1.8,0.77-3.88,0.92-6.15c0.33-4.54-0.23-9.94-2.16-15.27
						c-1.92-5.36-5.29-10.55-9.6-14.8c-2.15-2.13-4.52-4.04-7.02-5.67c-1.24-0.83-2.53-1.56-3.82-2.23c-1.3-0.68-2.63-1.27-3.94-1.8
						c-5.29-2.12-10.58-3.13-15.13-3.43c-2.28-0.15-4.38-0.18-6.24-0.1c-1.86,0.06-3.48,0.24-4.8,0.4
						c-1.32,0.19-2.37,0.33-3.07,0.48C206.81,130.43,206.44,130.5,206.44,130.5z"/>
				</g>
				<g>
					<path class="st8" d="M152.62,293.48c0,0-0.09-0.05-0.28-0.15c-0.18-0.1-0.45-0.25-0.81-0.42c-0.72-0.35-1.81-0.8-3.26-1.16
						c-1.44-0.35-3.26-0.6-5.31-0.42c-2.05,0.17-4.35,0.78-6.54,2.03c-2.18,1.25-4.29,3.12-5.79,5.58
						c-1.55,2.42-2.26,5.47-2.82,8.59c-0.29,1.57-0.55,3.19-0.93,4.82c-0.37,1.64-0.93,3.25-1.63,4.81c-1.39,3.13-3.28,6.01-4.89,9
						c-0.81,1.49-1.56,3.01-2.12,4.57c-0.56,1.58-0.86,3.19-0.98,4.84c-0.2,3.29,0.36,6.57,1.4,9.54c1.02,2.99,2.73,5.57,4.14,8.18
						c0.7,1.3,1.3,2.65,1.69,4.01c0.4,1.35,0.54,2.74,0.56,4.03c0.07,2.58,0,4.92,0.38,6.95c0.35,2.04,1.2,3.68,2.16,4.8
						c0.96,1.14,2,1.74,2.75,2c0.38,0.13,0.67,0.21,0.88,0.24c0.2,0.04,0.31,0.05,0.31,0.05s-0.11-0.01-0.31-0.04
						c-0.21-0.02-0.51-0.09-0.89-0.2c-0.76-0.24-1.87-0.79-2.88-1.93c-1.02-1.11-1.95-2.78-2.38-4.86c-0.46-2.07-0.47-4.46-0.58-7
						c-0.03-2.55-0.86-5.19-2.33-7.71c-1.42-2.53-3.25-5.13-4.31-8.24c-1.1-3.06-1.71-6.45-1.52-9.89c0.1-1.71,0.43-3.46,1-5.1
						c0.58-1.65,1.33-3.21,2.15-4.73c1.65-3.03,3.55-5.88,4.92-8.91c1.43-3.01,1.98-6.24,2.56-9.41c0.58-3.16,1.36-6.28,3.06-8.82
						c1.63-2.53,3.85-4.43,6.14-5.68c2.3-1.26,4.68-1.8,6.79-1.9c2.11-0.11,3.94,0.2,5.39,0.6c1.45,0.4,2.52,0.92,3.23,1.3
						c0.36,0.18,0.62,0.35,0.79,0.46C152.53,293.43,152.62,293.48,152.62,293.48z"/>
				</g>
				<g>
					<path class="st8" d="M209.67,311.84c0,0-0.03,0.24-0.08,0.68c-0.05,0.45-0.08,1.1-0.05,1.93c0.03,0.83,0.14,1.84,0.41,2.96
						c0.27,1.12,0.68,2.36,1.24,3.67c0.56,1.3,1.28,2.67,2.14,4.06c0.86,1.39,1.87,2.79,2.89,4.26c2.06,2.92,4.39,6.04,5.97,9.63
						c0.78,1.81,1.26,3.69,1.52,5.63c0.26,1.91,0.17,3.82-0.06,5.64c-0.21,1.82-0.77,3.52-1.34,5.08c-0.33,0.77-0.63,1.52-1.02,2.21
						c-0.35,0.71-0.75,1.35-1.15,1.96c-0.79,1.23-1.66,2.24-2.48,3.09c-0.84,0.82-1.6,1.51-2.29,2c-0.65,0.54-1.24,0.85-1.62,1.09
						c-0.38,0.23-0.59,0.36-0.59,0.36s0.19-0.14,0.56-0.4c0.36-0.27,0.91-0.63,1.53-1.19c0.65-0.52,1.36-1.25,2.14-2.1
						c0.75-0.88,1.54-1.92,2.27-3.13c0.37-0.61,0.74-1.25,1.05-1.94c0.36-0.68,0.62-1.42,0.92-2.18c0.51-1.54,0.97-3.19,1.17-4.94
						c0.2-1.74,0.27-3.58-0.01-5.4c-0.26-1.79-0.75-3.65-1.51-5.35c-1.47-3.47-3.73-6.57-5.76-9.52c-2.07-2.94-3.8-5.88-4.84-8.6
						c-1.07-2.71-1.38-5.16-1.32-6.84c0-0.42,0.03-0.8,0.07-1.12c0.03-0.33,0.07-0.6,0.12-0.82
						C209.63,312.07,209.67,311.84,209.67,311.84z"/>
				</g>
				<g>
					<path class="st8" d="M155.68,316.28c0,0,0.12,0.01,0.35,0.02c0.22,0.02,0.57,0.06,0.97,0.19c0.82,0.24,1.96,0.85,2.96,1.97
						c0.49,0.55,0.98,1.23,1.38,1.96c0.42,0.75,0.78,1.56,1.12,2.4c0.68,1.69,1.28,3.5,2.33,5.02c0.51,0.76,1.12,1.45,1.83,1.96
						c0.71,0.5,1.51,0.84,2.35,0.96c1.67,0.24,3.31-0.23,4.49-0.96c1.19-0.73,2.04-1.59,2.57-2.24c0.54-0.64,0.8-1.05,0.8-1.05
						s-0.19,0.45-0.65,1.17c-0.47,0.7-1.19,1.73-2.42,2.59c-0.62,0.44-1.34,0.82-2.17,1.08c-0.83,0.26-1.77,0.39-2.73,0.28
						c-0.96-0.1-1.96-0.45-2.79-1.04c-0.84-0.59-1.54-1.36-2.11-2.19c-1.13-1.69-1.73-3.59-2.32-5.27c-0.31-0.84-0.6-1.65-0.94-2.38
						c-0.34-0.75-0.73-1.38-1.16-1.94c-0.86-1.1-1.82-1.83-2.59-2.15c-0.38-0.16-0.69-0.26-0.91-0.31
						C155.8,316.3,155.68,316.28,155.68,316.28z"/>
				</g>
				<g>
					<path class="st8" d="M281.85,328.79c0,0,0.04,0.18,0.11,0.53c0.08,0.34,0.16,0.85,0.33,1.48c0.14,0.63,0.37,1.39,0.65,2.25
						c0.3,0.86,0.67,1.8,1.1,2.82c0.47,1,1,2.08,1.67,3.16c0.64,1.09,1.44,2.17,2.27,3.26c0.86,1.08,1.83,2.12,2.88,3.12
						c1.06,0.97,2.23,1.89,3.42,2.7c1.26,0.84,2.5,1.54,3.81,2.17c1.32,0.6,2.65,1.11,3.97,1.49c1.33,0.36,2.62,0.69,3.88,0.88
						c1.25,0.22,2.45,0.3,3.56,0.36c1.11,0.02,2.13,0.01,3.03-0.04c0.9-0.07,1.69-0.14,2.33-0.25c0.65-0.08,1.15-0.19,1.49-0.25
						c0.34-0.06,0.53-0.1,0.53-0.1s-0.18,0.05-0.52,0.15c-0.34,0.09-0.83,0.26-1.47,0.39c-0.64,0.15-1.42,0.29-2.33,0.43
						c-0.46,0.05-0.94,0.1-1.45,0.16c-0.51,0.04-1.06,0.05-1.62,0.07c-2.26,0.01-4.92-0.21-7.67-0.96
						c-1.37-0.38-2.75-0.88-4.12-1.48c-1.35-0.62-2.72-1.37-3.96-2.18c-1.27-0.89-2.43-1.84-3.53-2.87
						c-1.07-1.05-2.05-2.14-2.92-3.27c-1.73-2.26-2.93-4.65-3.77-6.74c-0.19-0.53-0.39-1.04-0.54-1.53
						c-0.14-0.49-0.27-0.96-0.4-1.41c-0.21-0.89-0.38-1.67-0.48-2.32c-0.13-0.64-0.15-1.16-0.19-1.51
						C281.87,328.98,281.85,328.79,281.85,328.79z"/>
				</g>
				<g>
					<path class="st8" d="M288.28,314.73c0,0,0.31-0.12,0.88-0.33c0.58-0.2,1.4-0.58,2.52-0.86c0.56-0.15,1.17-0.35,1.84-0.5
						c0.68-0.14,1.42-0.29,2.21-0.44c0.8-0.1,1.65-0.21,2.54-0.33c0.9-0.08,1.85-0.09,2.84-0.14c1.98,0.03,4.14,0.12,6.38,0.51
						c2.25,0.32,4.58,0.97,6.92,1.81c2.33,0.87,4.64,2.02,6.87,3.39c2.2,1.42,4.28,3.09,6.18,4.96c1.81,1.92,3.45,4.07,4.81,6.3
						c1.31,2.27,2.41,4.6,3.22,6.95c0.78,2.36,1.37,4.7,1.64,6.96c0.34,2.25,0.37,4.41,0.35,6.39c-0.07,0.99-0.12,1.94-0.21,2.83
						c-0.14,0.89-0.27,1.74-0.39,2.53c-0.18,0.78-0.34,1.52-0.5,2.19c-0.17,0.67-0.38,1.28-0.54,1.83c-0.3,1.11-0.71,1.93-0.92,2.5
						c-0.23,0.57-0.35,0.87-0.35,0.87s0.11-0.31,0.3-0.89c0.18-0.59,0.53-1.42,0.79-2.54c0.14-0.56,0.32-1.16,0.46-1.84
						c0.12-0.68,0.26-1.41,0.4-2.19c0.09-0.79,0.18-1.63,0.28-2.52c0.06-0.89,0.08-1.82,0.13-2.8c-0.03-1.95-0.12-4.07-0.51-6.27
						c-0.32-2.21-0.97-4.48-1.74-6.79c-0.81-2.29-1.91-4.56-3.2-6.76c-1.36-2.17-2.92-4.19-4.73-6.08
						c-1.82-1.83-3.83-3.47-5.96-4.87c-2.16-1.34-4.4-2.49-6.68-3.36c-2.28-0.82-4.54-1.53-6.74-1.9c-2.19-0.45-4.31-0.58-6.26-0.67
						c-0.98,0.02-1.91,0.02-2.8,0.06c-0.89,0.08-1.73,0.15-2.52,0.22c-0.79,0.12-1.52,0.24-2.2,0.35c-0.68,0.12-1.29,0.29-1.84,0.42
						c-1.12,0.23-1.97,0.56-2.56,0.73C288.59,314.63,288.28,314.73,288.28,314.73z"/>
				</g>
				<g>
					<path class="st8" d="M256.58,335.84c0,0-0.29,0.84-0.8,2.31c-0.52,1.46-1.23,3.57-2.07,6.09c-0.41,1.26-0.85,2.63-1.26,4.1
						c-0.43,1.46-0.8,3.02-1.19,4.62c-0.37,1.61-0.67,3.29-0.91,5.01c-0.22,1.72-0.35,3.47-0.38,5.22c-0.02,1.77,0.07,3.5,0.3,5.21
						c0.26,1.7,0.59,3.37,1.08,4.94c0.5,1.56,1.03,3.06,1.7,4.41c0.63,1.37,1.39,2.58,2.13,3.67c0.39,0.53,0.79,1.02,1.15,1.5
						c0.4,0.45,0.78,0.88,1.13,1.28c0.39,0.37,0.75,0.72,1.09,1.04c0.34,0.32,0.69,0.57,0.98,0.82c0.59,0.5,1.11,0.82,1.45,1.06
						c0.34,0.24,0.53,0.36,0.53,0.36s-0.19-0.11-0.56-0.31c-0.35-0.22-0.92-0.47-1.54-0.95c-0.31-0.23-0.68-0.46-1.05-0.76
						c-0.36-0.3-0.75-0.63-1.17-0.99c-0.39-0.39-0.8-0.8-1.24-1.23c-0.4-0.46-0.82-0.96-1.24-1.48c-0.8-1.08-1.63-2.29-2.33-3.67
						c-0.74-1.36-1.36-2.88-1.88-4.48c-0.52-1.61-0.89-3.32-1.17-5.06c-0.25-1.75-0.38-3.57-0.37-5.36c0.05-1.8,0.21-3.59,0.45-5.34
						c0.26-1.74,0.6-3.45,0.99-5.08c0.79-3.26,1.84-6.2,2.76-8.71c0.93-2.5,1.82-4.54,2.42-5.97
						C256.23,336.66,256.58,335.84,256.58,335.84z"/>
				</g>
				<g>
					<path class="st12" d="M333.16,203.8c0,0,0.23-0.07,0.66-0.21c0.43-0.14,1.07-0.31,1.91-0.47c1.66-0.31,4.11-0.6,7.02-0.15
						c1.45,0.21,3,0.59,4.58,1.19c1.57,0.6,3.19,1.41,4.66,2.5c1.51,1.1,2.89,2.42,4.12,3.92c1.21,1.52,2.25,3.21,3.05,5.01
						c0.77,1.82,1.3,3.73,1.55,5.67c0.25,1.91,0.23,3.82,0.15,5.64c-0.07,1.82-0.25,3.56-0.35,5.2c-0.11,1.65-0.13,3.2-0.03,4.63
						c0.18,2.86,0.84,5.19,1.62,6.68c0.37,0.75,0.73,1.31,0.99,1.67c0.27,0.36,0.42,0.55,0.42,0.55s-0.16-0.18-0.46-0.52
						c-0.29-0.35-0.71-0.87-1.12-1.62c-0.86-1.46-1.73-3.8-2-6.72c-0.32-2.92-0.06-6.32,0.08-9.91c0.06-1.8,0.05-3.64-0.21-5.49
						c-0.26-1.83-0.79-3.66-1.54-5.38c-0.74-1.73-1.72-3.36-2.86-4.83c-1.15-1.45-2.49-2.74-3.89-3.79
						c-2.86-2.13-6.02-3.34-8.83-3.85c-1.4-0.25-2.72-0.37-3.88-0.39c-1.16,0-2.18,0.06-3.02,0.18c-0.83,0.12-1.48,0.23-1.92,0.33
						C333.4,203.75,333.16,203.8,333.16,203.8z"/>
				</g>
				<g>
					<path class="st12" d="M337,200.14c0,0,0.23-0.07,0.67-0.21c0.43-0.15,1.08-0.31,1.92-0.5c0.84-0.15,1.88-0.32,3.08-0.36
						c1.2-0.08,2.56-0.02,4.03,0.19c2.92,0.41,6.32,1.49,9.39,3.65c0.37,0.28,0.75,0.57,1.13,0.85c0.35,0.31,0.71,0.62,1.07,0.93
						c0.71,0.67,1.38,1.38,2,2.14c1.24,1.52,2.29,3.24,3.1,5.06c0.79,1.83,1.35,3.76,1.63,5.7c0.28,1.94,0.29,3.89,0.07,5.74
						c-0.22,1.86-0.68,3.58-1.1,5.21c-0.43,1.62-0.82,3.15-1.07,4.58c-0.25,1.43-0.36,2.75-0.35,3.93c0.02,1.18,0.18,2.2,0.39,3.01
						c0.22,0.82,0.47,1.44,0.67,1.85c0.21,0.41,0.32,0.62,0.32,0.62s-0.13-0.21-0.37-0.6c-0.22-0.4-0.54-1-0.8-1.82
						c-0.54-1.63-0.86-4.15-0.42-7.08c0.39-2.93,1.44-6.23,1.87-9.79c0.19-1.78,0.17-3.64-0.13-5.5c-0.29-1.86-0.85-3.7-1.62-5.44
						c-0.76-1.75-1.74-3.4-2.91-4.87c-0.58-0.74-1.22-1.42-1.87-2.05c-0.35-0.31-0.69-0.62-1.03-0.92
						c-0.36-0.28-0.72-0.55-1.07-0.83c-2.91-2.1-6.13-3.32-8.98-3.8c-1.42-0.24-2.75-0.38-3.93-0.37c-1.18-0.02-2.21,0.09-3.05,0.18
						c-0.84,0.14-1.5,0.24-1.94,0.36C337.24,200.09,337,200.14,337,200.14z"/>
				</g>
				<g>
					<path class="st12" d="M326.09,202.09c0,0-0.29,0.32-0.79,0.89c-0.25,0.29-0.57,0.61-0.96,0.98c-0.37,0.38-0.81,0.79-1.32,1.2
						c-0.49,0.43-1.06,0.85-1.66,1.3c-0.6,0.46-1.27,0.87-1.96,1.31c-0.72,0.4-1.44,0.84-2.22,1.2c-0.77,0.39-1.58,0.71-2.39,1.05
						c-0.83,0.28-1.65,0.59-2.48,0.81c-0.82,0.26-1.66,0.41-2.46,0.59c-0.81,0.14-1.59,0.27-2.34,0.33
						c-0.75,0.07-1.45,0.13-2.1,0.14c-0.65,0.04-1.25,0.02-1.78-0.02c-0.53-0.02-0.99-0.05-1.36-0.09
						c-0.75-0.09-1.18-0.14-1.18-0.14s0.43-0.02,1.19-0.05c0.75-0.01,1.82-0.11,3.1-0.26c0.64-0.06,1.32-0.17,2.04-0.3
						c0.72-0.11,1.47-0.31,2.25-0.47c0.77-0.2,1.57-0.4,2.37-0.65c0.81-0.22,1.6-0.53,2.4-0.81c0.78-0.32,1.58-0.62,2.33-0.99
						c0.76-0.34,1.49-0.72,2.2-1.09c0.68-0.41,1.38-0.75,1.99-1.15c0.62-0.38,1.21-0.76,1.72-1.14c1.05-0.74,1.91-1.37,2.48-1.87
						C325.75,202.36,326.09,202.09,326.09,202.09z"/>
				</g>
				<g>
					<path class="st12" d="M361.23,163.89c0,0,0.12,0.02,0.33,0.05c0.22,0.04,0.54,0.05,0.94,0.17c0.41,0.09,0.89,0.24,1.43,0.42
						c0.27,0.11,0.55,0.23,0.85,0.35c0.3,0.14,0.59,0.31,0.91,0.47c1.23,0.72,2.59,1.76,3.72,3.17c0.56,0.71,1.08,1.5,1.51,2.35
						c0.41,0.87,0.73,1.76,0.97,2.75c0.18,0.89,0.28,1.92,0.27,2.86c-0.03,0.95-0.16,1.89-0.37,2.77c-0.43,1.76-1.22,3.27-2.03,4.45
						c-0.22,0.28-0.42,0.56-0.63,0.81c-0.22,0.24-0.43,0.46-0.63,0.68c-0.42,0.4-0.79,0.74-1.12,0.99c-0.31,0.27-0.6,0.42-0.78,0.55
						c-0.18,0.12-0.28,0.18-0.28,0.18s0.09-0.08,0.25-0.23c0.16-0.15,0.41-0.35,0.68-0.65c0.29-0.28,0.61-0.65,0.97-1.09
						c0.34-0.45,0.69-0.97,1.06-1.55c0.34-0.6,0.69-1.25,0.96-1.99c0.3-0.72,0.5-1.52,0.69-2.35c0.17-0.83,0.24-1.7,0.26-2.59
						c-0.01-0.9-0.09-1.73-0.29-2.67c-0.19-0.83-0.49-1.71-0.86-2.51c-0.39-0.79-0.82-1.55-1.33-2.23
						c-0.52-0.67-1.04-1.31-1.61-1.84c-0.56-0.55-1.15-1-1.71-1.39c-0.58-0.37-1.12-0.7-1.62-0.96c-0.51-0.24-0.95-0.45-1.34-0.58
						c-0.38-0.15-0.69-0.23-0.9-0.3C361.34,163.92,361.23,163.89,361.23,163.89z"/>
				</g>
				<g>
					<path class="st12" d="M362.64,168.03c0,0-0.33-0.03-0.9-0.08c-0.57-0.06-1.39-0.09-2.36-0.09c-0.97,0.01-2.09,0.09-3.27,0.32
						c-1.17,0.23-2.38,0.61-3.49,1.2c-0.57,0.3-1.07,0.62-1.56,1c-0.47,0.39-0.94,0.79-1.32,1.23c-0.79,0.87-1.37,1.82-1.76,2.7
						c-0.18,0.44-0.32,0.86-0.43,1.23c-0.09,0.38-0.16,0.72-0.19,1c-0.07,0.56-0.08,0.9-0.08,0.9s-0.01-0.08-0.04-0.23
						c-0.02-0.15-0.08-0.38-0.08-0.67c-0.02-0.29-0.01-0.65,0.02-1.06c0.04-0.41,0.11-0.87,0.26-1.36c0.28-0.98,0.82-2.08,1.63-3.07
						c0.4-0.5,0.87-0.98,1.39-1.41c0.52-0.42,1.12-0.82,1.71-1.14c1.23-0.62,2.55-1.01,3.81-1.18c1.26-0.17,2.44-0.14,3.44-0.02
						c1,0.11,1.8,0.32,2.36,0.47C362.33,167.92,362.64,168.03,362.64,168.03z"/>
				</g>
				<g>
					<path class="st12" d="M360.92,170.36c0,0-0.16,0.12-0.44,0.34c-0.27,0.21-0.65,0.53-1.05,0.95c-0.4,0.42-0.82,0.94-1.19,1.53
						c-0.19,0.3-0.35,0.62-0.51,0.95c-0.15,0.33-0.29,0.69-0.39,1.02c-0.12,0.4-0.2,0.72-0.26,1.09c-0.05,0.36-0.1,0.72-0.11,1.07
						c-0.02,0.7,0.04,1.37,0.13,1.94c0.1,0.57,0.23,1.04,0.34,1.37c0.11,0.33,0.17,0.52,0.17,0.52s-0.14-0.15-0.35-0.43
						c-0.21-0.29-0.49-0.73-0.71-1.31c-0.23-0.58-0.41-1.29-0.46-2.08c-0.02-0.39-0.02-0.8,0.03-1.22c0.05-0.4,0.15-0.86,0.25-1.23
						c0.14-0.43,0.3-0.8,0.49-1.18c0.19-0.37,0.42-0.71,0.66-1.02c0.48-0.62,1.03-1.12,1.55-1.47c0.51-0.35,0.98-0.56,1.32-0.68
						C360.72,170.41,360.92,170.36,360.92,170.36z"/>
				</g>
				<g>
					<path class="st12" d="M291.43,249.12c0,0-0.98,1.73-2.45,4.33c-0.74,1.29-1.54,2.83-2.33,4.5c-0.78,1.67-1.51,3.5-2.02,5.38
						c-0.52,1.89-0.78,3.81-0.8,5.64c-0.02,1.82,0.2,3.53,0.59,4.94c0.21,0.7,0.43,1.34,0.65,1.9c0.24,0.55,0.46,1.02,0.68,1.4
						c0.2,0.38,0.39,0.67,0.52,0.87c0.12,0.2,0.19,0.3,0.19,0.3s-0.08-0.09-0.23-0.27c-0.15-0.18-0.4-0.43-0.64-0.79
						c-0.27-0.35-0.54-0.81-0.86-1.34c-0.14-0.27-0.29-0.57-0.44-0.88c-0.14-0.32-0.27-0.66-0.4-1.01c-0.49-1.43-0.89-3.19-0.94-5.1
						c-0.07-1.9,0.2-3.96,0.72-5.91c0.55-1.95,1.32-3.83,2.19-5.51c0.86-1.68,1.82-3.15,2.64-4.41c0.82-1.25,1.59-2.24,2.09-2.95
						C291.12,249.51,291.43,249.12,291.43,249.12z"/>
				</g>
				<g>
					<path class="st12" d="M292.75,258.83c0,0-0.09,0.24-0.26,0.66c-0.18,0.41-0.38,1.01-0.62,1.72c-0.12,0.35-0.23,0.75-0.35,1.16
						c-0.13,0.41-0.21,0.85-0.34,1.3c-0.2,0.91-0.38,1.88-0.49,2.87c-0.11,0.98-0.15,1.97-0.16,2.9c0.02,0.46,0,0.92,0.04,1.34
						c0.03,0.43,0.05,0.83,0.09,1.21c0.07,0.75,0.14,1.38,0.22,1.82c0.07,0.44,0.1,0.7,0.1,0.7s-0.11-0.23-0.29-0.64
						c-0.16-0.42-0.41-1.02-0.6-1.77c-0.21-0.75-0.35-1.65-0.44-2.62c-0.02-0.49-0.07-0.99-0.04-1.5c0-0.51,0.05-1.03,0.09-1.55
						c0.08-0.51,0.14-1.03,0.26-1.53c0.09-0.5,0.25-0.99,0.37-1.45c0.3-0.93,0.64-1.77,1.01-2.45c0.35-0.69,0.73-1.23,0.98-1.59
						C292.59,259.03,292.75,258.83,292.75,258.83z"/>
				</g>
				<g>
					<path class="st12" d="M357.81,270c0,0,0.01,0.29,0.02,0.79c0,0.5,0.07,1.21,0.15,2.05c0.16,1.69,0.56,3.92,0.68,6.24
						c0.04,1.16,0,2.34-0.2,3.42c-0.18,1.09-0.51,2.08-0.91,2.87c-0.19,0.4-0.41,0.74-0.62,1.03c-0.22,0.29-0.41,0.53-0.58,0.71
						c-0.16,0.2-0.32,0.32-0.42,0.41c-0.1,0.09-0.15,0.14-0.15,0.14s0.17-0.24,0.42-0.66c0.27-0.42,0.56-1.06,0.82-1.85
						c0.25-0.79,0.46-1.74,0.56-2.77c0.1-1.04,0.13-2.14,0.07-3.26c-0.04-1.12-0.14-2.25-0.2-3.32c-0.06-1.07-0.09-2.08-0.05-2.95
						C357.49,271.11,357.81,270,357.81,270z"/>
				</g>
				<g>
					<path class="st12" d="M196.21,154.32c0,0,0.56,0.59,1.54,1.62c0.97,1.04,2.39,2.5,4.1,4.22c1.72,1.72,3.81,3.63,6.2,5.48
						c2.39,1.85,5.13,3.55,8.09,4.78c2.94,1.26,6.09,2,9.09,2.05c2.97,0.05,5.77-0.54,7.97-1.49c1.1-0.47,2.08-0.98,2.9-1.53
						c0.83-0.52,1.48-1.08,2.01-1.55c0.51-0.49,0.91-0.88,1.15-1.17c0.25-0.29,0.39-0.44,0.39-0.44s-0.12,0.16-0.35,0.47
						c-0.22,0.32-0.57,0.75-1.06,1.28c-0.99,1.02-2.56,2.41-4.82,3.45c-2.24,1.05-5.08,1.85-8.22,1.84c-3.1,0-6.4-0.73-9.45-1.99
						c-1.52-0.65-2.98-1.43-4.36-2.28c-1.38-0.85-2.67-1.78-3.88-2.74c-2.41-1.92-4.4-3.99-6.07-5.77
						c-1.66-1.79-2.93-3.39-3.85-4.48C196.72,154.95,196.21,154.32,196.21,154.32z"/>
				</g>
				<g>
					<path class="st12" d="M200.42,152.42c0,0,0.62,0.37,1.71,1.03c1.08,0.67,2.66,1.56,4.56,2.6c0.96,0.51,2,1.04,3.13,1.55
						c1.12,0.53,2.34,1,3.59,1.49c1.26,0.46,2.59,0.87,3.95,1.21c1.37,0.32,2.78,0.55,4.2,0.68c1.43,0.12,2.83,0.14,4.23,0.02
						c1.39-0.15,2.75-0.37,4.04-0.74c1.28-0.38,2.5-0.8,3.6-1.34c1.12-0.5,2.09-1.14,2.97-1.75c0.43-0.32,0.82-0.66,1.2-0.96
						c0.36-0.33,0.7-0.65,1.01-0.95c0.59-0.65,1.09-1.22,1.44-1.75c0.39-0.5,0.62-0.94,0.8-1.23c0.18-0.29,0.27-0.45,0.27-0.45
						s-0.08,0.16-0.22,0.47c-0.16,0.3-0.33,0.78-0.69,1.31c-0.31,0.56-0.78,1.18-1.33,1.89c-0.3,0.33-0.62,0.68-0.96,1.05
						c-0.37,0.34-0.76,0.7-1.19,1.05c-0.87,0.67-1.85,1.38-2.98,1.96c-1.11,0.61-2.36,1.12-3.69,1.52
						c-1.33,0.41-2.74,0.66-4.19,0.84c-1.45,0.15-2.96,0.16-4.41,0.05c-1.47-0.16-2.92-0.43-4.33-0.77c-1.4-0.37-2.76-0.81-4.04-1.3
						c-2.56-1-4.81-2.25-6.68-3.36c-1.88-1.12-3.35-2.19-4.39-2.92C200.99,152.87,200.42,152.42,200.42,152.42z"/>
				</g>
				<g>
					<path class="st12" d="M189.87,158.9c0,0,0.01,0.41,0.01,1.12c0.01,0.36-0.02,0.79-0.06,1.28c-0.03,0.5-0.07,1.06-0.19,1.67
						c-0.08,0.61-0.22,1.26-0.37,1.95c-0.14,0.69-0.36,1.41-0.59,2.14c-0.27,0.72-0.51,1.49-0.86,2.22
						c-0.31,0.75-0.7,1.47-1.07,2.21c-0.43,0.71-0.83,1.42-1.3,2.09c-0.43,0.69-0.95,1.3-1.42,1.91c-0.5,0.58-0.99,1.15-1.5,1.64
						c-0.5,0.5-0.98,0.96-1.45,1.36c-0.45,0.42-0.9,0.76-1.31,1.04c-0.4,0.3-0.75,0.55-1.06,0.74c-0.6,0.38-0.95,0.59-0.95,0.59
						s0.3-0.28,0.83-0.74c0.54-0.46,1.26-1.17,2.1-2.03c0.43-0.42,0.86-0.92,1.3-1.44c0.46-0.51,0.87-1.11,1.34-1.69
						c0.43-0.61,0.89-1.23,1.31-1.9c0.45-0.65,0.82-1.35,1.23-2.04c0.37-0.71,0.76-1.4,1.07-2.12c0.34-0.71,0.62-1.43,0.91-2.12
						c0.24-0.71,0.52-1.38,0.71-2.04c0.21-0.66,0.4-1.28,0.52-1.87c0.29-1.17,0.5-2.15,0.6-2.86
						C189.8,159.3,189.87,158.9,189.87,158.9z"/>
				</g>
				<g>
					<path class="st12" d="M244.84,139.08c0,0,0.45,0.33,1.24,0.91c0.4,0.28,0.85,0.67,1.36,1.13c0.26,0.23,0.53,0.47,0.82,0.73
						c0.28,0.27,0.54,0.57,0.83,0.88c0.59,0.6,1.17,1.32,1.77,2.08c0.62,0.75,1.16,1.62,1.74,2.51c0.51,0.93,1.1,1.86,1.53,2.89
						c0.5,1,0.86,2.07,1.28,3.13c0.31,1.09,0.67,2.17,0.87,3.26c0.28,1.08,0.37,2.18,0.53,3.23c0.07,1.06,0.17,2.08,0.13,3.05
						c-0.01,0.97-0.04,1.89-0.15,2.73c-0.05,0.42-0.07,0.82-0.13,1.2c-0.07,0.38-0.15,0.74-0.21,1.07c-0.12,0.67-0.25,1.26-0.4,1.73
						c-0.28,0.94-0.44,1.48-0.44,1.48s0.09-0.55,0.25-1.52c0.1-0.48,0.16-1.06,0.22-1.74c0.08-0.67,0.13-1.43,0.15-2.26
						c0.06-0.83,0.03-1.73-0.02-2.67c0-0.47-0.05-0.96-0.11-1.45c-0.06-0.49-0.09-1-0.16-1.51c-0.17-1.02-0.32-2.07-0.59-3.12
						c-0.21-1.06-0.57-2.1-0.88-3.16c-0.39-1.03-0.73-2.07-1.21-3.05c-0.42-1-0.94-1.93-1.41-2.85c-0.55-0.87-1.01-1.76-1.57-2.53
						c-0.54-0.78-1.06-1.51-1.6-2.14c-0.52-0.65-1.02-1.22-1.48-1.71c-0.45-0.5-0.86-0.93-1.23-1.25
						C245.24,139.47,244.84,139.08,244.84,139.08z"/>
				</g>
				<g>
					<path class="st12" d="M155.62,308.56c0,0,0.21,0.01,0.61,0.03c0.39,0.03,0.99,0.08,1.72,0.25c1.45,0.34,3.54,1.12,5.48,2.89
						c0.96,0.88,1.87,2,2.58,3.33c0.73,1.36,1.1,2.86,1.71,4.28c0.3,0.71,0.68,1.38,1.19,1.92c0.51,0.52,1.17,0.86,1.91,0.9
						c0.7,0.05,1.47-0.18,2.19-0.53c0.73-0.35,1.44-0.8,2.18-1.23c1.5-0.85,3.2-1.48,4.88-1.81c1.69-0.33,3.4-0.41,5.03-0.24
						c1.63,0.15,3.18,0.61,4.53,1.19c1.39,0.61,2.58,1.36,3.6,2.17c2.05,1.61,3.28,3.44,4,4.73c0.37,0.65,0.6,1.2,0.75,1.57
						c0.15,0.37,0.22,0.57,0.22,0.57s-0.09-0.19-0.27-0.55c-0.18-0.36-0.47-0.86-0.86-1.49c-0.79-1.24-2.15-2.9-4.18-4.39
						c-1.01-0.73-2.21-1.42-3.52-1.93c-1.35-0.51-2.81-0.87-4.36-1.01c-1.54-0.14-3.16-0.05-4.75,0.29
						c-1.6,0.34-3.13,0.93-4.57,1.76c-0.73,0.41-1.46,0.87-2.27,1.24c-0.8,0.37-1.71,0.66-2.68,0.58c-0.94-0.06-1.85-0.55-2.47-1.21
						c-0.62-0.67-1.02-1.44-1.33-2.2c-0.64-1.51-0.95-3.05-1.56-4.3c-0.61-1.27-1.43-2.37-2.31-3.25c-0.89-0.87-1.83-1.55-2.71-2.06
						c-0.88-0.51-1.73-0.82-2.43-1.05c-0.71-0.21-1.28-0.33-1.67-0.39C155.83,308.59,155.62,308.56,155.62,308.56z"/>
				</g>
				<g>
					<path class="st12" d="M150.15,311.28c0,0,0.06,0.53,0.16,1.46c0.06,0.46,0.08,1.03,0.08,1.69c0.01,0.33,0.01,0.68,0.02,1.05
						c-0.01,0.37-0.05,0.75-0.08,1.15c-0.04,0.81-0.16,1.67-0.3,2.59c-0.12,0.92-0.37,1.87-0.61,2.85c-0.31,0.96-0.58,1.98-1,2.96
						c-0.37,1-0.87,1.96-1.33,2.94c-0.55,0.93-1.06,1.89-1.68,2.76c-0.57,0.9-1.25,1.7-1.88,2.5c-0.68,0.75-1.32,1.49-2.01,2.11
						c-0.68,0.64-1.32,1.22-1.97,1.71c-0.32,0.25-0.61,0.5-0.91,0.71c-0.31,0.2-0.6,0.39-0.87,0.57c-0.54,0.36-1.02,0.67-1.44,0.88
						c-0.83,0.44-1.3,0.69-1.3,0.69s0.43-0.31,1.19-0.85c0.39-0.25,0.83-0.6,1.33-1.02c0.51-0.4,1.06-0.87,1.64-1.41
						c0.6-0.51,1.2-1.13,1.81-1.79c0.64-0.64,1.21-1.41,1.85-2.15c0.59-0.79,1.21-1.6,1.75-2.47c0.59-0.85,1.07-1.78,1.6-2.69
						c0.46-0.94,0.96-1.87,1.32-2.83c0.42-0.95,0.73-1.91,1.05-2.84c0.25-0.95,0.57-1.85,0.74-2.74c0.2-0.88,0.37-1.72,0.46-2.51
						c0.12-0.78,0.2-1.5,0.24-2.15c0.06-0.64,0.1-1.21,0.09-1.67C150.13,311.82,150.15,311.28,150.15,311.28z"/>
				</g>
				<g>
					<path class="st12" d="M164.16,293.16c0,0,0.03-0.22,0.12-0.63c0.11-0.4,0.31-1,0.76-1.66c0.45-0.65,1.14-1.36,2.11-1.92
						c0.96-0.56,2.18-1.01,3.57-1.05c1.37-0.05,2.89,0.26,4.33,0.88c1.45,0.61,2.86,1.51,4.16,2.6c2.63,2.16,4.91,4.93,7.8,6.9
						c2.85,2,6.18,3.34,9.14,4.95c2.97,1.57,5.56,3.6,7.08,5.87c1.56,2.28,1.95,4.64,1.88,6.2c-0.03,0.79-0.19,1.39-0.3,1.8
						c-0.14,0.4-0.21,0.61-0.21,0.61s0.05-0.22,0.16-0.62c0.08-0.41,0.17-1.01,0.16-1.79c-0.01-1.53-0.59-3.76-2.14-5.86
						c-0.78-1.06-1.8-2.06-3-2.96c-1.2-0.9-2.58-1.7-4.04-2.48c-2.92-1.54-6.28-2.83-9.31-4.9c-1.49-1.04-2.82-2.3-4.07-3.53
						c-1.26-1.24-2.45-2.46-3.71-3.52c-1.26-1.05-2.56-1.97-3.91-2.6c-1.35-0.64-2.72-0.97-4.03-0.98c-1.29,0-2.46,0.34-3.4,0.82
						c-0.95,0.48-1.65,1.11-2.13,1.71c-0.47,0.6-0.73,1.16-0.86,1.55C164.21,292.94,164.16,293.16,164.16,293.16z"/>
				</g>
				<g>
					<path class="st12" d="M140.6,299.81c0,0-0.18,0.06-0.51,0.19c-0.33,0.12-0.78,0.36-1.32,0.73c-0.52,0.39-1.1,0.93-1.62,1.66
						c-0.52,0.73-0.98,1.64-1.36,2.67c-0.38,1.04-0.65,2.21-0.79,3.46c-0.14,1.27-0.15,2.61-0.21,4.02
						c-0.05,1.41-0.11,2.88-0.35,4.38c-0.23,1.49-0.67,3.02-1.44,4.4c-1.57,2.74-3.97,4.7-5.91,6.68c-0.97,1-1.88,1.98-2.6,3.01
						c-0.72,1.03-1.27,2.1-1.54,3.16c-0.27,1.04-0.33,2.07-0.23,2.95c0.1,0.89,0.35,1.64,0.66,2.21c0.31,0.57,0.64,0.96,0.88,1.22
						c0.26,0.24,0.4,0.36,0.4,0.36s-0.15-0.11-0.43-0.33c-0.26-0.24-0.66-0.59-1.01-1.16c-0.71-1.11-1.32-3.09-0.81-5.4
						c0.5-2.29,2.09-4.61,4.07-6.63c1.96-2.04,4.25-4.03,5.66-6.57c1.45-2.51,1.65-5.54,1.79-8.33c0.07-1.4,0.16-2.78,0.35-4.08
						c0.2-1.3,0.54-2.51,0.98-3.57c0.86-2.15,2.26-3.6,3.4-4.29c0.58-0.34,1.07-0.52,1.41-0.62
						C140.41,299.85,140.6,299.81,140.6,299.81z"/>
				</g>
				<g>
					<path class="st12" d="M215.27,343.17c0,0,0.04,0.09,0.12,0.26c0.07,0.17,0.21,0.4,0.32,0.73c0.25,0.64,0.6,1.58,0.81,2.75
						c0.21,1.17,0.36,2.57,0.27,4.07c-0.05,0.75-0.14,1.52-0.3,2.3c-0.17,0.78-0.38,1.54-0.66,2.32c-0.27,0.72-0.62,1.48-0.99,2.17
						c-0.38,0.7-0.81,1.34-1.25,1.95c-0.9,1.21-1.92,2.18-2.84,2.94c-0.92,0.76-1.79,1.25-2.4,1.57c-0.3,0.17-0.55,0.27-0.72,0.35
						c-0.17,0.08-0.26,0.12-0.26,0.12s0.32-0.23,0.87-0.63c0.56-0.39,1.29-1.03,2.13-1.83c0.83-0.8,1.69-1.84,2.49-3.02
						c0.4-0.59,0.76-1.24,1.12-1.89c0.34-0.67,0.64-1.34,0.91-2.08c0.25-0.69,0.48-1.43,0.64-2.16c0.15-0.73,0.29-1.46,0.37-2.17
						c0.15-1.42,0.17-2.77,0.05-3.92c-0.12-1.15-0.27-2.11-0.44-2.77C215.37,343.55,215.27,343.17,215.27,343.17z"/>
				</g>
				<g>
					<path class="st12" d="M286.46,328.59c0,0,0.37,0.55,1.02,1.5c0.31,0.49,0.72,1.05,1.21,1.69c0.47,0.64,1.02,1.35,1.66,2.1
						c0.6,0.77,1.32,1.56,2.09,2.38c0.75,0.84,1.64,1.62,2.51,2.48c0.92,0.81,1.85,1.66,2.87,2.44c0.98,0.83,2.07,1.55,3.12,2.31
						c1.1,0.7,2.18,1.44,3.31,2.04c1.1,0.65,2.24,1.2,3.33,1.75c1.12,0.48,2.18,1.02,3.24,1.4c1.05,0.41,2.04,0.78,2.98,1.06
						c0.93,0.31,1.8,0.56,2.57,0.75c0.77,0.22,1.45,0.39,2.01,0.49c1.13,0.24,1.77,0.38,1.77,0.38s-0.66-0.07-1.8-0.19
						c-0.58-0.05-1.27-0.17-2.06-0.32c-0.4-0.07-0.82-0.15-1.27-0.23c-0.44-0.09-0.9-0.23-1.38-0.35c-0.97-0.23-2-0.55-3.08-0.91
						c-1.09-0.33-2.2-0.81-3.35-1.28c-1.12-0.54-2.31-1.05-3.44-1.71c-1.16-0.61-2.27-1.35-3.4-2.05c-1.07-0.79-2.18-1.53-3.17-2.39
						c-1.04-0.8-1.95-1.71-2.87-2.55c-0.87-0.89-1.72-1.74-2.44-2.63c-0.74-0.87-1.42-1.7-1.99-2.52c-0.29-0.4-0.59-0.78-0.84-1.15
						c-0.24-0.38-0.47-0.75-0.68-1.09c-0.44-0.68-0.8-1.28-1.06-1.79C286.77,329.17,286.46,328.59,286.46,328.59z"/>
				</g>
				<g>
					<path class="st12" d="M290.68,327.43c0,0,0.45,0.31,1.25,0.85c0.39,0.28,0.88,0.6,1.44,0.95c0.56,0.36,1.2,0.75,1.9,1.17
						c0.69,0.43,1.47,0.85,2.3,1.29c0.82,0.45,1.72,0.85,2.63,1.31c0.93,0.42,1.88,0.86,2.88,1.25c0.98,0.42,2.01,0.77,3.03,1.14
						c1.03,0.33,2.06,0.69,3.09,0.95c1.03,0.3,2.05,0.54,3.04,0.77c1,0.19,1.96,0.43,2.88,0.57c0.92,0.16,1.79,0.3,2.61,0.38
						c1.62,0.2,2.98,0.33,3.94,0.37c0.96,0.06,1.51,0.09,1.51,0.09s-0.55,0.04-1.51,0.1c-0.48,0.04-1.06,0.04-1.73,0.04
						c-0.67,0.01-1.43,0.01-2.25-0.05c-0.83-0.03-1.72-0.12-2.66-0.22c-0.95-0.09-1.93-0.26-2.95-0.43
						c-1.01-0.22-2.07-0.4-3.12-0.71c-1.06-0.26-2.11-0.61-3.16-0.94c-1.03-0.39-2.08-0.75-3.08-1.19c-1.01-0.4-1.96-0.9-2.9-1.35
						c-0.91-0.49-1.8-0.96-2.6-1.47c-0.81-0.5-1.57-0.97-2.24-1.45c-0.69-0.45-1.29-0.92-1.82-1.34c-0.53-0.41-0.99-0.77-1.34-1.1
						C291.09,327.8,290.68,327.43,290.68,327.43z"/>
				</g>
				<g>
					<path class="st12" d="M278.48,327.93c0,0-0.07,0.49-0.19,1.34c-0.06,0.43-0.16,0.94-0.3,1.52c-0.12,0.59-0.28,1.26-0.52,1.96
						c-0.21,0.71-0.49,1.47-0.8,2.26c-0.29,0.8-0.7,1.61-1.1,2.44c-0.46,0.81-0.89,1.67-1.44,2.48c-0.51,0.84-1.13,1.62-1.71,2.42
						c-0.65,0.75-1.27,1.53-1.96,2.22c-0.65,0.73-1.4,1.35-2.08,1.98c-0.72,0.59-1.41,1.17-2.12,1.64c-0.7,0.49-1.36,0.94-2.01,1.3
						c-0.63,0.4-1.23,0.71-1.78,0.96c-0.54,0.27-1.01,0.49-1.41,0.65c-0.8,0.32-1.26,0.5-1.26,0.5s0.43-0.24,1.17-0.67
						c0.38-0.2,0.82-0.47,1.32-0.8c0.5-0.31,1.06-0.68,1.66-1.11c0.61-0.4,1.23-0.89,1.88-1.41c0.66-0.51,1.29-1.13,1.98-1.71
						c0.65-0.63,1.33-1.28,1.96-1.98c0.67-0.68,1.26-1.44,1.88-2.18c0.57-0.77,1.18-1.53,1.69-2.33c0.54-0.78,1.01-1.59,1.48-2.37
						c0.41-0.81,0.87-1.56,1.21-2.32c0.36-0.75,0.69-1.47,0.94-2.15c0.28-0.68,0.51-1.3,0.69-1.86c0.2-0.56,0.37-1.05,0.47-1.47
						C278.34,328.4,278.48,327.93,278.48,327.93z"/>
				</g>
				<g>
					<path class="st12" d="M280.98,316.54c0,0-0.53,0.11-1.43,0.34c-0.45,0.11-0.99,0.27-1.61,0.47c-0.61,0.21-1.29,0.47-2.03,0.76
						c-0.73,0.31-1.51,0.66-2.3,1.1c-0.8,0.42-1.6,0.94-2.42,1.48c-0.82,0.55-1.61,1.19-2.39,1.85c-0.77,0.68-1.53,1.43-2.21,2.19
						c-0.72,0.81-1.34,1.61-1.93,2.46c-0.57,0.86-1.11,1.72-1.56,2.59c-0.44,0.88-0.86,1.73-1.19,2.58
						c-0.34,0.84-0.6,1.66-0.83,2.41c-0.42,1.53-0.69,2.83-0.79,3.76c-0.13,0.92-0.18,1.46-0.18,1.46s0-0.13-0.01-0.38
						c0-0.25-0.03-0.62-0.01-1.09c0.01-0.47,0.05-1.04,0.1-1.69c0.07-0.65,0.17-1.39,0.34-2.18c0.35-1.58,0.89-3.41,1.77-5.25
						c0.45-0.92,0.96-1.84,1.55-2.74c0.59-0.88,1.28-1.78,1.97-2.57c0.75-0.82,1.52-1.57,2.34-2.27c0.82-0.69,1.68-1.3,2.54-1.85
						c1.72-1.09,3.48-1.84,5.01-2.37c0.77-0.26,1.49-0.45,2.13-0.59c0.64-0.13,1.2-0.24,1.67-0.3c0.46-0.08,0.83-0.09,1.08-0.12
						C280.85,316.55,280.98,316.54,280.98,316.54z"/>
				</g>
				
					<ellipse transform="matrix(0.2095 -0.9778 0.9778 0.2095 17.1598 540.0758)" class="st7" cx="342.61" cy="259.42" rx="4.63" ry="7.76"/>
				
					<ellipse transform="matrix(0.6591 -0.7521 0.7521 0.6591 -78.5997 313.9408)" class="st7" cx="306.98" cy="243.67" rx="4.63" ry="7.76"/>
				
					<ellipse transform="matrix(0.9803 -0.1976 0.1976 0.9803 -36.4778 51.5787)" class="st7" cx="240.22" cy="208.58" rx="7.76" ry="4.63"/>
				
					<ellipse transform="matrix(0.1976 -0.9803 0.9803 0.1976 -48.9328 357.3821)" class="st7" cx="193.84" cy="208.58" rx="4.63" ry="7.76"/>
				
					<ellipse transform="matrix(0.866 -0.5 0.5 0.866 -148.7628 143.231)" class="st7" cx="192.89" cy="349.21" rx="7.76" ry="4.63"/>
				<path class="st7" d="M160.8,358.74c0-2.56-3.48-4.63-7.76-4.63c-4.29,0-7.76,2.07-7.76,4.63s3.48,4.63,7.76,4.63
					C157.32,363.37,160.8,361.3,160.8,358.74z"/>
				<path class="st7" d="M284.02,375.2c0-2.56-3.48-4.63-7.76-4.63s-7.76,2.07-7.76,4.63s3.48,4.63,7.76,4.63
					S284.02,377.76,284.02,375.2z"/>
				<path class="st7" d="M320.1,375.88c0-2.56-3.48-4.63-7.76-4.63s-7.76,2.07-7.76,4.63s3.48,4.63,7.76,4.63
					S320.1,378.43,320.1,375.88z"/>
				<path class="st13" d="M234.28,185.25c0.09,2.22,9.19,3.41,9.43,0.75C243.95,183.35,234.19,183.03,234.28,185.25z"/>
				<path class="st13" d="M203.35,184.53c-0.09,2.22-9.19,3.41-9.43,0.75C193.68,182.63,203.44,182.31,203.35,184.53z"/>
				<path class="st13" d="M233.59,194.54c-0.06-1.15,0.09-2.41,0.8-3.24c0.37-0.43,1.01-0.68,1.53-0.45
					c0.64,0.28,0.82,1.09,0.84,1.79c0.03,0.82-0.05,1.65-0.23,2.45c-0.11,0.47-0.25,0.94-0.55,1.3c-0.3,0.37-0.79,0.62-1.26,0.52
					c-0.53-0.11-0.9-0.63-0.99-1.17C233.67,195.38,233.61,194.97,233.59,194.54z"/>
				<path class="st13" d="M199.65,194.54c-0.06-1.15,0.09-2.41,0.8-3.24c0.37-0.43,1.01-0.68,1.53-0.45
					c0.64,0.28,0.82,1.09,0.84,1.79c0.03,0.82-0.05,1.65-0.23,2.45c-0.11,0.47-0.25,0.94-0.55,1.3c-0.3,0.37-0.79,0.62-1.26,0.52
					c-0.53-0.11-0.9-0.63-0.99-1.17C199.73,195.38,199.68,194.97,199.65,194.54z"/>
				<path class="st13" d="M306.19,356.47c0.09,2.22,9.19,3.41,9.43,0.75S306.1,354.25,306.19,356.47z"/>
				<path class="st13" d="M284.39,355.75c-0.09,2.22-9.19,3.41-9.43,0.75S284.48,353.53,284.39,355.75z"/>
				<path class="st13" d="M306.46,365.76c-0.06-1.15,0.09-2.41,0.8-3.24c0.37-0.43,1.01-0.68,1.53-0.45
					c0.64,0.28,0.82,1.09,0.84,1.79c0.03,0.82-0.05,1.65-0.23,2.45c-0.11,0.47-0.25,0.94-0.55,1.3c-0.3,0.37-0.79,0.62-1.26,0.52
					c-0.53-0.11-0.9-0.63-0.99-1.17C306.54,366.6,306.49,366.18,306.46,365.76z"/>
				<path class="st13" d="M281.65,365.76c-0.06-1.15,0.09-2.41,0.8-3.24c0.37-0.43,1.01-0.68,1.53-0.45
					c0.64,0.28,0.82,1.09,0.84,1.79c0.03,0.82-0.05,1.65-0.23,2.45c-0.11,0.47-0.25,0.94-0.55,1.3c-0.3,0.37-0.79,0.62-1.26,0.52
					c-0.53-0.11-0.9-0.63-0.99-1.17C281.73,366.6,281.68,366.18,281.65,365.76z"/>
				<path class="st13" d="M180.91,328.46c0.78,2.08,9.79,0.36,9.19-2.23C189.5,323.63,180.13,326.38,180.91,328.46z"/>
				<path class="st13" d="M152.32,334.4c0.61,2.14-7.66,6.11-8.72,3.66S151.71,332.27,152.32,334.4z"/>
				<path class="st13" d="M184.68,339.03c-0.42-1.08-0.67-2.31-0.25-3.33c0.22-0.53,0.75-0.96,1.31-0.9
					c0.69,0.07,1.12,0.78,1.36,1.44c0.28,0.77,0.47,1.58,0.55,2.4c0.05,0.47,0.05,0.97-0.12,1.41c-0.17,0.45-0.56,0.84-1.03,0.89
					c-0.54,0.06-1.05-0.32-1.31-0.8C185.01,339.81,184.83,339.43,184.68,339.03z"/>
				<path class="st13" d="M153.45,346.6c-0.42-1.08-0.67-2.31-0.25-3.33c0.22-0.53,0.75-0.96,1.31-0.9
					c0.69,0.07,1.12,0.78,1.36,1.44c0.28,0.77,0.47,1.58,0.55,2.4c0.05,0.47,0.05,0.97-0.12,1.41s-0.56,0.84-1.03,0.89
					c-0.54,0.06-1.05-0.32-1.31-0.8C153.79,347.37,153.61,347,153.45,346.6z"/>
				<path class="st13" d="M345.41,236.34c-1.29,1.8,5.15,8.34,6.97,6.4C354.2,240.8,346.7,234.53,345.41,236.34z"/>
				<path class="st13" d="M320.2,226.06c-0.56,2.15-9.7,1.39-9.38-1.25C311.14,222.17,320.75,223.91,320.2,226.06z"/>
				<path class="st13" d="M339.79,245.14c0.35-1.1,0.94-2.22,1.91-2.74c0.5-0.27,1.19-0.28,1.59,0.13c0.49,0.49,0.37,1.31,0.15,1.97
					c-0.27,0.78-0.63,1.52-1.09,2.21c-0.26,0.4-0.57,0.78-0.98,1.02s-0.96,0.3-1.36,0.04c-0.46-0.29-0.61-0.91-0.51-1.45
					C339.57,245.95,339.66,245.55,339.79,245.14z"/>
				<path class="st13" d="M313.28,234.01c0.35-1.1,0.94-2.22,1.91-2.74c0.5-0.27,1.19-0.28,1.59,0.13c0.49,0.49,0.37,1.31,0.15,1.97
					c-0.27,0.78-0.63,1.52-1.09,2.21c-0.26,0.4-0.57,0.78-0.98,1.02c-0.41,0.24-0.96,0.3-1.36,0.04c-0.46-0.29-0.61-0.91-0.51-1.45
					C313.05,234.82,313.15,234.41,313.28,234.01z"/>
				<path class="st14" d="M331.27,235.94c-1.39,5.44-2.78,10.89-4.17,16.33c-0.24,0.93-0.5,1.9-1.13,2.63
					c-1.24,1.43-3.84,1.27-4.9-0.3"/>
				<path class="st14" d="M357.86,257.89c1.88-2.1,5.28-2.65,7.73-1.25"/>
				<path class="st14" d="M360.77,256.33c0.75,1.44,1.49,2.87,2.24,4.31"/>
				<path class="st14" d="M297.4,232.16c-0.4-1.37-1.31-2.59-2.53-3.34c-1.21-0.76-2.71-1.04-4.11-0.8"/>
				<path class="st14" d="M295.2,229.06c-1.68,0.97-3.36,1.93-5.04,2.9"/>
				<path class="st14" d="M309.99,252.9c-0.38,2.57,0.08,5.26,1.27,7.56c1.2,2.31,3.13,4.22,5.45,5.39"/>
				<path class="st14" d="M253.94,197.17c0.83-1.52,2.33-2.67,4.02-3.06c1.69-0.39,3.54-0.02,4.95,0.98"/>
				<path class="st14" d="M257.42,194.09c1.22,1.44,2,3.23,2.24,5.1"/>
				<path class="st14" d="M180.29,195.93c-1.19-1.37-3.01-2.17-4.82-2.11s-3.58,0.97-4.68,2.41"/>
				<path class="st14" d="M176.28,194.09c-1.17,1.68-1.91,3.67-2.13,5.71"/>
				<path class="st14" d="M219.7,188.92c0.84,6.36,1.67,12.73,2.51,19.09c0.19,1.43,0.32,3.06-0.63,4.15
					c-1.24,1.42-3.5,1.06-5.33,0.58"/>
				<path class="st14" d="M200.07,215.74c0.25,3.27,1.62,6.44,3.81,8.88s5.21,4.11,8.44,4.7"/>
				<path class="st14" d="M202.9,340.43c1.29-2.06,3.92-3.17,6.3-2.67"/>
				<path class="st14" d="M205.33,338.35c0.79,1.11,1.59,2.21,2.38,3.32"/>
				<path class="st14" d="M137.47,352.88c-1.77-1.48-4.56-1.56-6.43-0.19"/>
				<path class="st14" d="M134.58,351.79c-0.8,1.31-1.6,2.62-2.39,3.93"/>
				<path class="st14" d="M171.64,339.07c0.34,3.94,2.05,7.75,4.76,10.63c0.9,0.96,1.99,2.01,1.88,3.32
					c-0.08,0.95-0.81,1.75-1.67,2.18c-0.86,0.42-1.83,0.54-2.78,0.65"/>
				<path class="st14" d="M163.87,359.65c0.97,2.31,2.71,4.29,4.89,5.53c2.17,1.25,4.76,1.75,7.25,1.42"/>
				<path class="st14" d="M325.47,368.59c1.42-1.77,4.09-2.4,6.15-1.46"/>
				<path class="st14" d="M327.99,367.19c1.19,0.68,2.03,1.93,2.22,3.29"/>
				<path class="st14" d="M263.73,367.74c-1.48-1.33-3.92-1.45-5.52-0.26"/>
				<path class="st14" d="M261.63,366.87c-1.08,0.88-1.84,2.14-2.11,3.5"/>
				<path class="st14" d="M295.4,362.65c-0.43,4.33,0.33,8.78,2.19,12.72c0.59,1.25,1.27,2.78,0.47,3.91
					c-0.7,0.98-2.11,1.03-3.32,0.98"/>
				<path class="st14" d="M284.35,381.18c0.22,2.23,1.4,4.36,3.17,5.74c1.77,1.38,4.12,2,6.34,1.67"/>
				<path class="st15" d="M265.86,286.76c0.63,10.47,1.26,20.93,1.9,31.4"/>
				<path class="st15" d="M266.47,297.6c0.78-4.8,3.1-9.34,6.52-12.79"/>
				<path class="st16" d="M358.43,437.97c10.54-11.17,21.08-22.33,31.62-33.5"/>
				<path class="st16" d="M384.25,409.37c-4.44-17.55-6.17-25.28-18.79-47.85"/>
				<path class="st14" d="M337.7,456.68c3.01-0.93,5.89-2.27,8.53-3.97"/>
				<path class="st14" d="M341.28,461.57c2.32-1.09,4.64-2.17,6.97-3.26"/>
				<path class="st14" d="M343.86,466.63c2.19-0.93,4.38-1.86,6.57-2.8"/>
				<path class="st14" d="M348.64,445.23c1.18-0.56,2.36-1.11,3.54-1.67"/>
				<g>
					<path class="st16" d="M291.16,290.01c3.59,8.18,11.88,14.1,20.78,14.83s18.05-3.74,22.93-11.22"/>
					<path class="st16" d="M291.93,292.2c-1.36,0.89-2.72,1.78-4.09,2.68"/>
					<path class="st16" d="M294.74,296.29c-1.17,1.08-2.35,2.16-3.52,3.24"/>
					<path class="st16" d="M298.55,299.53c-0.85,1.13-1.69,2.25-2.54,3.38"/>
					<path class="st16" d="M302.69,302.44c-0.7,1.27-1.4,2.54-2.09,3.81"/>
					<path class="st16" d="M307.29,304.46c-0.52,1.31-1.04,2.63-1.57,3.94"/>
					<path class="st16" d="M312.48,304.6c-0.09,1.69-0.19,3.38-0.28,5.07"/>
					<path class="st16" d="M318.11,304.46c0.09,1.69,0.19,3.38,0.28,5.07"/>
					<path class="st16" d="M323.01,303.35c0.49,1.5,0.98,2.99,1.47,4.49"/>
					<path class="st16" d="M327.53,300.82c0.85,1.26,1.7,2.53,2.55,3.79"/>
					<path class="st16" d="M331.25,298.24c0.92,1.06,1.84,2.11,2.76,3.17"/>
					<path class="st16" d="M334.2,294.86c1.1,0.93,2.19,1.86,3.29,2.78"/>
				</g>
				<path class="st15" d="M193.09,253.16c3.96,7.9,12.46,13.31,21.3,13.57c8.83,0.25,17.63-4.66,22.04-12.32"/>
				<g class="st17">
					<path class="st18" d="M316.49,411.09c-2.47,0-2.77,3.85-0.28,3.85C318.69,414.94,318.99,411.09,316.49,411.09z"/>
					<path class="st18" d="M308.25,422.76c-2.47,0-2.77,3.85-0.28,3.85C310.44,426.61,310.75,422.76,308.25,422.76z"/>
					<path class="st18" d="M296.58,416.58c-2.47,0-2.77,3.85-0.28,3.85C298.77,420.43,299.07,416.58,296.58,416.58z"/>
					<path class="st18" d="M287.88,425.28c-2.47,0-2.77,3.85-0.28,3.85C290.07,429.13,290.37,425.28,287.88,425.28z"/>
					<path class="st18" d="M280.1,414.52c-2.47,0-2.77,3.85-0.28,3.85C282.29,418.37,282.59,414.52,280.1,414.52z"/>
					<path class="st18" d="M269.57,424.59c-2.47,0-2.77,3.85-0.28,3.85C271.76,428.44,272.06,424.59,269.57,424.59z"/>
					<path class="st18" d="M266.13,411.09h-0.46c-1.01,0-2.03,0.69-2.06,1.79c-0.03,0.98,0.71,2.06,1.79,2.06h0.46
						c1.01,0,2.03-0.69,2.06-1.79C267.95,412.17,267.21,411.09,266.13,411.09z"/>
					<path class="st18" d="M327.25,420.93c-2.47,0-2.77,3.85-0.28,3.85C329.44,424.78,329.75,420.93,327.25,420.93z"/>
					<path class="st18" d="M322.45,434.21c-2.47,0-2.77,3.85-0.28,3.85C324.64,438.06,324.94,434.21,322.45,434.21z"/>
					<path class="st18" d="M300.7,435.12c-2.47,0-2.77,3.85-0.28,3.85C302.89,438.97,303.19,435.12,300.7,435.12z"/>
					<path class="st18" d="M279.64,435.12c-2.47,0-2.77,3.85-0.28,3.85C281.83,438.97,282.13,435.12,279.64,435.12z"/>
					<path class="st18" d="M255.38,428.26c-2.47,0-2.77,3.85-0.28,3.85C257.57,432.11,257.87,428.26,255.38,428.26z"/>
					<path class="st18" d="M267.68,443.38c-0.16-0.15-0.31-0.3-0.47-0.45c-0.73-0.69-1.9-0.99-2.72-0.23
						c-0.7,0.65-1.01,1.98-0.23,2.72c0.16,0.15,0.31,0.3,0.47,0.45c0.73,0.69,1.9,0.99,2.72,0.23
						C268.14,445.46,268.46,444.13,267.68,443.38z"/>
					<path class="st18" d="M290.63,444.97h-0.23c-1.01,0-2.03,0.69-2.06,1.79c-0.03,0.98,0.71,2.06,1.79,2.06h0.23
						c1.01,0,2.03-0.69,2.06-1.79C292.44,446.05,291.71,444.97,290.63,444.97z"/>
					<path class="st18" d="M313.06,444.97h-0.69c-1.01,0-2.03,0.69-2.06,1.79c-0.03,0.98,0.71,2.06,1.79,2.06h0.69
						c1.01,0,2.03-0.69,2.06-1.79C314.87,446.05,314.14,444.97,313.06,444.97z"/>
					<path class="st18" d="M335.95,440.62c-2.47,0-2.77,3.85-0.28,3.85C338.14,444.47,338.44,440.62,335.95,440.62z"/>
					<path class="st18" d="M302.99,455.04c-2.47,0-2.77,3.85-0.28,3.85C305.18,458.89,305.48,455.04,302.99,455.04z"/>
					<path class="st18" d="M278.5,452.52c-2.47,0-2.77,3.85-0.28,3.85C280.69,456.37,280.99,452.52,278.5,452.52z"/>
					<path class="st18" d="M248.74,440.62c-2.47,0-2.77,3.85-0.28,3.85C250.93,444.47,251.23,440.62,248.74,440.62z"/>
					<path class="st18" d="M256.52,454.58c-2.47,0-2.77,3.85-0.28,3.85C258.71,458.43,259.01,454.58,256.52,454.58z"/>
					<path class="st18" d="M291.09,465.34c-2.47,0-2.77,3.85-0.28,3.85C293.28,469.19,293.58,465.34,291.09,465.34z"/>
					<path class="st18" d="M317.87,461.9c-2.47,0-2.77,3.85-0.28,3.85C320.06,465.75,320.36,461.9,317.87,461.9z"/>
					<path class="st18" d="M267.74,463.74c-2.47,0-2.77,3.85-0.28,3.85C269.93,467.59,270.23,463.74,267.74,463.74z"/>
					<path class="st18" d="M245.53,461.68c-2.47,0-2.77,3.85-0.28,3.85C247.72,465.53,248.03,461.68,245.53,461.68z"/>
					<path class="st18" d="M305.93,474.87c-2.56,0-2.87,3.99-0.29,3.99C308.2,478.86,308.51,474.87,305.93,474.87z"/>
					<path class="st18" d="M277.7,475.38c-2.56,0-2.87,3.99-0.29,3.99C279.97,479.37,280.28,475.38,277.7,475.38z"/>
					<path class="st18" d="M253.5,472.35h-0.25c-1.04,0-2.11,0.72-2.14,1.85c-0.03,1.02,0.73,2.14,1.85,2.14h0.25
						c1.04,0,2.11-0.72,2.14-1.85C255.38,473.47,254.62,472.35,253.5,472.35z"/>
					<path class="st18" d="M263.84,486.97c-2.56,0-2.87,3.99-0.29,3.99C266.11,490.96,266.42,486.97,263.84,486.97z"/>
					<path class="st18" d="M294.74,488.11c-0.55-1.06-1.6-1.31-2.66-0.96c-0.25,0.08-0.5,0.17-0.76,0.25
						c-1,0.33-1.42,1.78-0.96,2.66c0.55,1.06,1.6,1.31,2.66,0.96c0.25-0.08,0.5-0.17,0.76-0.25
						C294.78,490.44,295.2,488.99,294.74,488.11z"/>
					<path class="st18" d="M319.28,485.71c-2.56,0-2.87,3.99-0.29,3.99C321.56,489.7,321.87,485.71,319.28,485.71z"/>
					<path class="st18" d="M329.62,473.87c-2.56,0-2.87,3.99-0.29,3.99C331.89,477.86,332.2,473.87,329.62,473.87z"/>
					<path class="st18" d="M340.96,485.96c-2.56,0-2.87,3.99-0.29,3.99C343.23,489.95,343.54,485.96,340.96,485.96z"/>
					<path class="st18" d="M243.17,486.22c-2.56,0-2.87,3.99-0.29,3.99C245.44,490.21,245.75,486.22,243.17,486.22z"/>
					<path class="st18" d="M278.46,495.54c-2.56,0-2.87,3.99-0.29,3.99C280.73,499.53,281.04,495.54,278.46,495.54z"/>
					<path class="st18" d="M307.19,495.04c-2.56,0-2.87,3.99-0.29,3.99C309.46,499.03,309.77,495.04,307.19,495.04z"/>
					<path class="st18" d="M331.63,494.53c-2.56,0-2.87,3.99-0.29,3.99C333.9,498.52,334.22,494.53,331.63,494.53z"/>
					<path class="st18" d="M252.24,494.78c-2.56,0-2.87,3.99-0.29,3.99C254.52,498.77,254.83,494.78,252.24,494.78z"/>
				</g>
				<path class="st14" d="M397.62,347.4c1.19-3.37,1.69-6.98,1.47-10.55"/>
				<path class="st14" d="M393.03,341.99c1.17-4.39,1.6-8.99,1.25-13.52"/>
				<path class="st14" d="M388.01,334.31c0.75-3.12,0.96-6.36,0.6-9.55"/>
				<path class="st15" d="M109.38,358.8c5.61,11.65,11.21,23.29,16.82,34.94"/>
				<path class="st14" d="M131.42,404.92c-2.44-0.24-4.94,0.21-7.14,1.29"/>
				<path class="st15" d="M115.51,372.19c3.07-4.47,6.14-8.94,9.21-13.4"/>
				<path class="st14" d="M144.6,397.17c-2-1.38-4.53-1.97-6.94-1.63"/>
				<path class="st14" d="M139.04,399.8c-2.21-0.67-4.59-0.81-6.87-0.42c0.06,0,0.13-0.01,0.19-0.01"/>
				<path class="st14" d="M149.88,394.97c-2.09-2.37-5.21-3.79-8.36-3.81"/>
			</g>
		</g>
	</g>
</g>
</svg>
