<?xml version="1.0" encoding="UTF-8"?>
<svg id="OBJECTS" xmlns="http://www.w3.org/2000/svg" viewBox="0 0 500 500">
  <defs>
    <style>
      .cls-1 {
        fill: #fff;
      }

      .cls-2 {
        fill: #ff5c97;
      }

      .cls-3 {
        fill: #ff76a0;
      }

      .cls-4 {
        fill: #8acdf0;
      }

      .cls-5 {
        fill: #231f20;
      }

      .cls-6 {
        fill: #62bfe8;
      }
    </style>
  </defs>
  <g>
    <path class="cls-4" d="m287.9,85.31c-14.51,33.36-42.64,53.28-62.85,44.5-20.2-8.78-24.82-42.95-10.32-76.31C229.24,20.13,257.38.21,277.58,9c20.2,8.78,24.82,42.95,10.32,76.31Z"/>
    <path class="cls-5" d="m232.81,134.12c-5.6,0-11.01-1.14-16.02-3.48-12.38-5.77-20.77-17.93-23.64-34.24-2.78-15.82,0-33.76,7.81-50.53,7.82-16.76,19.78-30.42,33.68-38.46,14.34-8.29,29.05-9.68,41.43-3.9,10.28,4.79,17.35,13.82,20.84,24.48,2.96,9.06,3.02,18.9,1.1,28.17-.62,2.99-1.27,6.06-2.11,9.04-.19.66-1.12,5.29-2.06,5.32-.87.02,0-5.28.04-5.75.86-9.54.96-19.22-1.58-28.54-.73-2.68-1.69-5.3-2.92-7.79-1.1-2.21-2.37-4.34-3.74-6.39-3.22-4.8-7.42-9.28-12.73-11.76-10.1-4.71-22.36-3.43-34.51,3.6-12.59,7.28-23.47,19.76-30.65,35.15-7.17,15.39-9.74,31.75-7.22,46.07,2.43,13.83,9.33,24.04,19.43,28.75,12.66,5.9,29.95,5.23,44.4-6.78.93-.77,4.95-4.26,7.77-6.04,1.23-.77,1.77-.23.98.98-1.95,2.99-5.58,6.53-6.51,7.3-11.28,9.37-22.23,14.8-33.8,14.8Z"/>
  </g>
  <path class="cls-4" d="m482.05,249.92c.33,19.17-2.37,39.15-7.82,58.68-.03.06-.06.15-.06.21-12.64,45.05-39.93,87.61-78.54,112.09-5.33,3.41-10.9,6.44-16.65,9.11-7.97,3.68-16.89,6.47-26.18,8.18-28.94,5.42-61.67.51-81.89-20.13,10.51-4.28,22.64-5.6,33.91-8.33,15.67-3.8,30.52-10.84,43.4-20.58,5.72-4.31,11.14-9.29,14.62-15.55,19.89-35.85-17.01-73.36-27.08-105.68,0-.03-.03-.09-.03-.12-5.27-17.01-5.84-35.05,4.31-56.37,21.36-44.78,77.64-61.01,118.02-33.4,1.11,1.38,2.19,2.82,3.24,4.28,11.83,16.74,18.66,38.76,20.37,59.55.21,2.73.33,5.42.39,8.06Z"/>
  <path class="cls-6" d="m481.66,241.87c-1.71-20.79-8.54-42.8-20.37-59.55-1.05-1.47-2.13-2.91-3.24-4.28-1.38-.94-2.78-1.83-4.19-2.67,8.51,15.3,13.57,33.49,15,50.86.21,2.73.33,5.42.39,8.06.33,19.17-2.37,39.15-7.82,58.68-.03.06-.06.15-.06.21-12.64,45.05-39.93,87.61-78.54,112.09-5.33,3.41-10.9,6.44-16.65,9.11-7.97,3.68-16.89,6.47-26.18,8.18-21.02,3.94-44.03,2.38-62.81-6.65-2.14.64-4.25,1.33-6.28,2.16,20.22,20.64,52.96,25.55,81.89,20.13,9.29-1.71,18.21-4.49,26.18-8.18,5.75-2.67,11.32-5.69,16.65-9.11,38.61-24.47,65.9-67.04,78.54-112.09,0-.06.03-.15.06-.21,5.45-19.53,8.15-39.51,7.82-58.68-.06-2.64-.18-5.33-.39-8.06Z"/>
  <path class="cls-4" d="m262.76,483.38c2.11,1.68,5.73,4.87,9.89,8.31-4.69,1.04-9.49,1.76-14.44,2.04-3.26.18-6.49.29-9.67.29-37.55,0-70.05-12.65-91.37-23.72-27.09-14.05-53.57-32.32-76.57-52.81-38.05-33.82-61.38-79.87-66.29-127.59-.39-23.58,4.84-46.87,17.31-67.54,2.58-4.3,5.48-8.49,8.71-12.54,34.5-43.28,112.76-43.78,139.02,8.38,13.54,26.84,15.37,58.33,16.8,87.82.93,19.96-.11,40.27,1.54,60.23,3.87,46.22,28.41,87.53,64.14,116.38.32.25.61.5.93.75Z"/>
  <path class="cls-6" d="m199.86,470.31c-27.09-14.05-53.57-32.32-76.57-52.81-38.05-33.82-61.38-79.87-66.29-127.59-.39-23.58,4.84-46.87,17.31-67.54,2.58-4.3,5.48-8.49,8.71-12.54,11.95-14.99,29.15-24.84,47.61-29.15-31.89-7.71-69.24,2.73-90.31,29.15-3.22,4.05-6.13,8.24-8.71,12.54-12.47,20.67-17.7,43.96-17.31,67.54,4.91,47.73,28.23,93.77,66.29,127.59,23,20.49,49.48,38.77,76.57,52.81,21.32,11.07,53.82,23.72,91.37,23.72,3.19,0,6.41-.11,9.67-.29,3.47-.2,6.86-.68,10.2-1.27-27.82-3.69-51.69-13.41-68.55-22.17Z"/>
  <path class="cls-1" d="m423.24,233.26c-8.17,18.8-25.92,29.21-39.64,23.24-13.72-5.97-18.21-26.04-10.04-44.84,8.17-18.8,25.92-29.2,39.64-23.24,13.72,5.97,18.21,26.04,10.04,44.84Z"/>
  <ellipse class="cls-1" cx="328.16" cy="347.85" rx="84.67" ry="61.79" transform="translate(-148.53 386.03) rotate(-51.25)"/>
  <ellipse class="cls-3" cx="315.35" cy="346.94" rx="74.71" ry="54.51" transform="translate(-152.61 375.69) rotate(-51.25)"/>
  <path class="cls-2" d="m362.11,288.68c-1.5-1.21-3.08-2.29-4.71-3.25,12.91,21.2,8.16,54.64-13.52,81.66-24.17,30.12-60.74,41.51-84.57,27.39,2.47,4.05,5.51,7.7,9.27,10.72,23.48,18.85,63.45,8.04,89.28-24.14,25.83-32.18,27.73-73.54,4.25-92.38Z"/>
  <path class="cls-5" d="m265.59,500c-41.9,0-83.71-10.52-125.07-31.55-25.86-13.15-49.22-29.88-69.41-49.74C-9.12,339.88,3.38,260.28,17.98,219.85c15.83-43.73,53.24-75.22,97.61-82.2,82.22-12.91,140.37,57.66,156.42,79.84,12.19-23.4,29.56-43.83,49.48-58.06,44.71-31.94,107.55-24.85,140.07,15.8,1.15,1.44,2.28,2.94,3.38,4.47,11.59,16.42,19.31,38.93,21.19,61.8.2,2.66.33,5.38.4,8.32.33,19.64-2.35,39.82-7.99,59.99,0,.03-.02.07-.03.1,0,.04-.02.08-.03.12-13.81,49.22-43.14,91.01-80.46,114.66-5.36,3.43-11.14,6.6-17.17,9.39-8.35,3.86-17.52,6.73-27.26,8.52-34.37,6.43-66.48-1.57-85.91-21.41-4.98-5.05-9.14-10.9-12.35-17.39-20.65-41.68,3.75-95.82,38.21-122.08,12.15-9.26,26.45-15.61,41.36-18.34.05,0,.11-.02.16-.03.03,0,.06,0,.09-.01,1.36-.23,2.73-.45,4.09-.58,30.07-3.88,53.66,10.03,61.49,36.32,6.15,20.54,2.95,36.06-4.36,54.92-6.43,16.61-19.38,32.48-20.44,32.43-1.16-.06,9.39-15.39,14.53-30.05,5.91-16.87,7.13-36.46,1.66-54.72-7.76-26.03-31.89-32.54-51.89-29.96-1.3.13-2.45.32-3.6.51-.03,0-.06,0-.15.02-13.51,2.48-26.48,8.24-37.49,16.64-31.75,24.2-53.63,74.56-35.6,110.95,2.78,5.63,6.39,10.7,10.7,15.07,20.43,20.85,53.62,23.42,77.87,18.87,9.01-1.66,17.45-4.29,25.12-7.84,5.66-2.62,11.08-5.59,16.12-8.81,35.49-22.49,63.42-62.41,76.64-109.52.02-.07.04-.14.06-.2,5.4-19.34,7.97-38.65,7.65-57.39-.06-2.76-.19-5.31-.38-7.79-1.75-21.29-8.88-42.18-19.56-57.3-.98-1.37-2.01-2.75-3.07-4.06-29.6-36.99-86.95-43.32-127.84-14.1-20.64,14.74-38.39,36.58-50,61.5-.7,1.5-2.16,2.49-3.81,2.59-1.66.1-3.22-.72-4.09-2.12-.6-.97-60.98-96.45-151.84-82.19-41.14,6.47-75.84,35.73-90.56,76.38-13.86,38.4-25.68,114.08,50.98,189.39,19.54,19.22,42.14,35.41,67.18,48.14,74.04,37.64,149.53,40.49,224.35,8.47,24.38-10.44,47.17-24.63,67.04-42.21,10.31-9.13,19.83-19.17,28.35-29.99,7.56-9.61,13.97-20.02,21.11-29.94.55-.77,5.79-8.74,7.21-7.75,1.65,1.15-12.84,24.12-14.33,26.39-13.54,20.73-29.73,39.89-48.55,56.02-17.15,14.75-36.49,26.83-57.29,35.74-35.56,15.22-71.26,22.82-106.89,22.82Z"/>
  <g>
    <path class="cls-1" d="m423.97,232.9c-8.51,19.58-26.99,30.41-41.28,24.2-14.28-6.21-18.96-27.12-10.45-46.69,8.51-19.58,26.99-30.41,41.28-24.2,14.28,6.21,18.96,27.12,10.45,46.69Z"/>
    <path class="cls-3" d="m417.25,229.98c-7.44,17.11-23.6,26.59-36.09,21.15-12.49-5.43-16.58-23.71-9.14-40.82,7.44-17.11,23.6-26.58,36.09-21.15,12.49,5.43,16.58,23.71,9.14,40.82Z"/>
    <path class="cls-5" d="m405.67,183.05c3.47-.08,6.84.51,9.98,1.8,7.75,3.2,13.13,10.21,15.13,19.73,1.95,9.23.48,19.8-4.13,29.74-4.61,9.94-11.83,18.13-20.34,23.05-8.77,5.07-17.87,6.1-25.63,2.9-6.44-2.66-10.95-7.84-13.26-14.04-1.96-5.27-2.14-11.04-1.08-16.5.34-1.76.7-3.57,1.18-5.33.11-.39.62-3.12,1.2-3.15.54-.03.07,3.1.05,3.37-.4,5.6-.32,11.28,1.38,16.71.49,1.56,1.12,3.08,1.92,4.52.71,1.28,1.53,2.51,2.41,3.69,2.06,2.77,4.73,5.33,8.06,6.7,6.33,2.61,13.91,1.68,21.35-2.62,7.7-4.46,14.27-11.94,18.5-21.06,4.23-9.13,5.59-18.76,3.83-27.12-1.7-8.07-6.12-13.96-12.45-16.57-7.93-3.27-18.64-2.62-27.43,4.63-.57.46-3.01,2.57-4.73,3.66-.75.47-1.1.16-.62-.56,1.16-1.78,3.37-3.91,3.93-4.38,6.86-5.66,13.57-9,20.74-9.18Z"/>
  </g>
</svg>