<?xml version="1.0" encoding="UTF-8"?>
<svg id="OBJECTS" xmlns="http://www.w3.org/2000/svg" viewBox="0 0 500 500">
  <defs>
    <style>
      .cls-1 {
        fill: #ffbc00;
      }

      .cls-2 {
        fill: #ffd030;
      }

      .cls-3 {
        fill: #8acdf0;
      }

      .cls-4 {
        fill: #231f20;
      }

      .cls-5 {
        fill: #62bfe8;
      }
    </style>
  </defs>
  <g>
    <path class="cls-3" d="m186.38,116.41c-5.51,30.77-25.08,53.01-43.72,49.68-18.64-3.34-29.28-30.99-23.77-61.76,5.51-30.77,25.08-53.01,43.72-49.68,18.64,3.34,29.28,30.99,23.77,61.76Z"/>
    <path class="cls-4" d="m150.01,168.16c-4.68,1.11-9.43,1.23-14.08.27-11.5-2.37-20.93-10.87-26.56-23.94-5.46-12.68-6.71-28.23-3.5-43.8,3.21-15.57,10.5-29.36,20.53-38.84,10.34-9.78,22.37-13.86,33.87-11.48,9.55,1.97,17.25,8.11,22.28,16.33,4.27,6.98,6.28,15.2,6.51,23.34.07,2.63.14,5.32.03,7.98-.02.59.11,4.65-.66,4.85-.72.19-1.05-4.42-1.11-4.81-1.18-8.14-3.01-16.26-6.98-23.55-1.14-2.1-2.46-4.1-3.99-5.93-1.36-1.63-2.84-3.16-4.4-4.6-3.64-3.38-8.05-6.29-12.98-7.3-9.38-1.93-19.37,1.57-28.15,9.86-9.08,8.59-15.7,21.18-18.65,35.47-2.94,14.29-1.84,28.48,3.1,39.95,4.78,11.08,12.57,18.25,21.95,20.19,11.75,2.42,26.08-1.57,35.78-14.48.62-.83,3.29-4.54,5.3-6.59.87-.89,1.44-.55,1.02.63-1.03,2.89-3.37,6.57-3.99,7.4-7.57,10.07-15.65,16.78-25.32,19.08Z"/>
  </g>
  <g>
    <ellipse class="cls-2" cx="267.16" cy="71.33" rx="35.63" ry="57.23" transform="translate(-6.96 107.65) rotate(-22.5)"/>
    <path class="cls-4" d="m238.77,12.19c3.91-3.83,8.46-6.73,13.55-8.52,12.59-4.44,26.76-1.69,39.91,7.73,12.76,9.14,23.09,23.56,29.1,40.6,6.01,17.04,7,34.76,2.79,49.87-4.34,15.59-13.66,26.62-26.24,31.05-10.45,3.68-21.56,2.22-31.28-2.84-8.26-4.29-15.03-11.12-20.03-18.91-1.61-2.51-3.26-5.1-4.71-7.75-.32-.59-2.83-4.46-2.2-5.12.59-.61,3.61,3.69,3.9,4.04,5.92,7.24,12.47,14.07,20.61,18.84,2.34,1.37,4.8,2.55,7.36,3.43,2.28.79,4.62,1.41,6.98,1.9,5.53,1.15,11.53,1.4,16.92-.5,10.27-3.62,17.95-12.89,21.63-26.11,3.81-13.69,2.87-29.84-2.64-45.48-5.52-15.64-14.91-28.81-26.46-37.09-11.15-7.99-22.95-10.4-33.22-6.78-12.87,4.54-24.48,16.83-26.35,35.09-.12,1.17-.54,6.36-1.29,9.53-.33,1.38-1.08,1.37-1.36-.01-.69-3.42-.57-8.37-.45-9.54,1.47-14.25,5.4-25.52,13.47-33.44Z"/>
  </g>
  <path class="cls-2" d="m260.31,498.41c12.57-7.66,20.75-25.15,29.04-36.93,16.68-23.71,35.91-73.23,36.64-91.32,2.79-69.07-64.27-110.17-27.56-175.87,26.35-47.16,89.36-60.1,130.41-25.36,33.91,28.7,37.71,85.2,23.23,127.39-19.88,57.93-64.37,124.52-191.75,202.09Z"/>
  <path class="cls-1" d="m417.81,268.71c-9.95,59.14-41.88,130.34-149.3,224.63,121.07-75.4,164.11-140.35,183.55-197.01,14.48-42.19,10.67-98.69-23.23-127.39-14.97-12.67-32.86-18.97-50.83-19.61,35.12,24.11,46.96,76.93,39.82,119.39Z"/>
  <path class="cls-3" d="m166.44,438.03c1.01,1.39,2.69,3.96,4.65,6.77-3.05-.16-6.11-.53-9.19-1.2-2.03-.44-4.02-.92-5.98-1.46-23.01-6.36-40.77-19.62-51.96-30.01-14.22-13.19-27.34-28.88-37.96-45.33-17.58-27.17-24.07-59.33-18.99-89.4,3.75-14.51,10.9-27.89,22.05-38.45,2.31-2.2,4.8-4.27,7.46-6.21,28.47-20.67,76.5-7.72,83.75,28.69,3.75,18.74-.47,38.34-4.58,56.65-2.81,12.39-6.89,24.66-9.26,37.16-5.46,28.97,2.58,58.44,19.58,82.17.15.21.29.41.44.62Z"/>
  <path class="cls-5" d="m165.99,437.41c-4.83-6.74-8.91-13.96-12.19-21.48-9.99-5.85-18.2-12.47-24.39-18.23-14.22-13.19-27.34-28.88-37.96-45.33-17.58-27.17-24.07-59.33-18.99-89.4,3.75-14.51,10.9-27.89,22.05-38.45h0c-6.43,1.57-12.57,4.28-18,8.22-2.66,1.93-5.15,4.01-7.46,6.21-11.14,10.55-18.29,23.94-22.05,38.45-5.08,30.07,1.41,62.23,18.99,89.4,10.62,16.45,23.75,32.14,37.96,45.33,11.19,10.4,28.95,23.65,51.96,30.01,1.95.54,3.95,1.02,5.98,1.46,3.08.66,6.14,1.04,9.19,1.2-1.96-2.81-3.64-5.38-4.65-6.77-.16-.21-.29-.41-.44-.62Z"/>
  <path class="cls-4" d="m255.73,499.89c-1.27-2.04,23.02-16.33,28.6-20.01,36.08-23.77,56.38-45.11,82.32-71.07,38.62-38.65,123.14-137.38,74.05-219.15-15.94-26.55-47.05-43.93-79.26-44.27-44.04-.43-91.97,23.55-119.2,59.75-1.96,2.61-3.93,5.25-5.87,7.91,3.3,2.22,6.48,4.54,9.54,6.94,15.27,12.02,26.85,26.92,33.48,43.09,4.86,11.84,6.37,22.9,4.5,32.86-3.12,16.62-16.84,30.77-33.35,34.41-16.51,3.65-34.9-3.42-44.73-17.18-8.51-11.92-11.06-28.7-7-46.03,4.4-18.8,14.11-35.77,25.09-51.61-40.38-23.76-96.6-32.85-136.24-5.3-21.56,14.99-36.59,38.51-41.24,64.55-15.82,88.67,62.39,141.07,102.78,161.05,13.21,6.54,31.42,11.91,31.2,13.46-.23,1.59-25.93-5.22-39.91-12.13-13.88-6.86-27.37-12.36-44.88-26.52-47.04-38.04-67.01-85.55-57.77-137.39,5.05-28.3,21.39-53.88,44.84-70.17,43.45-30.19,102.89-20.8,146.32,5.29,2.08-2.85,4.18-5.67,6.27-8.46,28.54-37.95,78.58-63.23,124.91-63.23.45,0,.89,0,1.34,0,35.17.37,69.17,19.41,86.64,48.49,52.25,87.04-35.29,189.7-75.36,229.8-26.44,26.47-49.63,45.48-92.11,72.17-5.6,3.52-24.15,14.07-24.97,12.74Zm-24.43-279.73c-10.57,15.21-19.89,31.4-24,48.96-3.49,14.89-1.44,29.1,5.61,38.98,7.86,11,22.56,16.66,35.76,13.74,13.2-2.91,24.17-14.23,26.66-27.51,1.56-8.28.21-17.68-4-27.94-6.06-14.78-16.72-28.46-30.81-39.55-2.94-2.31-6.01-4.54-9.22-6.68Z"/>
</svg>