<?xml version="1.0" encoding="utf-8"?>
<!-- Generator: Adobe Illustrator 27.6.1, SVG Export Plug-In . SVG Version: 6.00 Build 0)  -->
<svg version="1.1" id="_x3C_Layer_x3E_" xmlns="http://www.w3.org/2000/svg" xmlns:xlink="http://www.w3.org/1999/xlink" x="0px"
	 y="0px" viewBox="0 0 2975 1700" style="enable-background:new 0 0 2975 1700;" xml:space="preserve">
<style type="text/css">
	.st0{fill:#FFFFFF;}
	.st1{fill:#FBECDB;}
	.st2{fill:#A8D29F;}
	.st3{fill:#4A75CB;}
	.st4{fill:#699DEE;}
	.st5{fill:#D86713;}
	.st6{fill:#F1A34F;}
	.st7{fill:#C95C12;}
	.st8{fill:#82B378;}
	.st9{fill:#FFB973;}
	.st10{fill:#ED975D;}
	.st11{fill:#2B478B;}
	.st12{fill:#233862;}
	.st13{fill:#1E3D70;}
	.st14{fill:#FFB27D;}
	.st15{fill:#2C3A64;}
	.st16{fill:#4A82D3;}
	.st17{fill:#A9453D;}
	.st18{fill:#EE9849;}
	.st19{fill:#E58638;}
	.st20{fill:#2A4E96;}
	.st21{fill:#35488B;}
	.st22{fill:#2E3552;}
	.st23{fill:#4271BC;}
</style>
<rect class="st0" width="2975" height="1700"/>
<g>
	<g>
		<path class="st1" d="M327.57,1532.46c0,0-282.69-602,274.46-602c294.38,0,173.11-165.17,373.25-356.32
			C1175.41,383,1875.34,230.28,2024.31,599.4c148.97,369.12-219.19,649.37,136.56,601.29c427.51-57.77,596.39,331.77,596.39,331.77
			H327.57z"/>
		<path class="st2" d="M2617.08,1456.08c-26.38-19.28-80.28-6.26-120.07,7.66c-5.94-8.35-13.15-16.96-21.87-25.37
			c85.71-55.21,204.08-172.95,141.34-182.92c-54.54-8.66-128.14,97.32-167.48,161.83c-40.85-27.48-103.44-47.68-199-40.67
			c-248.01,18.18-441.76-141.79-584.58-88.44c-113.55,42.42-217.62,66.19-317.98,58.07c4.32-73.32,5.26-217.27-52.32-232.2
			c-58.45-15.16-1.12,148.32,30.75,229.95c-7.48-0.96-14.94-2.1-22.38-3.42c-20.63-40.68-54.63-93.92-91.97-95.75
			c-35.16-1.71,8.23,46.15,50.94,86.7c-122.73-25.77-268.32,74-270.74,191.96h1532.26c0,0-2.71-17.22-14.74-39.92
			C2568.47,1482.4,2645.73,1477.02,2617.08,1456.08z"/>
		<g>
			<g>
				<rect x="922.12" y="1432.31" class="st3" width="403.85" height="91.19"/>
				<rect x="797.6" y="1432.31" class="st4" width="403.84" height="91.2"/>
			</g>
		</g>
		<g>
			<g>
				<g>
					
						<rect x="1484.83" y="1103.17" transform="matrix(-1 -1.224647e-16 1.224647e-16 -1 3270.377 2626.6494)" class="st5" width="300.71" height="420.31"/>
					
						<rect x="1392.12" y="1103.17" transform="matrix(-1 -1.224647e-16 1.224647e-16 -1 3084.9385 2626.6494)" class="st6" width="300.71" height="420.31"/>
				</g>
			</g>
			<polygon class="st7" points="1692.82,1103.17 1785.54,1166.28 1785.54,1103.17 			"/>
		</g>
		<g>
			<path class="st8" d="M764.56,1196.27c0,0-56.24,41.82-67.2,39.28c-10.97-2.54,41.1-45.14,41.1-45.14
				c-19.59-9.42-80.49-3.51-80.49-3.51s-20.29,65.42-30.29,60.26c-10-5.16,20.92-57.01,20.92-57.01
				c-21.82-1.32-48.58,14.89-48.58,14.89c-36.64,28.93,2.41,74.49,2.41,74.49s-7.52,22.52-30.66,43.03c0,0-33.04,24.44-35.34,68.1
				l6,0.54c0,0,9.51-40.67,26.79-59.9c0.67-0.7,1.65-1.7,2.85-2.91c2.82-2.61,4.79-4.56,6.11-6.02c8.6-8.26,20.48-18.79,26.21-19.81
				c0,0-0.29-1.05-0.24-2.88c0.08,0.92,0.16,1.87,0.24,2.88c1.96,23.02,46.63,43.13,74.11,47.26c27.48,4.13,18.98-7.16,9.52-23.91
				c-9.47-16.75-39.43-24.24-46.27-31.96c-6.84-7.71,7.3-7.73,23.85-0.17c16.55,7.56,18.82,27.72,45.38,40.44
				c26.56,12.72,66.52-31.35,66.52-31.35c-21.17-1.07-51.39-24.06-50.3-31.09c1.09-7.03,51.31,12.13,59.89,13.05
				c8.58,0.92,28.12-9.76,31.14-44.34C821.24,1205.92,764.56,1196.27,764.56,1196.27z"/>
			<g>
				<path class="st2" d="M465.9,1222.24c0,0,62.11-34.78,33.13-81.99c0,0-23.19-28.99-48.03-36.44c0,0,13.25,70.4,0,72.05
					c-13.25,1.66-9.11-79.5-9.11-79.5s-65.43-31.47-91.1-28.99c0,0,40.58,68.74,27.33,67.08c-13.25-1.66-58.8-71.22-58.8-71.22
					s-67.08-12.42-77.85,27.33c-10.77,39.75,6.62,59.63,16.56,62.11c9.94,2.48,73.71,1.66,72.05,9.94
					c-1.66,8.28-44.72,21.53-68.74,14.08c0,0,26.5,65.43,61.29,62.11c34.78-3.31,45.55-24.85,67.08-26.5s37.27,4.14,26.5,9.94
					c-10.77,5.8-47.21,1.9-64.6,16.68c-17.39,14.79-31.47,23.9,0.83,30.52c32.3,6.63,90.27,2.48,101.86-22.36
					C465.9,1222.24,465.9,1222.24,465.9,1222.24z"/>
				<path class="st8" d="M482.46,1282.69c-17.39-32.3-16.56-60.46-16.56-60.46c-19.88-62.94-193.79-119.26-193.79-119.26
					c221.12,89.44,182.2,144.1,182.2,144.1c5.96,3.48,14.89,20.05,21.1,32.77c0.88,2.16,2.28,5.16,4.36,9.22l0,0
					c0.84,1.84,1.52,3.34,1.98,4.39c11.38,28.49,5.35,77.68,5.35,77.68l6.9,1.85C509.28,1323.42,482.46,1282.69,482.46,1282.69z"/>
			</g>
			<g>
				<path class="st2" d="M564.71,1174.27c0,0-81.88-45.85-43.67-108.08c0,0,30.57-38.21,63.32-48.03c0,0-17.47,92.79,0,94.98
					c17.47,2.18,12.01-104.8,12.01-104.8s86.24-41.48,120.09-38.21c0,0-53.49,90.61-36.03,88.43c17.47-2.18,77.51-93.88,77.51-93.88
					s88.43-16.38,102.62,36.03c14.19,52.4-8.73,78.6-21.83,81.88c-13.1,3.28-97.16,2.18-94.98,13.1s58.95,28.38,90.61,18.56
					c0,0-34.93,86.24-80.78,81.88c-45.85-4.37-60.04-32.75-88.43-34.93s-49.13,5.46-34.93,13.1c14.19,7.64,62.23,2.5,85.15,21.99
					c22.92,19.49,41.48,31.5-1.09,40.23c-42.57,8.73-118.99,3.28-134.28-29.48C564.71,1174.27,564.71,1174.27,564.71,1174.27z"/>
				<path class="st8" d="M820.17,1017.06c0,0-229.25,74.23-255.45,157.2c0,0,1.09,37.12-21.83,79.69c0,0-35.35,53.69-15.2,119.04
					l9.1-2.44c0,0-7.95-64.84,7.06-102.39c0.61-1.38,1.5-3.37,2.61-5.79c0,0,0,0,0,0c2.74-5.36,4.58-9.31,5.75-12.16
					c8.17-16.76,19.95-38.61,27.81-43.19C580,1207.02,528.69,1134.97,820.17,1017.06z"/>
			</g>
			<path class="st6" d="M561.96,1514.72c88.58,0,160.38-71.81,160.38-160.38H401.57C401.57,1442.92,473.38,1514.72,561.96,1514.72z"
				/>
			<path class="st9" d="M601.42,1513.5c-6.52,0.81-13.17,1.23-19.93,1.23c-88.57,0-160.37-71.81-160.37-160.38h39.84
				C460.96,1436.17,522.25,1503.68,601.42,1513.5z"/>
			<path class="st6" d="M704.77,1503.69H419.14c-10.93,0-19.79,8.86-19.79,19.79h325.2
				C724.55,1512.55,715.69,1503.69,704.77,1503.69z"/>
			<path class="st5" d="M723.53,1354.34H398.76c-1.36,0-2.46,1.1-2.46,2.46s1.1,2.46,2.46,2.46h324.77c1.36,0,2.46-1.1,2.46-2.46
				S724.88,1354.34,723.53,1354.34z"/>
		</g>
		<g>
			<path class="st10" d="M1961.13,509.78c-4.65-0.71-18.66,12.25-18.66,12.25l0,0c-29.91,3.46-73.65,11.4-89.39,14.43
				c-11.16,2.15-41.17-8.08-70.49-19.83c-34.87-13.98-68.75-30.1-68.75-30.1c-19.35-0.99-41.32,34.31-2.08,56.76
				c5.99,3.43,28.5,9.27,54.41,14.61c0,0,0,0,0.01,0c35.75,7.37,77.98,13.76,92.36,11.51c16.7-2.61,63.97-19.9,92.09-33.15v0
				c0,0,0.03-0.01,0.07-0.04c0.11-0.05,0.21-0.1,0.31-0.15c1.69-0.79,8.57-3.85,13.16-3.58c5.27,0.31,17-9.33,17.36-11.9
				C1981.88,518.01,1965.78,510.48,1961.13,509.78z"/>
			<path class="st11" d="M1924.61,954.46l-16.47,3.35c0,0-75.37-84.68-87-120.32c-6.22-19.04-46.01-27.27-87.6-38.02
				c-36.19-9.36-73.74-20.63-91.68-42.63c-38.55-47.26,24.21-105.34,24.21-105.34s66.72,39.66,124.29,80.62
				c40.23,28.63,75.99,57.9,81.38,74.72C1884.83,847.76,1912.58,925.52,1924.61,954.46z"/>
			<path class="st12" d="M1902.56,982.4h9.26c3.1-0.49,5.39-1.39,8.58-1.8c4.83-0.63,7.06,1.35,7.5,1.8
				c0.06,0.06,0.09,0.09,0.09,0.09h39.35c0.99-1.41,0.04-4.69-0.89-7.1c-0.63-1.64-1.99-2.88-3.68-3.37
				c-4.17-1.21-12.4-2.29-19.93-9.11c-4.24-3.83-20.47-14.08-20.47-14.08l-0.09-0.02c-0.36,0.01-2.05,0.53-9.44,6.76
				c-3.82,3.22-10.32-4.54-10.32-4.54s-1.22,1.01-2.13,2.89c-0.73,1.49-1.27,3.53-0.85,6.04c0.59,3.55-1.31,10.14-2.82,14.59
				c-0.92,2.7-1.69,4.62-1.69,4.62S1894.59,981.4,1902.56,982.4z"/>
			<path class="st13" d="M1790.36,732.13l-56.82,67.35c-36.19-9.36-73.74-20.63-91.68-42.63c-38.55-47.26,24.21-105.34,24.21-105.34
				S1732.8,691.16,1790.36,732.13z"/>
			<path class="st11" d="M1738.73,696.95c0,0-4.58,14.44-12.04,36.17c-9.43,27.48-23.47,66.6-38.71,102.88
				c-3.35,7.97-6.75,15.81-10.18,23.36c-12.67,27.92-25.64,51.85-37.05,64.02c-20.52,21.87-70.39,162.43-70.39,162.43l-12.43-3.44
				c0,0-17.33-120.03,44.05-188.33c0.66-0.73,1.17-1.57,1.24-2.55c0.01-0.01,0.01-0.02,0.01-0.03
				c0.82-10.11,3.74-55.39,10.09-101.26c1.56-11.26,3.33-22.54,5.32-33.35c0.12-0.69,0.26-1.38,0.38-2.06
				c9.34-50,18.28-72.24,29.82-83.42l84.86,24.16L1738.73,696.95z"/>
			<path class="st12" d="M1556.54,1103.08h9.26c3.1-0.49,5.39-1.39,8.58-1.8c4.83-0.63,7.06,1.35,7.5,1.8
				c0.06,0.06,0.09,0.09,0.09,0.09h39.35c0.99-1.41,0.04-4.69-0.89-7.1c-0.63-1.64-1.99-2.88-3.68-3.37
				c-4.17-1.21-12.4-2.28-19.93-9.1c-4.24-3.83-20.47-14.08-20.47-14.08l-0.09-0.02c-0.36,0.01-2.05,0.53-9.44,6.76
				c-3.82,3.22-10.32-4.54-10.32-4.54s-1.22,1.01-2.13,2.89c-0.73,1.48-1.27,3.53-0.84,6.04c0.59,3.55-1.31,10.14-2.82,14.59
				c-0.92,2.7-1.69,4.62-1.69,4.62S1548.57,1102.08,1556.54,1103.08z"/>
			<path class="st14" d="M1574.74,533.71c0,0-14.2,34.74-30.57,68.55c-13.77,28.43-29.07,56.2-38.77,62.12
				c-13.68,8.36-51.36,31.93-75.81,49.51c0,0-19.08-0.14-22.04,3.51c-2.96,3.65-9.8,20.06-7.81,21.72c2,1.66,17.16,0.89,20.85-2.89
				c3.21-3.29,10.37-5.66,12.15-6.21c0.11-0.03,0.22-0.07,0.33-0.1c0.05-0.01,0.08-0.02,0.08-0.02v0
				c29.71-9.14,76.3-28.18,90.4-37.49c12.14-8.02,39.07-41.18,60.54-70.69c0.01,0,0.01,0,0.01,0
				c15.57-21.39,28.27-40.87,30.39-47.44C1628.4,531.26,1588.38,519.95,1574.74,533.71z"/>
			<path class="st15" d="M1649,397.49c-1.69-2.46-3.39-4.63-5.09-6.57c2.1,0.04,4.38-0.16,6.27-0.94
				c4.98-2.06,7.26-17.88,6.51-22.58c-0.75-4.69-7.67-18.26-16.21-19.62c-8.54-1.35-17.36,8.13-17.36,8.13
				c1.58-6.84,16.02-10.79,16.02-10.79c-29.75,5.49-28.24,25.33-28.03,27.16c-27.24-9.7-43.22,41.59-43.22,41.59l70.55,41.57
				c0,0,0.18-11.33,6.92-10.6C1655.85,445.99,1664.59,420.21,1649,397.49z"/>
			<path class="st14" d="M1653.5,505.11c-16.19,7.63-37.67-3.36-37.55-3.48c1.39-1.39,0.9-5.54-0.37-10.98
				c-1.27-5.67-4.28-13.41-9.83-22.66c-1.16-1.97-2.31-3.93-3.7-6.01l1.85-0.69l31.45-12.6c0,0,5.09,9.13,10.41,17.46
				c4.51,6.94,9.25,13.18,11.33,12.95C1657.2,478.98,1678.01,493.32,1653.5,505.11z"/>
			<path class="st10" d="M1635.34,451.81c-0.81,11.21-4.62,31.45-19.77,38.85c-1.27-5.67-4.28-13.41-9.83-22.66L1635.34,451.81z"/>
			<path class="st14" d="M1603.9,480.76c0,0,40.94-16.14,30.5-41.48c-10.44-25.34-12.19-44.49-38.77-35.26
				c-26.58,9.23-27.65,20.98-26.22,30.29C1570.84,443.61,1592.98,484.3,1603.9,480.76z"/>
			<path class="st15" d="M1619.17,433.5c18.9-2.67,24.42-10.31,24.42-10.31s-17.41-5-27.64-22.05c0,0-21.25-7.17-37,4.81
				c-0.96,1.25-1.65,2.71-1.99,4.44c-3.61-1.18-9.04-0.88-12.17,9.33c-4.71,15.32,12.03,32.06,12.03,32.06
				c4.06-1.15-0.52-14.8-1.16-22.09c-0.47-5.36,2.42-12.23,3.98-15.49c2,2.6,21.95,27.66,46.3,28.66c0,0-12.86-4.46-24.57-13.19
				C1607.21,432.53,1613.4,434.31,1619.17,433.5z"/>
			<path class="st4" d="M1731.45,557.33c-0.35-1.22-0.72-2.49-1.11-3.79c6.08-11.62,9.07-22.1,10.33-30.96
				c2.78-18.73-1.96-30.29-1.96-30.29s-28.4-15.06-40.94-16.98c-0.05-0.02-0.11-0.04-0.16-0.05c-0.15-0.02-0.32-0.04-0.5-0.05
				c-12.66-1.75-40.06,3.85-40.06,3.85s5.29,14.07-9.63,23.46c-14.91,9.38-30.84-2.4-30.84-2.4c-0.48,0.32-0.99,0.68-1.52,1.05
				c0,0,0,0,0,0c0,0-39.24,25.89-42.77,31.81c-3.52,5.92-18.62,35.21-18.62,35.21s4.79,24.6,57.8,26.65
				c4.36,10.57,7.69,20.88,8.78,29.48c4.21,33.39-0.68,59.72,4.23,79.21c4.91,19.49,93.36,8.38,109.38,4.63
				c16.02-3.75,12.42-20.85,13.65-37.47C1749.06,649.8,1736.67,575.74,1731.45,557.33z"/>
			<path class="st16" d="M1740.67,522.57c-1.27,8.9-4.28,19.42-10.41,31.1c-1.39-6.13-7.05-28.56-16.19-38.73
				C1714.08,514.94,1729.46,516.33,1740.67,522.57z"/>
		</g>
		<g>
			<path class="st10" d="M1380.52,741.38c0,0,16.48-19.97,20.03-22.33c3.55-2.36,19.11-6.5,20-5.67c0.89,0.83,0.93,2.04-1,3.74
				c-1.93,1.7-9.29,6-8.24,6.48c1.05,0.48,23.26-10.57,26.46-6.85c3.2,3.72-1.81,19.07-10.37,26.43s-34.1,10.5-35.71,11.52
				C1378.07,763.42,1380.52,741.38,1380.52,741.38z"/>
			<path class="st14" d="M1090.39,695.27c0,0,23.67,28.09,53.82,16.34c0,0,6.49-15.69,6.58-27.25c0.01-1.42,0.03-2.8,0.05-4.11
				c0.16-13.02,0.6-20.33,0.6-20.33s-0.01,0-0.03-0.01c-1.37-0.57-46.09-18.93-46.05-17.41
				C1106.13,677.72,1090.39,695.27,1090.39,695.27z"/>
			<path class="st10" d="M1109.85,650.9c4.31,7.99,19.11,23.63,40.99,29.34c0.16-13.02,0.6-20.33,0.6-20.33s-0.01,0-0.03-0.01
				C1150.17,659.58,1108.57,648.54,1109.85,650.9z"/>
			<path class="st14" d="M1160.81,658.56c0,0-50.29,11.82-57.17-19.61c-6.88-31.43-18-51.07,13.81-59.95
				c31.82-8.88,40.7,1.75,45.55,11.68C1167.85,600.62,1173.71,654.68,1160.81,658.56z"/>
			<path class="st17" d="M1105.36,647.52c-0.69,0.44-11.51,3.76-32-37.06c-3.22-6.41-5.41-20.27,2.09-32.52
				c7.5-12.25,34.09-21.88,56.18-26.07c22.09-4.19,27.39,8.24,32.6,20.73c5.46,13.11,21.23,23.91,21.23,23.91
				c-19.05,10.64-41.99-4.58-49.94-2.08c-7.95,2.5-10.76,15.03-11.35,19.05c-0.6,4.01-1.51,7.35-11.51,3.76
				c-10-3.59-4.52,14.17-2.92,17.56C1109.73,634.8,1111.09,643.84,1105.36,647.52z"/>
			<g>
				<path class="st15" d="M975.82,1432.31h-30.45c-6.38,0-13.48-6.48-15.25-18.33c-1.78-11.87-14.9-18.33-17.74-28.04
					c-2.84-9.71,11.71-23.37,11.71-23.37l2.43-3.17l2.53-3.3l24.12,5.75c0,0,0.59,5.82,0.97,13.23c0.26,5.35,0.4,11.54,0.1,16.97
					c-0.71,12.95,3.58,26.88,14.92,29.4C980.51,1423.96,975.82,1432.31,975.82,1432.31z"/>
				<path class="st15" d="M1187.79,1432.6h-80.71c-0.77-0.16-1.36-0.33-1.71-0.51c-5.39-2.78-3.7-24.02-3.05-30.58
					c0.12-1.21,0.21-1.93,0.21-1.93s28.38-23.37,32.29-5.48c0.12,0.56,0.27,1.11,0.42,1.65v0.01c4.93,16.75,26.95,24.35,39.67,26.47
					C1184.63,1423.86,1187.15,1429.69,1187.79,1432.6z"/>
				<path class="st18" d="M1171.53,965.85c0,0-4.31,53.78-9.38,118.42c-6.89,87.82-15.17,195.68-15.99,216.11
					c-1.42,35.48-7.1,92.24-7.1,92.24s-13.47,13.48-40.44,7.8c0,0-24.03-81.02-30.9-166.75c-0.11-1.41-0.21-2.82-0.32-4.24
					c-6.38-87.27-16.32-271.04-16.32-271.04L1171.53,965.85z"/>
				<path class="st19" d="M1171.53,965.85c0,0-4.31,53.78-9.38,118.42l-94.42,149.41c-0.11-1.41-0.21-2.82-0.32-4.24
					c-6.38-87.27-16.32-271.04-16.32-271.04L1171.53,965.85z"/>
				<path class="st18" d="M1151.84,972.24c0,0-77.69,194.76-128.78,286.29c-51.08,91.53-67.05,117.07-67.05,117.07
					s-29.27-11.71-31.93-19.69c0,0,19.54-176.7,53.75-219.78c19.33-24.34,42.04-97.38,43.1-122.92c1.06-25.54,6.92-76.1,6.92-76.1
					L1151.84,972.24z"/>
			</g>
			<g>
				<path class="st10" d="M973.96,939.8c0,0-2.01,24.32-3.49,28.06c-1.47,3.73-11.3,15.31-12.43,15.15s-1.82-1.08-1.24-3.43
					c0.58-2.36,3.96-9.64,2.89-9.45c-1.07,0.19-12.32,20.7-16.79,19.54c-4.48-1.16-8.86-15.74-6.19-26.04
					c2.67-10.3,20.75-26.47,21.44-28.13C964,921.43,973.96,939.8,973.96,939.8z"/>
				<path class="st13" d="M965.62,945.97c8.6,2.76,9.98,2.14,9.98,2.14s41.85-76.2,46.09-83.18c4.24-6.98,88.87-85.45,88.87-85.45
					l-21.75-81.1c0,0-96.25,124.64-106.65,142.53c-17.18,29.55-27.24,98.2-27.24,98.2S958.87,943.8,965.62,945.97z"/>
			</g>
			<path class="st20" d="M1187.93,811.32c-0.3,16.66-1.27,35.38-2.57,54.39c-0.08,1.13-0.16,2.26-0.24,3.38
				c-0.83,11.78-1.74,23.59-2.78,35.1c-0.42,4.62-0.86,9.18-1.32,13.66l-0.07,0.6c-0.04,1.68-0.24,3.5-0.43,5.16
				c-4.24,43.13-8.69,77.2-9.52,77.72c-0.99,0.66-2.1,0.99-3.31,0.84c-11.31-1.42-45.05,1.15-72.68-4.87
				c-23.31-4.92-43.38-14.24-64.66-26.81c-2.82-1.67-9.26-6.09-8.74-9.39c0.51-3.63,1.46-8.88,2.67-15.47
				c4.19-22.94,11.42-62.4,13.89-108.58c0.48-8.6,1.18-17.1,2.09-25.45c2.37-21.76,6.17-42.43,11.27-60.79
				c9.47-34.11,23.39-60.22,40.85-70.44c2.28-1.28,14.56,6.53,25.83,13.77c10.41,6.68,21.38,8.52,32.04,7.59l9.38,10.38
				c11.36,13.21,23.46,30.8,26.77,55.79c0.25,1.85,0.46,3.81,0.64,5.89C1187.96,783.99,1188.19,796.88,1187.93,811.32z"/>
			<path class="st13" d="M1187.93,811.32c-0.3,16.66-1.27,35.38-2.57,54.39c-0.08,1.13-0.16,2.26-0.24,3.38
				c-64.6-40.44-74.55-114.43-74.55-114.43c31.78,1.39,57.03,8.7,76.49,19.15C1187.96,783.99,1188.19,796.88,1187.93,811.32z"/>
			<g>
				<path class="st20" d="M1390.33,743.38c-3.33-9.01-8.51-8.42-8.51-8.42s-96.05,23.94-104.67,24.96
					c-8.62,1.03-103.43-37.02-103.43-37.02s-37.32-16.75-54.8-1.46c-15.19,13.29-15.88,30.12-12.33,44.26
					c4.24,16.85,18.49,29.29,35.72,31.49c38.68,4.93,115.86,14.2,132.03,11.95c36-5.01,117.58-52.1,117.58-52.1
					S1392.94,750.45,1390.33,743.38z"/>
			</g>
		</g>
		<g id="man_2_">
			<g>
				<path class="st15" d="M2337.46,919.43c0,0,13.34,12.37,10.74,21.16c-2.6,8.79-14.65,14.65-16.27,25.39s-8.14,16.6-14,16.6
					s-27.93,0-27.93,0s-4.31-7.56,6.1-9.84c10.42-2.28,14.34-14.9,13.69-26.62c-0.65-11.72,0.98-27.34,0.98-27.34l22.13-5.21
					L2337.46,919.43z"/>
				<path class="st15" d="M2171.14,981.11c-1.35,0.68-6.11,1.15-12.64,1.46h-63.16c0.21-1.88,1.68-8.58,12.01-10.24
					c11.67-1.9,31.88-8.68,36.39-23.6c0.15-0.48,0.28-0.97,0.39-1.46c3.58-15.95,29.61,4.88,29.61,4.88s0.08,0.64,0.19,1.73
					C2174.54,959.73,2176.08,978.65,2171.14,981.11z"/>
				<path class="st21" d="M2110.44,554.54c0,0,3.96,49.34,8.6,108.65c6.32,80.57,13.92,179.53,14.67,198.28
					c1.3,32.55,6.51,84.63,6.51,84.63s12.36,12.37,37.11,7.16c0,0,22.05-74.34,28.35-152.99c0.1-1.29,0.2-2.59,0.29-3.89
					c5.86-80.07,14.97-248.67,14.97-248.67L2110.44,554.54z"/>
				<path class="st15" d="M2110.44,554.54c0,0,3.96,49.34,8.6,108.65l86.63,137.07c0.1-1.29,0.2-2.59,0.29-3.89
					c5.86-80.07,14.97-248.67,14.97-248.67L2110.44,554.54z"/>
				<path class="st21" d="M2128.5,560.4c0,0,71.28,178.69,118.15,262.66c46.87,83.97,61.52,107.41,61.52,107.41
					s26.85-10.74,29.29-18.06c0,0-17.92-162.12-49.31-201.63c-17.74-22.33-38.57-89.34-39.54-112.78
					c-0.98-23.43-6.35-69.82-6.35-69.82L2128.5,560.4z"/>
			</g>
			<g>
				<path class="st14" d="M1908.64,463.48c0,0-19.33-4.42-22.59-4.2c-3.25,0.22-14.64,4.99-14.79,5.91
					c-0.15,0.92,0.39,1.67,2.35,1.81c1.97,0.13,8.44-0.7,8.03,0.08c-0.41,0.78-19.06,4.45-19.26,8.2
					c-0.21,3.75,10.01,10.73,18.64,11.2c8.63,0.47,25.6-9.56,27.06-9.69C1920.43,475.72,1908.64,463.48,1908.64,463.48z"/>
				<path class="st19" d="M1900.37,468.39c-2.77-8.83-2.12-10.24-2.12-10.24s78.37-42.38,85.55-46.68
					c7.18-4.3,88.17-90.49,88.17-90.49l82.96,22.83c0,0-128.38,97.79-146.78,108.33c-30.4,17.4-100.81,27.25-100.81,27.25
					S1902.54,475.33,1900.37,468.39z"/>
			</g>
			<path class="st14" d="M2097.1,279.09c0,0-29.08,51.17-57.51,57.85c0,0,1.18-17.19,8.11-28.95c-2.83-3.34-5.32-6.41-7.48-9.16
				c-7.16-9.17-10.56-14.78-10.56-14.78l9.65-25.94l6.55-17.6c3.15,5.71,6.61,10.58,10.23,14.74
				C2074.71,276.67,2097.1,279.09,2097.1,279.09z"/>
			<path class="st10" d="M2056.08,255.25c0,0,3.47,25.64-15.87,43.58c-7.16-9.17-10.56-14.78-10.56-14.78l9.65-25.94
				C2049.65,254.96,2056.08,255.25,2056.08,255.25z"/>
			<path class="st14" d="M2021.99,287.83c0,0,43.46-16.94,32.49-43.84c-10.97-26.9-12.74-47.2-40.95-37.52
				c-28.21,9.68-29.38,22.13-27.9,32C1987.1,248.33,2010.41,291.54,2021.99,287.83z"/>
			<path class="st18" d="M2246.47,541.68c-17.53,25.2-148.59,58.88-147.04,41.43c0.59-6.68,1.39-18.45-0.02-34.41
				c-0.33-3.74-0.79-7.7-1.39-11.89c-3.33-22.92-11.24-52.4-28.88-86.51c-1.32-2.56-2.7-5.13-4.13-7.74
				c-7.26-13.21-13.45-27.17-18.17-40.83c-9.08-26.24-12.74-51.35-8.16-67.76c0.02-0.08,0.04-0.15,0.07-0.23
				c27.4-12.67,38.01-61.8,38.01-61.8s93.47,16.78,145.82,141.37C2222.59,413.31,2261.72,519.75,2246.47,541.68z"/>
			<path class="st19" d="M2099.41,548.71c-0.33-3.74-0.79-7.7-1.39-11.89c-3.33-22.92-11.24-52.4-28.88-86.51
				c3.03-18.36,7.21-33.63,11.8-40.5c18.64-27.94,29.5-32.3,29.5-32.3S2138.39,495.4,2099.41,548.71z"/>
			<g>
				<path class="st14" d="M1952.08,520.66c0,0-25.86,1.36-29.86,2.8c-4.01,1.44-16.6,11.49-16.46,12.7c0.14,1.21,1.09,1.96,3.6,1.43
					c2.52-0.54,10.35-3.89,10.11-2.76c-0.24,1.13-22.34,12.4-21.26,17.18c1.08,4.79,16.4,9.89,27.41,7.4
					c11.01-2.5,28.73-21.16,30.51-21.84C1971.25,531.8,1952.08,520.66,1952.08,520.66z"/>
				<path class="st18" d="M1947.2,530.46c-5.18-8.37-1.45-12.19-1.45-12.19s79.87-62.54,86.13-68.86
					c6.26-6.32,35.26-106.92,35.26-106.92s9.98-40.71,33.36-45.2c20.31-3.9,34.35,6.15,43.54,17.93
					c10.95,14.04,12.02,33.4,2.94,48.71c-20.39,34.36-61.53,102.58-73.55,114.23c-26.74,25.94-116.2,62.18-116.2,62.18
					S1951.27,537.03,1947.2,530.46z"/>
			</g>
			<path class="st11" d="M2060.72,194.02c0.3-0.6,1.19-1.24,3.35-1.9c0,0-2.02-0.68-4.38-0.16c-1.22-2.98-4.18-8.05-9.75-8.09
				c0,0,3.19,0.83,4.37,4.02c-7.62-4.83-21.75-6.23-57.02,5.51c-46.48,15.48-23.26,42.47-16.22,44.63
				c7.05,2.16,20.02-11.72,31.68-13.62c11.67-1.9,17.98,14.35,22.42,15.7c4.45,1.35,1.92-2.35,6.58-6.05
				c4.66-3.7,7.33,5.01,7.23,11.13c-0.1,6.12,8.98,11.92,8.98,11.92s0,0,5.33-9.77c5.33-9.77,3.88-45.23-1.21-51.62
				C2061.62,195.17,2061.18,194.6,2060.72,194.02z"/>
		</g>
		<path class="st22" d="M2824.21,1532.87H199.58c-1.9,0-3.46-1.56-3.46-3.46v-2.47c0-1.9,1.56-3.46,3.46-3.46h2624.63
			c1.9,0,3.46,1.56,3.46,3.46v2.47C2827.67,1531.32,2826.11,1532.87,2824.21,1532.87z"/>
		<polygon class="st23" points="1325.96,1431.28 1325.96,1483.89 1201.44,1431.28 		"/>
		<rect x="1979.83" y="982.57" class="st3" width="411.82" height="540.91"/>
		<rect x="1852.84" y="982.58" class="st4" width="411.83" height="540.91"/>
		<polygon class="st23" points="2391.65,982.58 2391.65,1063.46 2264.67,982.58 		"/>
	</g>
</g>
</svg>
