<?xml version="1.0" encoding="UTF-8"?>
<svg xmlns="http://www.w3.org/2000/svg" viewBox="0 0 500 500">
  <defs>
    <style>
      .cls-1 {
        fill: #fff;
      }

      .cls-2 {
        fill: #ffbc00;
      }

      .cls-3 {
        fill: #ffd030;
      }

      .cls-4 {
        fill: #ff5c97;
      }

      .cls-5 {
        fill: #ff76a0;
      }

      .cls-6 {
        fill: #8acdf0;
      }

      .cls-7 {
        fill: #231f20;
      }

      .cls-8 {
        fill: #62bfe8;
      }
    </style>
  </defs>
  <g id="BACKGROUND">
    <rect class="cls-1" width="500" height="500"/>
  </g>
  <g id="OBJECTS">
    <g>
      <path class="cls-3" d="m435.2,244.59c.13,19.39-1.93,40.54-8.22,64.27-.03.05-.03.08-.05.13,0,.03,0,.05-.03.08-9.77,31.04-26.14,67.64-52.32,110.14-.03.03-.03.05-.05.08-12.37,18.74-27.13,38.72-44.64,60.12,2.44-2.97,4.31-6.53,5.84-10.36,3.94-9.77,5.57-21.53,8.17-30.71,4.2-14.94,6.53-37.68,6.8-57.28.19-14.22-.72-26.81-2.79-33.53v-.03c-8.68-28.28-28.57-46.75-46.25-65.23-2.33-2.44-4.63-4.87-6.88-7.36-17.27-19.15-30.37-39.69-24.72-72.25,5.76-33.07,30.69-57.71,60.49-64.94,14.54-3.51,30.23-2.89,45.44,2.92,38.32,14.65,58.94,62.74,59.21,103.95Z"/>
      <g>
        <path class="cls-2" d="m435.2,244.59c.13,19.41-1.93,40.62-8.27,64.4,0,.03,0,.05-.03.08-9.77,31.06-26.16,67.7-52.38,110.22-11.03,16.71-23.97,34.38-39.04,53.18,3.03-5.38,5.92-10.66,8.68-15.83,56.66-105.91,61.75-173.6,52.75-225.66-6.75-39.2-33.23-81.62-71.23-91.88,1.71-.54,3.43-1.02,5.17-1.42,14.46-3.45,30.05-2.81,45.15,2.95,38.32,14.65,58.94,62.74,59.21,103.95Z"/>
        <path class="cls-2" d="m334.68,471.48c-1.33,2.9-2.89,5.6-4.79,7.92,1.28-1.57,2.5-3.1,3.76-4.65.39-1.06.73-2.16,1.04-3.27Z"/>
      </g>
      <path class="cls-5" d="m268.63,486.2c7.13-4.34,9.96-15.28,12.04-22.76,2.78-10.02,3.72-20.15,2.68-30.51-2.33-23.14-12.29-44.62-18.13-66.93-2.2-8.4-3.87-16.98-4.28-25.68-.35-7.62.3-15.28,2.18-22.68.31-1.2.64-2.4,1.01-3.59,8.7-28.19,39.09-42.47,63.03-28.8,19.78,11.29,27.11,40.91,23.9,65.06-4.42,33.16-27.26,102.32-82.43,135.89Z"/>
      <g>
        <path class="cls-4" d="m327.16,285.25c-11.74-6.7-25.02-6.67-36.54-1.6,18.12,9.58,29.29,33.96,31.09,55.87,2.49,30.27-3.57,92.76-39.7,137.35,45.52-35.78,65-96.23,69.05-126.57,3.22-24.15-4.12-53.77-23.9-65.06Z"/>
        <path class="cls-4" d="m275.71,477.76c-1.76,3.5-4.02,6.57-7.08,8.44,1.99-1.21,3.93-2.48,5.84-3.78.51-1.5.93-3.05,1.24-4.65Z"/>
      </g>
      <path class="cls-6" d="m246.76,489.04c1.58,1.26,4.28,3.64,7.39,6.21-3.51.78-7.1,1.31-10.79,1.53-2.44.13-4.85.21-7.23.21-28.06,0-52.35-9.45-68.28-17.73-20.24-10.5-40.03-24.15-57.22-39.47-28.44-25.28-45.87-59.69-49.54-95.36-.29-17.62,3.62-35.03,12.93-50.48,1.93-3.21,4.1-6.35,6.51-9.37,25.79-32.35,84.27-32.72,103.9,6.27,10.12,20.06,11.49,43.59,12.56,65.63.7,14.92-.08,30.1,1.15,45.01,2.89,34.54,21.23,65.42,47.93,86.98.24.19.46.37.7.56Z"/>
      <path class="cls-8" d="m246.07,488.48c-7.59-6.13-14.47-13.03-20.54-20.53-13.16-3.5-24.54-8.43-33.35-13.01-20.24-10.5-40.03-24.15-57.22-39.47-28.44-25.28-45.87-59.69-49.54-95.36-.29-17.62,3.62-35.03,12.93-50.48h0c-6.79,3.79-12.9,8.79-17.82,14.95-2.41,3.03-4.58,6.16-6.51,9.37-9.32,15.45-13.23,32.86-12.93,50.48,3.67,35.67,21.1,70.08,49.54,95.36,17.19,15.32,36.98,28.97,57.22,39.47,15.93,8.27,40.22,17.73,68.28,17.73,2.38,0,4.79-.08,7.23-.21,3.7-.21,7.28-.75,10.79-1.53-3.11-2.57-5.81-4.95-7.39-6.21-.24-.19-.46-.38-.7-.56Z"/>
      <path class="cls-7" d="m426.98,308.86c-.03.05-.03.08-.05.13,0,.03,0,.05-.03.08-9.77,31.04-26.14,67.64-52.32,110.14-.03.03-.03.05-.05.08-8.06,13.07-17.28,26.12-27.3,40.34-5.76,8.17-16.49,20.45-17.34,19.78-.48-.38,2.3-5.01,5.84-10.36,2.6-3.99,5.62-8.38,8.03-11.81.13-.19.27-.4.4-.59,79.91-113.62,90.51-190.98,86.98-235.57-3.91-48.98-44.59-85.96-92.73-83.98-2.54.11-5.06.29-7.55.59-.11,0-.19.03-.29.03-12.75,1.5-24.72,5.52-35.7,11.92-58.64,34.14-73.16,127.25-73.32,128.19-.21,1.58-1.37,2.87-2.89,3.29-1.55.4-3.19-.11-4.18-1.34-20.94-25.63-54.33-38.69-87.19-34.09-26.83,3.72-45.23,25.84-53.26,48.28-1.42,3.96-2.52,7.95-3.29,11.84-9.05,46.06,8.27,95.12,45.26,128,16.71,14.89,35.91,28.14,55.56,38.35,16.39,8.52,42.07,18.32,71.34,16.6,1.07-.05,2.14-.16,3.19-.27,34.49-3.96,59.88-38.4,76.1-64.29,11.33-18.02,19.31-36.82,23.08-54.41,1.66-7.63,2.54-15.05,2.65-22.25v-.03c.27-14.43-2.52-27.9-8.35-40.25-7.63-16.2-21.96-25.52-37.89-24.98-1.15.03-2.3.11-3.45.24-14.33,1.69-26.94,10.76-34.65,24.88-13.34,24.31-16.63,57.39-6.24,97.2,2.3,8.73,8.24,26.54,6.96,27.13-1.42.65-8.38-16.66-10.71-25.44-11.14-42.2-11.46-76.45,2.92-102.75,8.57-15.61,22.41-25.95,38.29-28.63.83-.16,1.63-.27,2.46-.38,20.89-2.52,39.87,8.73,49.59,29.3,9.48,20.11,11.59,42.87,6.29,67.64-.67,3.16-1.5,6.37-2.44,9.59-4.5,15.61-11.92,31.81-21.72,47.42-16.04,25.57-40.65,59.02-74.82,66.78-3.51.78-7.1,1.31-10.79,1.53-2.44.13-4.85.21-7.23.21-28.06,0-52.35-9.45-68.28-17.73-20.24-10.5-40.03-24.15-57.22-39.47-28.44-25.28-45.87-59.69-49.54-95.36-1.39-13.36-.86-26.89,1.77-40.19,5.62-28.57,27.85-61.59,63.3-66.52,32.83-4.63,66.14,7.07,88.96,30.69,4.98-24.37,23.65-95.41,75.68-125.75,14.38-8.38,30.29-12.93,47.29-13.6,52.43-2.06,96.8,38.08,101.06,91.37,1.74,21.96-.48,51.2-12.16,88.42Z"/>
      <g>
        <path class="cls-6" d="m195.4,176.94c-12.97,29.82-38.12,47.63-56.18,39.78-18.06-7.85-22.19-38.4-9.22-68.22,12.97-29.82,38.12-47.63,56.18-39.78,18.06,7.85,22.19,38.4,9.22,68.22Z"/>
        <path class="cls-7" d="m146.15,220.58c-5.01,0-9.84-1.02-14.32-3.11-11.07-5.16-18.57-16.03-21.13-30.61-2.49-14.14,0-30.19,6.98-45.17,6.99-14.98,17.68-27.2,30.11-34.39,12.82-7.41,25.97-8.65,37.04-3.49,9.19,4.29,15.51,12.35,18.63,21.88,2.65,8.1,2.7,16.9.98,25.18-.56,2.68-1.14,5.42-1.89,8.08-.17.59-1,4.73-1.84,4.75-.78.02,0-4.72.04-5.14.77-8.52.86-17.18-1.41-25.51-.65-2.39-1.51-4.74-2.61-6.96-.98-1.98-2.12-3.88-3.34-5.71-2.88-4.29-6.64-8.3-11.38-10.51-9.03-4.21-19.99-3.06-30.86,3.22-11.25,6.51-20.98,17.67-27.4,31.42-6.41,13.76-8.71,28.38-6.46,41.18,2.17,12.37,8.34,21.5,17.37,25.71,11.32,5.27,26.78,4.67,39.69-6.06.83-.69,4.42-3.81,6.95-5.4,1.1-.69,1.59-.21.88.88-1.74,2.67-4.99,5.84-5.82,6.53-10.08,8.37-19.87,13.23-30.21,13.23Z"/>
      </g>
      <g>
        <path class="cls-3" d="m309.12,44.06c11.38-26.82,34.15-42.82,50.85-35.74,16.7,7.09,21.01,34.57,9.63,61.4-11.38,26.82-34.15,42.82-50.85,35.74-16.7-7.09-21.01-34.57-9.63-61.4Z"/>
        <path class="cls-7" d="m359.89,0c5.04.09,9.89,1.22,14.36,3.4,11.05,5.41,18.41,16.5,20.71,31.24,2.24,14.29-.57,30.41-7.89,45.37-7.32,14.96-18.33,27.06-30.98,34.07-13.05,7.22-26.32,8.22-37.37,2.81-9.18-4.49-15.39-12.74-18.35-22.4-2.52-8.21-2.4-17.07-.51-25.39.61-2.68,1.25-5.44,2.05-8.11.18-.6,1.1-4.75,1.94-4.75.79,0-.09,4.76-.14,5.18-.93,8.57-1.19,17.29.94,25.73.61,2.42,1.43,4.8,2.5,7.06.95,2.01,2.06,3.95,3.26,5.82,2.82,4.38,6.53,8.48,11.27,10.8,9.01,4.41,20.07,3.47,31.14-2.66,11.46-6.34,21.47-17.4,28.19-31.13,6.72-13.74,9.31-28.42,7.28-41.36-1.96-12.5-8-21.81-17.01-26.22-11.3-5.53-26.89-5.21-40.1,5.35-.85.68-4.53,3.75-7.1,5.31-1.12.68-1.6.18-.87-.9,1.8-2.66,5.13-5.79,5.98-6.47C339.52,4.51,349.47-.19,359.89,0Z"/>
      </g>
      <g>
        <path class="cls-1" d="m364.69,250.55c-7.61,17.5-24.13,27.19-36.9,21.63-12.77-5.55-16.95-24.24-9.34-41.74,7.61-17.5,24.13-27.19,36.9-21.63,12.77,5.55,16.95,24.24,9.34,41.74Z"/>
        <path class="cls-5" d="m358.69,247.94c-6.65,15.3-21.1,23.77-32.26,18.91-11.16-4.85-14.82-21.19-8.17-36.49,6.65-15.3,21.1-23.77,32.26-18.91,11.16,4.85,14.82,21.19,8.17,36.49Z"/>
        <path class="cls-7" d="m348.34,205.98c3.1-.07,6.12.45,8.92,1.61,6.93,2.86,11.74,9.12,13.53,17.64,1.74,8.25.43,17.7-3.69,26.59-4.12,8.89-10.58,16.21-18.19,20.61-7.84,4.54-15.98,5.46-22.91,2.59-5.76-2.38-9.79-7.01-11.85-12.55-1.76-4.71-1.91-9.87-.96-14.75.31-1.58.63-3.19,1.06-4.77.1-.35.56-2.79,1.07-2.81.48-.02.07,2.77.05,3.01-.35,5.01-.29,10.09,1.23,14.94.44,1.39,1,2.76,1.72,4.04.64,1.14,1.37,2.24,2.15,3.3,1.84,2.48,4.23,4.77,7.2,5.99,5.66,2.33,12.43,1.5,19.08-2.34,6.89-3.98,12.76-10.67,16.54-18.83,3.78-8.16,5-16.77,3.42-24.24-1.52-7.22-5.47-12.48-11.13-14.81-7.09-2.92-16.67-2.34-24.52,4.14-.51.41-2.69,2.3-4.23,3.27-.67.42-.98.15-.56-.5,1.04-1.59,3.01-3.5,3.51-3.91,6.13-5.06,12.13-8.05,18.54-8.2Z"/>
      </g>
    </g>
  </g>
</svg>