<?xml version="1.0" encoding="utf-8"?>
<!-- Generator: Adobe Illustrator 27.6.1, SVG Export Plug-In . SVG Version: 6.00 Build 0)  -->
<svg version="1.1" xmlns="http://www.w3.org/2000/svg" xmlns:xlink="http://www.w3.org/1999/xlink" x="0px" y="0px"
	 viewBox="0 0 500 500" style="enable-background:new 0 0 500 500;" xml:space="preserve">
<style type="text/css">
	.st0{fill:#FAEEE6;}
	.st1{clip-path:url(#SVGID_00000166662877133616071550000012383169222456182169_);}
	.st2{fill:none;stroke:#FACBC3;stroke-miterlimit:10;}
	.st3{opacity:0.23;fill:#975792;}
	.st4{fill:#8A6529;}
	.st5{fill:#C99C56;}
	.st6{fill:#D3AF5B;}
	.st7{fill:#765222;}
	.st8{fill:#99762D;}
	.st9{fill:#AD8533;}
	.st10{opacity:0.23;clip-path:url(#SVGID_00000070103868976484922320000011439916602153250966_);fill:#8E5391;}
	.st11{opacity:0.23;clip-path:url(#SVGID_00000172403277173224409820000009025155526679378603_);fill:#8E5391;}
	.st12{clip-path:url(#SVGID_00000050650687655625821520000001598650369618713790_);}
	.st13{fill:#543922;}
	.st14{fill:#382516;}
	.st15{fill:#D1AD8E;}
	.st16{fill:none;}
	.st17{fill:#F26861;}
	.st18{fill:#FFC796;}
	.st19{fill:#FFE1C7;}
	.st20{fill:#E3A46F;}
	.st21{fill:#FFFFFF;}
	.st22{font-family:'ArialMT';}
	.st23{font-size:36px;}
	.st24{font-size:30px;}
</style>
<g id="BACKGROUND">
	<rect class="st0" width="500" height="500"/>
	<g>
		<defs>
			<rect id="SVGID_1_" width="500" height="500"/>
		</defs>
		<clipPath id="SVGID_00000178888051116361346430000014670109046494670730_">
			<use xlink:href="#SVGID_1_"  style="overflow:visible;"/>
		</clipPath>
		<g style="clip-path:url(#SVGID_00000178888051116361346430000014670109046494670730_);">
			<path class="st2" d="M316.68-54.84c-18.81,53.91,7.35,108.75,49.68,124.2c33.02,12.05,80.05,1.58,93.96-24.84
				c5.93-11.25,7.48-28.44,1.08-32.4c-6.15-3.8-19.8,4.5-27,14.04c-16.45,21.78-11.41,66.04,15.12,86.4
				c26.7,20.49,72.86,15.01,101.52-19.44"/>
			<path class="st2" d="M-76.73,240.38c20.3,10.13,68.33,37.67,97.63,94.69c52.96,103.02-3.69,207.93-8.95,217.3"/>
			<path class="st2" d="M-48.36,417.12c9.5-2.84,94.16-26.62,167.4,28.08c55.94,41.78,68.62,102.02,71.28,116.64"/>
			<path class="st2" d="M345.84,544.56c-31.46-82.44-62.26-152.56-75.6-149.04c-9.44,2.49-14.24,42.92,2.16,58.32
				c23.86,22.41,100.55-0.75,293.76-139.32"/>
			<path class="st2" d="M-106.68,154c102.75,43.07,214.76,22.44,278.19-48.27c53.4-59.52,54.01-134.05,53.35-156.24"/>
			<path class="st2" d="M568.32,57.48c-80.26,18.58-140.34,83.99-150.12,162c-11.13,88.73,44.95,176.73,135,206.28"/>
		</g>
	</g>
</g>
<g id="OBJECTS">
	<g>
		<polygon class="st3" points="376.07,119.67 359.33,36.18 164.43,36.18 147.69,119.67 147.69,348.05 376.07,348.05 459.56,331.31 
			459.56,136.41 		"/>
		<g>
			<g>
				<rect x="135.81" y="127.23" class="st4" width="228.37" height="228.37"/>
			</g>
			<g>
				<polygon class="st5" points="364.19,127.23 135.81,127.23 152.55,43.74 347.45,43.74 				"/>
			</g>
			<g>
				<polygon class="st6" points="135.81,355.61 364.19,355.61 347.45,439.1 152.55,439.1 				"/>
			</g>
			<g>
				<polygon class="st5" points="364.19,355.61 364.19,127.23 447.68,143.97 447.68,338.87 				"/>
			</g>
			<g>
				<polygon class="st6" points="135.81,127.23 135.81,355.61 52.32,338.87 52.32,143.97 				"/>
			</g>
			<rect x="159.49" y="150.9" class="st7" width="181.03" height="181.03"/>
			<polygon class="st8" points="159.49,150.9 135.81,127.23 364.19,127.23 340.51,150.9 			"/>
			<polygon class="st4" points="340.51,331.9 364.19,355.58 135.81,355.58 159.49,331.9 			"/>
			<polygon class="st9" points="340.51,150.89 364.18,127.22 364.18,355.6 340.51,331.92 			"/>
			<g>
				<polygon class="st5" points="364.19,355.61 364.19,127.23 447.68,143.97 447.68,338.87 				"/>
			</g>
			<g>
				<polygon class="st5" points="364.19,355.61 364.19,127.23 447.68,143.97 447.68,338.87 				"/>
			</g>
			<polygon class="st3" points="365.95,355.25 447.68,338.87 447.68,143.97 365.95,127.58 			"/>
			<g>
				<polygon class="st5" points="364.19,127.23 135.81,127.23 152.55,43.74 347.45,43.74 				"/>
			</g>
			<polygon class="st3" points="363.8,125.31 347.45,43.74 152.55,43.74 136.2,125.31 			"/>
		</g>
	</g>
	<g>
		<defs>
			<polygon id="SVGID_00000062193370370273341200000015526705269340568707_" points="364.19,127.23 135.81,127.23 135.81,355.61 
				152.55,439.1 347.45,439.1 364.19,355.61 447.68,338.87 447.68,143.97 			"/>
		</defs>
		<clipPath id="SVGID_00000134950311265154884130000012426278678763607487_">
			<use xlink:href="#SVGID_00000062193370370273341200000015526705269340568707_"  style="overflow:visible;"/>
		</clipPath>
		<path style="opacity:0.23;clip-path:url(#SVGID_00000134950311265154884130000012426278678763607487_);fill:#8E5391;" d="
			M619.14,641.43L452.73,439.96c-0.26-2.04-0.63-4.3-1.11-6.32c-0.78-3.26-4.69-6.95-7.63-9.33l-33.61-66.58
			c0,0-7.32-4.72-23.68-22.81c-16.35-18.09-25.15-17.28-26.02-14.22c-0.03,0.1-0.04,0.21-0.06,0.31c-0.02-0.01-0.03-0.03-0.04-0.04
			c0.01,0.02,0.03,0.04,0.04,0.06c-0.01,0.04-0.02,0.08-0.02,0.13c-8.48-9.12-14-11.65-17.01-11.52c0,0,0,0,0,0c0,0,0,0,0,0
			c-1.5,0.07-2.37,0.79-2.67,1.7c-1.91,5.81,8.43,13.74,13.66,19.47c3.48,3.81,14.58,18.81,22.2,29.24
			c0.06,0.18,0.11,0.35,0.18,0.55c3.07,8.77-0.41,6.25-3.17,3.48c-6.8-8.65-16.35-20.77-19.17-24.13
			c-4.03-4.8-22.02-20.66-31.63-24.74c-0.02-0.01-0.05-0.02-0.07-0.03c-0.33-0.14-0.65-0.26-0.95-0.37
			c-0.05-0.02-0.11-0.04-0.16-0.06c-0.28-0.09-0.54-0.17-0.8-0.24c-0.07-0.02-0.14-0.04-0.2-0.06c-0.3-0.08-0.6-0.13-0.87-0.17
			c0,0-0.01,0-0.01,0c0,0,0,0,0,0c-0.37-0.05-0.7-0.06-1.01-0.07c-0.05,0-0.11,0-0.16,0c-6.48,0.06-2.1,9.06,0.18,11.21
			c1.51,1.43,20.43,18.34,23.03,22.51c1.89,3.02,11.82,17.13,17.13,24.66l-0.05-0.03c0.94,2.24,0.12,2.75-1.06,2.64
			c-6.4-7.19-13.32-14.91-15.7-17.42c-4.14-4.36-17.84-12.73-26.83-15.37l0,0c0,0,0,0,0,0c-0.36-0.11-0.71-0.2-1.05-0.29
			c-0.03-0.01-0.06-0.01-0.09-0.02c-0.31-0.08-0.61-0.14-0.9-0.2c-0.05-0.01-0.11-0.02-0.16-0.03c-0.26-0.05-0.52-0.1-0.77-0.13
			c-0.07-0.01-0.13-0.02-0.2-0.03c-0.3-0.04-0.6-0.07-0.88-0.09c-0.34-0.02-0.64-0.02-0.94-0.01c-0.06,0-0.12,0.01-0.18,0.01
			c-6.54,0.4-1.61,9.17,0.8,11.19c1.6,1.34,16.2,9.73,19.05,13.73c1.47,2.06,7.34,9.47,12.68,16.17l-0.12,0.05l19.44,23.98
			c0.05,0.13,0.11,0.25,0.16,0.38l-4.22,1.44c-3.73-2-7.74-4.2-9.78-5.53c-4.42-2.86-6.64-6.24-12.36-11.19
			c-5.72-4.94-13.79-3.9-15.61-2.86c-1.37,0.78-1.56,2.58-0.04,4.97l0,0l0,0c0.23,0.36,0.51,0.74,0.82,1.12
			c0.03,0.04,0.06,0.08,0.09,0.12c0.06,0.07,0.13,0.14,0.19,0.21c0.31,0.36,0.64,0.73,1.02,1.11c0,0,0.01,0.01,0.01,0.01
			c0.28,0.28,0.58,0.57,0.9,0.87c0.05,0.05,0.1,0.09,0.15,0.14c0.31,0.29,0.63,0.59,0.97,0.9c0,0,0,0,0,0l0,0
			c3.89,3.55,9.57,8.2,13.06,12.13c1.14,1.28,4.17,3.89,7.97,7c4.9,4.75,14.41,13.35,25.16,19.73c0.28,0.21,0.44,0.34,0.44,0.34
			l-0.02-0.08c7.27,4.26,15.07,7.46,22.36,7.75l2.43-0.27l116.47,196.42H619.14z M396.89,362.7l-0.09,0.03
			c-0.22-0.25-0.46-0.51-0.7-0.78c0.21,0.19,0.43,0.38,0.64,0.57C396.79,362.59,396.84,362.65,396.89,362.7z"/>
	</g>
	<g>
		<defs>
			<polygon id="SVGID_00000072241589912134445390000011129728242137783982_" points="364.32,127.16 364.32,355.54 135.95,355.54 
				52.46,338.8 52.46,143.9 135.95,127.16 152.68,43.67 347.59,43.67 			"/>
		</defs>
		<clipPath id="SVGID_00000129185824859545751130000018106070810011331746_">
			<use xlink:href="#SVGID_00000072241589912134445390000011129728242137783982_"  style="overflow:visible;"/>
		</clipPath>
		<path style="opacity:0.23;clip-path:url(#SVGID_00000129185824859545751130000018106070810011331746_);fill:#8E5391;" d="
			M163.94,194.13c-0.77-2.41-4.11-11.25-7.17-19.26l0.13-0.01l-11.25-28.76c-0.01-0.14-0.03-0.27-0.05-0.41l4.47-0.09
			c2.95,3.03,6.1,6.36,7.64,8.24c3.35,4.07,4.43,7.96,8.38,14.41c3.95,6.45,11.95,7.91,14.01,7.47c1.54-0.33,2.27-1.99,1.55-4.73
			l0,0c0,0,0,0,0,0c-0.06-0.22-0.13-0.44-0.2-0.67c0-0.01-0.01-0.02-0.01-0.04c-0.07-0.22-0.16-0.45-0.25-0.69
			c-0.01-0.02-0.01-0.04-0.02-0.06c-0.06-0.16-0.14-0.32-0.21-0.48c-0.16-0.37-0.34-0.75-0.54-1.15c0,0,0-0.01-0.01-0.01
			c-0.18-0.35-0.38-0.72-0.59-1.1c-0.03-0.06-0.07-0.12-0.1-0.19c-2.57-4.63-7.09-11.46-9.41-16.67c-0.7-1.57-2.79-4.97-5.47-9.09
			c-3.22-6.02-9.68-17.1-17.98-26.44c-0.2-0.29-0.32-0.45-0.32-0.45l-0.01,0.08c-5.63-6.26-12.09-11.69-18.95-14.17l-2.39-0.48
			L73.86-123.12l-101.81-32.45L69.42,86.92c-0.37,2.02-0.71,4.29-0.86,6.36c-0.24,3.35,2.36,8.04,4.44,11.21l11.01,68.72
			c-0.05,5.86,0.38,18.91,4.19,36.19c1.76,8,3.11,13.58,4.22,17.38c0,0,0,0,0,0c1.2,4.38,2,5.7,2.26,6.04
			c0.95,1.6,1.75,1.45,2.64,0.57c4.37-4.28,3.92-18.78,1.91-26.28c-0.91-3.41-1.71-12.77-2.32-22.24c0.32-7.25,3.19-3.28,4.6-0.85
			c4.02,10.24,10.08,25.61,15.55,39.04c9.19,22.59,17.98,22.93,19.84,20.36c3.58-4.96-3.86-15.65-7.1-22.7
			c-2.15-4.68-8.17-22.33-12.26-34.58c0-0.19,0-0.39-0.01-0.61c-0.27-9.29,2.29-5.83,4.07-2.36c3.85,10.31,9.27,24.76,10.93,28.81
			c2.66,6.49,21.35,24.53,28.8,28c7.45,3.47,5.94-7.42,4.33-10.32c-1.01-1.82-17.43-16.68-18.65-21.44
			c-0.88-3.45-6.06-19.91-8.84-28.7l0.04,0.04c-0.22-2.42,0.72-2.66,1.81-2.2c3.92,8.79,8.16,18.25,9.67,21.37
			c2.72,5.62,15.22,13.65,23.33,17.47c0,0,0,0,0,0c1.03,0.66,2.35,1.12,3.3,1.39c0.35,0.12,0.68,0.2,0.99,0.26
			c0.12,0.03,0.19,0.04,0.19,0.04c0,0,0-0.01,0.01-0.01c5.58,0.8,3.63-8.46,2-11.03C178.4,205.12,165.44,198.81,163.94,194.13z"/>
	</g>
	<g>
		<defs>
			<rect id="SVGID_00000145028080728310257780000007945483861114598837_" x="-0.01" y="-0.01" width="500.02" height="500.02"/>
		</defs>
		<clipPath id="SVGID_00000153683376725137498800000008886260475966462106_">
			<use xlink:href="#SVGID_00000145028080728310257780000007945483861114598837_"  style="overflow:visible;"/>
		</clipPath>
		<g style="clip-path:url(#SVGID_00000153683376725137498800000008886260475966462106_);">
			<g>
				<g>
					<polygon class="st13" points="396.95,443.76 346.23,381.22 413.93,356.21 454.89,437.33 					"/>
					<path class="st13" d="M355.92,393.13c0,0-19.4-24.13-22.26-28.13c-2.85-4-17.45-12.39-19.05-13.73
						c-2.54-2.13-7.88-11.73,0.32-11.19c8.2,0.54,26.06,11.09,30.89,16.18c4.83,5.09,28.34,31.64,28.34,31.64L355.92,393.13z"/>
					<path class="st13" d="M366,375.84c0,0-17.91-25.26-20.51-29.42c-2.6-4.16-21.52-21.07-23.03-22.5
						c-2.41-2.28-7.16-12.19,1-11.15c8.15,1.04,30.19,20.29,34.7,25.67c4.51,5.38,26.37,33.3,26.37,33.3L366,375.84z"/>
					<path class="st13" d="M387.91,368.96c0,0-24.33-33.69-29.8-39.68c-5.23-5.73-15.57-13.66-13.66-19.47
						c0.99-3.02,8.33-4.08,23.94,14.66c15.61,18.73,35.65,40.85,35.65,40.85L387.91,368.96z"/>
					<path class="st13" d="M412.54,376.18c0,0-23.88-29.91-29.58-35.67c-5.46-5.52-20.41-15.45-18.74-21.33
						c0.87-3.06,9.66-3.87,26.02,14.22c16.36,18.09,23.68,22.81,23.68,22.81L412.54,376.18z"/>
					<path class="st13" d="M369.44,404.35l-23.94,8.16c0,0,28.28,30.35,51.45,31.25l-11.38-32.13L369.44,404.35z"/>
					<path class="st13" d="M374.64,359.6c0,0,10.54,12.84,5.85-0.52c-4.69-13.36,17.04,14.57,14.27,15.44
						c-2.78,0.87-22.2,2.26-22.38,1.74C372.21,375.73,374.64,359.6,374.64,359.6z"/>
					<path class="st13" d="M358.16,372.52c0,0,6.51,3.47,4.42-1.48l6.16,3.64l-7.46,2.6L358.16,372.52z"/>
					<path class="st13" d="M369.92,411.37c0,0-13.66-7.02-18.08-9.89c-4.42-2.86-6.64-6.24-12.36-11.19
						c-5.72-4.94-13.79-3.9-15.61-2.86c-1.82,1.04-1.56,3.9,2.08,7.55c3.64,3.64,10.93,9.37,15.09,14.05s33.57,27.06,33.57,27.06
						L369.92,411.37z"/>
					<polygon class="st13" points="399.11,443.03 515.87,639.9 622.72,639.89 453.6,435.19 					"/>
				</g>
				<g>
					<path class="st14" d="M364.12,319.44c3.31,3.28,6.47,6.68,9.59,10.11c3.13,3.42,6.18,6.92,9.23,10.41
						c3.02,3.52,6.03,7.04,8.98,10.62c2.96,3.57,5.88,7.16,8.8,10.8c-3.52-3.06-6.78-6.39-9.96-9.76
						c-3.19-3.38-6.28-6.85-9.32-10.35c-3.02-3.53-6.01-7.08-8.9-10.71C369.63,326.93,366.79,323.26,364.12,319.44z"/>
				</g>
				<g>
					<path class="st14" d="M400.43,357.49c-1.32-0.24-2.51-0.75-3.66-1.32c-1.14-0.6-2.24-1.27-3.2-2.21
						c1.33,0.24,2.51,0.75,3.66,1.32C398.37,355.88,399.47,356.55,400.43,357.49z"/>
				</g>
				<path class="st15" d="M324.66,390.94c-0.77,0.21-0.79,0.5-0.84,1.48c0.51,0.8,1.21,1.66,2.12,2.57
					c0.59,0.59,1.28,1.23,2.03,1.92c0.65-0.86,1.07-1.27,1.25-1.9C329.5,394.01,325.95,390.58,324.66,390.94z"/>
				<g>
					<path class="st14" d="M365.64,405.12c1.22,1.01,2.2,2.19,3.12,3.42c0.89,1.25,1.73,2.54,2.31,4.01c-1.23-1-2.2-2.19-3.12-3.42
						C367.06,407.88,366.23,406.59,365.64,405.12z"/>
				</g>
				<g>
					<path class="st16" d="M361.64,406.83"/>
				</g>
				<g>
					<path class="st14" d="M338.92,406.41c-0.21-0.43-0.14-0.97,0.09-1.41c0.23-0.46,0.65-0.79,1.08-1c0.44-0.21,0.91-0.3,1.36-0.31
						c0.46,0,0.9,0.09,1.33,0.29c-0.42,0.22-0.82,0.35-1.2,0.48c-0.37,0.15-0.74,0.26-1.05,0.43
						C339.87,405.2,339.35,405.58,338.92,406.41z"/>
				</g>
				<path class="st13" d="M444.17,420.26c0,0,9.72,6.5,11.01,11.86c1.29,5.36,1.72,12.43,1.72,12.43l-12.29-13.36L444.17,420.26z"/>
				<path class="st15" d="M368.25,318.71c-0.38-0.17-0.81-0.21-1.22-0.1c-0.88,0.23-2.22,0.85-1.28,2.39
					c1.29,2.12,1.91,2.32,2.41,3.27c0.38,0.71,2.71-3.62,3.11-3.89C371.58,320.18,369.32,319.17,368.25,318.71z"/>
				<g>
					<path class="st15" d="M323,319.26c0.71-0.33,3.72-4.14,4.65-5.05c-1.61-0.78-3.04-1.3-4.19-1.44c-0.8-0.1-1.47-0.1-2.04,0
						c-0.59,0.53-1.03,1.32-0.77,2.47C321.27,317.95,322.21,319.63,323,319.26z"/>
					<path class="st15" d="M315.04,346.96c0.71-0.5,3.5-5.72,3.93-6c0.02-0.02,0.02-0.04,0.01-0.06c-1.5-0.44-2.88-0.73-4.05-0.81
						c-0.74-0.05-1.37-0.01-1.9,0.09c-0.79,0.62-1.62,1.69-0.99,3.2C313.11,345.96,314.33,347.46,315.04,346.96z"/>
					<path class="st15" d="M348.49,314.84c0.66-0.32,3.25-3.66,4.36-4.88c-2.46-1.42-4.35-1.91-5.72-1.85
						c-0.73,0.54-1.37,1.4-1.04,2.73C346.74,313.55,347.7,315.22,348.49,314.84z"/>
				</g>
			</g>
			<path class="st17" d="M405.79,394.04c0,0-4.01-17.37,4.89-12.83c8.9,4.53,1.46,30.1,1.46,30.1s-21.88-7.98-22.69-16.72
				C388.63,385.85,405.79,394.04,405.79,394.04z"/>
		</g>
		<g style="clip-path:url(#SVGID_00000153683376725137498800000008886260475966462106_);">
			<g>
				<g>
					<g>
						<polygon class="st18" points="132.61,97.71 161.94,172.71 89.84,175.97 78.84,86.04 						"/>
						<path class="st18" d="M156.32,158.41c0,0,11.16,28.88,12.66,33.56c1.5,4.67,14.47,10.99,15.58,12.75
							c1.77,2.8,3.95,13.57-3.7,10.56c-7.65-3.01-23.06-12.36-26.11-18.68c-3.05-6.32-17.39-38.76-17.39-38.76L156.32,158.41z"/>
						<path class="st18" d="M141.47,171.82c0,0,9.38,29.51,10.6,34.26c1.21,4.76,17.64,19.61,18.65,21.44
							c1.6,2.9,3.12,13.78-4.33,10.32c-7.45-3.47-26.14-21.5-28.8-28c-2.66-6.49-15.01-39.74-15.01-39.74L141.47,171.82z"/>
						<path class="st18" d="M118.5,171.72c0,0,12.95,39.49,16.34,46.85c3.25,7.05,10.68,17.74,7.1,22.7
							c-1.86,2.57-10.66,2.23-19.84-20.36s-20.07-50.63-20.07-50.63L118.5,171.72z"/>
						<path class="st18" d="M100.69,157.96c0,0,1.48,39.17,3.58,47c2.01,7.5,2.46,22-1.91,26.28c-2.27,2.22-3.87-0.18-9.12-24
							c-5.25-23.82-4.08-39.6-4.08-39.6L100.69,157.96z"/>
						<path class="st18" d="M146.85,143.62l25.28-0.5c0,0-17.72-37.51-39.52-45.41l1.08,34.07L146.85,143.62z"/>
						<path class="st18" d="M128.3,184.68c0,0-6.14-15.43-5.74-1.28c0.41,14.15-11.81-19.06-8.91-19.04
							c2.91,0.02,21.84,4.59,21.85,5.14C135.52,170.04,128.3,184.68,128.3,184.68z"/>
						<path class="st18" d="M107.33,183.33c0,0-5.8-12.02-5.39,2.13c0.41,14.15-12.16-22.47-9.25-22.46
							c2.91,0.02,21.84,4.59,21.85,5.14C114.55,168.69,107.33,183.33,107.33,183.33z"/>
						<path class="st18" d="M147.93,177.37c0,0-5.14-5.28-4.66,0.06l-4.76-5.34l7.9-0.21L147.93,177.37z"/>
						<path class="st18" d="M148.53,136.78c0,0,10.88,10.84,14.23,14.91c3.35,4.07,4.43,7.96,8.38,14.41
							c3.95,6.45,11.95,7.91,14.01,7.47c2.05-0.44,2.67-3.24,0.31-7.82c-2.36-4.58-7.57-12.24-10.11-17.97
							c-2.54-5.73-23.76-35.98-23.76-35.98L148.53,136.78z"/>
						<polygon class="st18" points="130.34,97.75 78.9,-125.28 -22.91,-157.73 76.03,88.67 						"/>
					</g>
					<path class="st19" d="M185.44,170c0.8,0.03,0.91-0.24,1.25-1.15c-0.24-0.91-0.65-1.95-1.24-3.09
						c-0.38-0.74-0.84-1.57-1.35-2.44c-0.88,0.62-1.4,0.89-1.76,1.43C181.76,165.6,184.11,169.95,185.44,170z"/>
					<g>
						<path class="st20" d="M150.7,144.04c-0.86-1.33-1.43-2.76-1.93-4.21c-0.47-1.46-0.87-2.94-0.98-4.52
							c0.86,1.33,1.43,2.76,1.93,4.21C150.19,140.98,150.59,142.46,150.7,144.04z"/>
					</g>
					<g>
						<path class="st16" d="M155.04,143.62"/>
					</g>
					<g>
						<path class="st20" d="M176.56,150.93c0.07,0.47-0.16,0.97-0.52,1.32c-0.36,0.36-0.85,0.55-1.33,0.63
							c-0.48,0.07-0.95,0.01-1.39-0.12c-0.43-0.14-0.84-0.36-1.18-0.68c0.47-0.08,0.89-0.08,1.29-0.1c0.4-0.03,0.78-0.03,1.14-0.09
							C175.29,151.79,175.9,151.59,176.56,150.93z"/>
					</g>
					<path class="st18" d="M82.44,106.2c0,0-9.24-9.59-8.84-15.08c0.4-5.5,2.14-12.37,2.14-12.37l7.65,16.46L82.44,106.2z"/>
					<g>
						<path class="st19" d="M139.08,234.18c-0.72,0.11-4.21,2.5-5.63,3.33c1.91,2.1,3.57,3.14,4.89,3.5
							c0.86-0.29,1.73-0.92,1.82-2.29C140.36,235.94,139.95,234.05,139.08,234.18z"/>
					</g>
				</g>
				<path class="st17" d="M107.4,150.11c0,0,0.02,17.82-7.64,11.41s5.32-29.67,5.32-29.67s19.54,12.68,18.37,21.38
					S107.4,150.11,107.4,150.11z"/>
			</g>
			<path class="st19" d="M162.9,235.02c-0.47-0.44,1.8-3.72,3.24-5.28c1.44-1.56,4.44,2.64,3.48,4.56
				C168.66,236.22,167.46,239.34,162.9,235.02z"/>
			<path class="st19" d="M178.08,214.07c0,0,1.38-2.81,1.86-4.73s4.14-0.24,4.26,1.32c0.12,1.56-0.27,3.33-1.65,5.1
				C182.55,215.76,179.87,215.22,178.08,214.07z"/>
			<path class="st19" d="M97.46,224.62c0,0,1.06-0.42,1.49-0.59c0.42-0.16,1.08,1.8,1.31,2.62c0.22,0.83,0.75,2.96-0.44,4.11
				C99.81,230.77,98.93,230.01,97.46,224.62z"/>
		</g>
	</g>
	<text transform="matrix(1 0 0 1 172.4797 276.3595)" class="st21 st22 st23">CHARITY</text>
	<text transform="matrix(1 0 0 1 207.4896 231.5674)" class="st21 st22 st24">Day of</text>
</g>
</svg>
